<svg width="1202" height="367" viewBox="0 0 1202 367" fill="none" xmlns="http://www.w3.org/2000/svg">
<g clip-path="url(#clip0_101_2)">
<path d="M897.55 0.269997H873.69V365.92H897.55V0.269997Z" fill="#108A37"/>
<g opacity="0.3">
<path d="M897.55 0.269997H873.69V365.92H897.55V0.269997Z" fill="black"/>
</g>
<path d="M977 0.269997H897.56V365.92H977V0.269997Z" fill="#108A37"/>
<path d="M944.36 8.04H903.12V19.23H944.36V8.04Z" fill="#455A64"/>
<g opacity="0.3">
<path d="M944.36 8.04H903.12V19.23H944.36V8.04Z" fill="white"/>
</g>
<path d="M971.69 8.04H951.07V19.23H971.69V8.04Z" fill="#455A64"/>
<g opacity="0.3">
<path d="M971.69 8.04H951.07V19.23H971.69V8.04Z" fill="white"/>
</g>
<g opacity="0.3">
<path d="M903.12 9.8L942.38 9.83L942.47 19.23H944.35V8.04H903.12V9.8Z" fill="black"/>
</g>
<g opacity="0.3">
<path d="M951.07 8.04V9.66H969.41V19.23H971.69V8.04H951.07Z" fill="black"/>
</g>
<path d="M944.36 27.29H903.12V38.48H944.36V27.29Z" fill="#455A64"/>
<g opacity="0.3">
<path d="M944.36 27.29H903.12V38.48H944.36V27.29Z" fill="white"/>
</g>
<path d="M971.69 27.29H951.07V38.48H971.69V27.29Z" fill="#455A64"/>
<g opacity="0.3">
<path d="M971.69 27.29H951.07V38.48H971.69V27.29Z" fill="white"/>
</g>
<g opacity="0.3">
<path d="M903.12 29.05L942.38 29.08L942.47 38.48H944.35V27.29H903.12V29.05Z" fill="black"/>
</g>
<g opacity="0.3">
<path d="M951.07 27.29V28.92H969.41V38.48H971.69V27.29H951.07Z" fill="black"/>
</g>
<path d="M944.36 46.54H903.12V57.73H944.36V46.54Z" fill="#455A64"/>
<g opacity="0.3">
<path d="M944.36 46.54H903.12V57.73H944.36V46.54Z" fill="white"/>
</g>
<path d="M971.69 46.54H951.07V57.73H971.69V46.54Z" fill="#455A64"/>
<g opacity="0.3">
<path d="M971.69 57.73H966.5L966.46 55.23L959.76 55.24V57.73H951.07V46.54H971.69V57.73Z" fill="white"/>
</g>
<g opacity="0.3">
<path d="M903.12 48.3L942.38 48.33L942.47 57.73H944.35V46.54H903.12V48.3Z" fill="black"/>
</g>
<g opacity="0.3">
<path d="M951.07 46.54V48.17H969.41V57.73H971.69V46.54H951.07Z" fill="black"/>
</g>
<path d="M944.36 65.8H903.12V76.99H944.36V65.8Z" fill="#455A64"/>
<path d="M971.69 65.8H951.07V76.99H971.69V65.8Z" fill="#455A64"/>
<g opacity="0.3">
<path d="M955.19 76.98V71.39H959.35V65.79H951.07V76.98H955.19Z" fill="white"/>
</g>
<g opacity="0.3">
<path d="M971.68 65.8H968.09V76.99H971.68V65.8Z" fill="white"/>
</g>
<g opacity="0.3">
<path d="M944.36 65.8H903.12V76.99H944.36V65.8Z" fill="white"/>
</g>
<g opacity="0.3">
<path d="M903.12 67.56L942.38 67.59L942.47 76.98H944.35V65.79H903.12V67.56Z" fill="black"/>
</g>
<g opacity="0.3">
<path d="M951.07 65.79V67.42H969.41V76.98H971.69V65.79H951.07Z" fill="black"/>
</g>
<path d="M944.36 85.05H903.12V96.24H944.36V85.05Z" fill="#455A64"/>
<g opacity="0.3">
<path d="M903.12 93.18H912.78V89.01H930.84V96.24H944.35V85.05H903.12V93.18Z" fill="white"/>
</g>
<path d="M971.69 85.05H951.07V96.24H971.69V85.05Z" fill="#455A64"/>
<g opacity="0.3">
<path d="M971.68 85.05H968.09V96.24H971.68V85.05Z" fill="white"/>
</g>
<g opacity="0.3">
<path d="M903.12 86.81L942.38 86.84L942.47 96.24H944.35V85.05H903.12V86.81Z" fill="black"/>
</g>
<g opacity="0.3">
<path d="M955.19 85.05H951.07V96.24H955.19V85.05Z" fill="white"/>
</g>
<g opacity="0.3">
<path d="M951.07 85.05V86.67H969.41V96.24H971.69V85.05H951.07Z" fill="black"/>
</g>
<path d="M944.36 104.3H903.12V115.49H944.36V104.3Z" fill="#455A64"/>
<path d="M971.69 104.3H951.07V115.49H971.69V104.3Z" fill="#455A64"/>
<g opacity="0.3">
<path d="M903.12 106.06L942.38 106.09L942.47 115.49H944.35V104.3H903.12V106.06Z" fill="black"/>
</g>
<g opacity="0.3">
<path d="M951.07 104.3V105.93H969.41V115.49H971.69V104.3H951.07Z" fill="black"/>
</g>
<path d="M944.36 123.55H903.12V134.74H944.36V123.55Z" fill="#455A64"/>
<path d="M971.69 123.55H951.07V134.74H971.69V123.55Z" fill="#455A64"/>
<g opacity="0.3">
<path d="M903.12 125.31L942.38 125.34L942.47 134.74H944.35V123.55H903.12V125.31Z" fill="black"/>
</g>
<g opacity="0.3">
<path d="M951.07 123.55V125.18H969.41V134.74H971.69V123.55H951.07Z" fill="black"/>
</g>
<path d="M944.36 142.81H903.12V154H944.36V142.81Z" fill="#455A64"/>
<path d="M971.69 142.81H951.07V154H971.69V142.81Z" fill="#455A64"/>
<g opacity="0.3">
<path d="M903.12 144.57L942.38 144.6L942.47 153.99H944.35V142.81H903.12V144.57Z" fill="black"/>
</g>
<g opacity="0.3">
<path d="M951.07 142.81V144.43H969.41V153.99H971.69V142.81H951.07Z" fill="black"/>
</g>
<path d="M944.36 162.06H903.12V173.25H944.36V162.06Z" fill="#455A64"/>
<path d="M971.69 162.06H951.07V173.25H971.69V162.06Z" fill="#455A64"/>
<g opacity="0.3">
<path d="M903.12 163.82L942.38 163.85L942.47 173.25H944.35V162.06H903.12V163.82Z" fill="black"/>
</g>
<g opacity="0.3">
<path d="M951.07 162.06V163.68H969.41V173.25H971.69V162.06H951.07Z" fill="black"/>
</g>
<path d="M944.36 181.31H903.12V192.5H944.36V181.31Z" fill="#455A64"/>
<path d="M971.69 181.31H951.07V192.5H971.69V181.31Z" fill="#455A64"/>
<g opacity="0.3">
<path d="M903.12 183.07L942.38 183.1L942.47 192.5H944.35V181.31H903.12V183.07Z" fill="black"/>
</g>
<g opacity="0.3">
<path d="M951.07 181.31V182.94H969.41V192.5H971.69V181.31H951.07Z" fill="black"/>
</g>
<path d="M944.36 200.56H903.12V211.75H944.36V200.56Z" fill="#455A64"/>
<path d="M971.69 200.56H951.07V211.75H971.69V200.56Z" fill="#455A64"/>
<g opacity="0.3">
<path d="M903.12 202.32L942.38 202.36L942.47 211.75H944.35V200.56H903.12V202.32Z" fill="black"/>
</g>
<g opacity="0.3">
<path d="M951.07 200.56V202.19H969.41V211.75H971.69V200.56H951.07Z" fill="black"/>
</g>
<path d="M944.36 219.82H903.12V231.01H944.36V219.82Z" fill="#455A64"/>
<path d="M971.69 219.82H951.07V231.01H971.69V219.82Z" fill="#455A64"/>
<g opacity="0.3">
<path d="M903.12 221.58L942.38 221.61L942.47 231H944.35V219.82H903.12V221.58Z" fill="black"/>
</g>
<g opacity="0.3">
<path d="M951.07 219.82V221.44H969.41V231H971.69V219.82H951.07Z" fill="black"/>
</g>
<path d="M944.36 239.07H903.12V250.26H944.36V239.07Z" fill="#455A64"/>
<path d="M971.69 239.07H951.07V250.26H971.69V239.07Z" fill="#455A64"/>
<g opacity="0.3">
<path d="M903.12 240.83L942.38 240.86L942.47 250.26H944.35V239.07H903.12V240.83Z" fill="black"/>
</g>
<g opacity="0.3">
<path d="M951.07 239.07V240.69H969.41V250.26H971.69V239.07H951.07Z" fill="black"/>
</g>
<path d="M891.47 10.09H886.44V18.14H891.47V10.09Z" fill="#455A64"/>
<path d="M891.47 28.84H886.44V36.89H891.47V28.84Z" fill="#455A64"/>
<path d="M891.47 47.81H886.44V55.86H891.47V47.81Z" fill="#455A64"/>
<path d="M891.47 66.78H886.44V74.83H891.47V66.78Z" fill="#455A64"/>
<path d="M891.47 85.75H886.44V93.8H891.47V85.75Z" fill="#455A64"/>
<path d="M891.47 104.71H886.44V112.76H891.47V104.71Z" fill="#455A64"/>
<path d="M891.47 123.68H886.44V131.73H891.47V123.68Z" fill="#455A64"/>
<path d="M891.47 142.65H886.44V150.7H891.47V142.65Z" fill="#455A64"/>
<path d="M891.47 161.62H886.44V169.67H891.47V161.62Z" fill="#455A64"/>
<path d="M891.47 180.59H886.44V188.64H891.47V180.59Z" fill="#455A64"/>
<path d="M891.47 199.55H886.44V207.6H891.47V199.55Z" fill="#455A64"/>
<path d="M891.47 218.52H886.44V226.57H891.47V218.52Z" fill="#455A64"/>
<path d="M883.31 10.09H878.28V18.14H883.31V10.09Z" fill="#455A64"/>
<path d="M883.31 28.84H878.28V36.89H883.31V28.84Z" fill="#455A64"/>
<path d="M883.31 47.81H878.28V55.86H883.31V47.81Z" fill="#455A64"/>
<path d="M883.31 66.78H878.28V74.83H883.31V66.78Z" fill="#455A64"/>
<path d="M883.31 85.75H878.28V93.8H883.31V85.75Z" fill="#455A64"/>
<path d="M883.31 104.71H878.28V112.76H883.31V104.71Z" fill="#455A64"/>
<path d="M883.31 123.68H878.28V131.73H883.31V123.68Z" fill="#455A64"/>
<path d="M883.31 142.65H878.28V150.7H883.31V142.65Z" fill="#455A64"/>
<path d="M883.31 161.62H878.28V169.67H883.31V161.62Z" fill="#455A64"/>
<path d="M883.31 180.59H878.28V188.64H883.31V180.59Z" fill="#455A64"/>
<path d="M883.31 199.55H878.28V207.6H883.31V199.55Z" fill="#455A64"/>
<path d="M883.31 218.52H878.28V226.57H883.31V218.52Z" fill="#455A64"/>
<path d="M943.47 154C943.47 154.15 934.47 154.26 923.3 154.26C912.13 154.26 903.12 154.15 903.12 154C903.12 153.85 912.12 153.74 923.3 153.74C934.48 153.74 943.47 153.85 943.47 154Z" fill="white"/>
<path d="M970 154C966.951 154.263 963.889 154.35 960.83 154.26C957.771 154.35 954.709 154.263 951.66 154C954.709 153.743 957.771 153.656 960.83 153.74C963.889 153.656 966.951 153.743 970 154Z" fill="white"/>
<path d="M943.47 173.45C943.47 173.59 934.47 173.71 923.3 173.71C912.13 173.71 903.12 173.59 903.12 173.45C903.12 173.31 912.12 173.19 923.3 173.19C934.48 173.19 943.47 173.31 943.47 173.45Z" fill="white"/>
<path d="M970 173.45C966.951 173.707 963.889 173.794 960.83 173.71C957.771 173.794 954.709 173.707 951.66 173.45C954.709 173.193 957.771 173.106 960.83 173.19C963.889 173.106 966.951 173.193 970 173.45Z" fill="white"/>
<path d="M943.47 192.91C943.47 193.05 934.47 193.17 923.3 193.17C912.13 193.17 903.12 193.05 903.12 192.91C903.12 192.77 912.12 192.65 923.3 192.65C934.48 192.65 943.47 192.76 943.47 192.91Z" fill="white"/>
<path d="M970 192.91C966.951 193.167 963.889 193.254 960.83 193.17C957.771 193.254 954.709 193.167 951.66 192.91C954.709 192.647 957.771 192.56 960.83 192.65C963.889 192.56 966.951 192.647 970 192.91Z" fill="white"/>
<path d="M943.47 212.36C943.47 212.51 934.47 212.62 923.3 212.62C912.13 212.62 903.12 212.51 903.12 212.36C903.12 212.21 912.12 212.1 923.3 212.1C934.48 212.1 943.47 212.22 943.47 212.36Z" fill="white"/>
<path d="M970 212.36C966.951 212.623 963.889 212.71 960.83 212.62C957.771 212.71 954.709 212.623 951.66 212.36C954.709 212.103 957.771 212.016 960.83 212.1C963.889 212.016 966.951 212.103 970 212.36Z" fill="white"/>
<path d="M943.47 231.82C943.47 231.96 934.47 232.08 923.3 232.08C912.13 232.08 903.12 231.96 903.12 231.82C903.12 231.68 912.12 231.56 923.3 231.56C934.48 231.56 943.47 231.67 943.47 231.82Z" fill="white"/>
<path d="M970 231.82C966.951 232.077 963.889 232.164 960.83 232.08C957.771 232.164 954.709 232.077 951.66 231.82C954.709 231.557 957.771 231.47 960.83 231.56C963.889 231.47 966.951 231.557 970 231.82Z" fill="white"/>
<path d="M943.47 251.27C943.47 251.42 934.47 251.53 923.3 251.53C912.13 251.53 903.12 251.42 903.12 251.27C903.12 251.12 912.12 251.01 923.3 251.01C934.48 251.01 943.47 251.13 943.47 251.27Z" fill="white"/>
<path d="M970 251.27C966.951 251.533 963.889 251.62 960.83 251.53C957.771 251.62 954.709 251.533 951.66 251.27C954.709 251.013 957.771 250.926 960.83 251.01C963.889 250.926 966.951 251.013 970 251.27Z" fill="white"/>
<path d="M943.47 77.2C943.47 77.35 934.47 77.46 923.3 77.46C912.13 77.46 903.12 77.35 903.12 77.2C903.12 77.05 912.12 76.94 923.3 76.94C934.48 76.94 943.47 77.06 943.47 77.2Z" fill="white"/>
<path d="M943.47 57.73C943.47 57.87 934.47 57.99 923.3 57.99C912.13 57.99 903.12 57.87 903.12 57.73C903.12 57.59 912.12 57.47 923.3 57.47C934.48 57.47 943.47 57.59 943.47 57.73Z" fill="white"/>
<path d="M943.47 38.26C943.47 38.4 934.47 38.52 923.3 38.52C912.13 38.52 903.12 38.4 903.12 38.26C903.12 38.12 912.12 38 923.3 38C934.48 38 943.47 38.12 943.47 38.26Z" fill="white"/>
<path d="M943.47 96.24C943.47 96.38 934.47 96.5 923.3 96.5C912.13 96.5 903.12 96.38 903.12 96.24C903.12 96.1 912.12 95.98 923.3 95.98C934.48 95.98 943.47 96.09 943.47 96.24Z" fill="white"/>
<path d="M943.47 115.27C943.47 115.41 934.47 115.53 923.3 115.53C912.13 115.53 903.12 115.41 903.12 115.27C903.12 115.13 912.12 115.01 923.3 115.01C934.48 115.01 943.47 115.13 943.47 115.27Z" fill="white"/>
<path d="M943.47 134.3C943.47 134.45 934.47 134.56 923.3 134.56C912.13 134.56 903.12 134.45 903.12 134.3C903.12 134.15 912.12 134.04 923.3 134.04C934.48 134.04 943.47 134.16 943.47 134.3Z" fill="white"/>
<path d="M942.69 19.18C942.69 19.32 933.69 19.44 922.6 19.44C911.51 19.44 902.52 19.32 902.52 19.18C902.52 19.04 911.52 18.92 922.6 18.92C933.68 18.92 942.69 19 942.69 19.18Z" fill="white"/>
<path d="M970 19.18C966.951 19.4374 963.889 19.5242 960.83 19.44C957.771 19.5242 954.709 19.4374 951.66 19.18C954.709 18.9166 957.771 18.8298 960.83 18.92C963.889 18.8298 966.951 18.9166 970 19.18Z" fill="white"/>
<path d="M970 38.26C966.951 38.5174 963.889 38.6042 960.83 38.52C957.771 38.6042 954.709 38.5174 951.66 38.26C954.709 38.0026 957.771 37.9158 960.83 38C963.889 37.9158 966.951 38.0026 970 38.26Z" fill="white"/>
<path d="M970 57.34C966.951 57.6034 963.889 57.6902 960.83 57.6C957.771 57.6902 954.709 57.6034 951.66 57.34C954.709 57.0826 957.771 56.9958 960.83 57.08C963.889 56.9958 966.951 57.0826 970 57.34Z" fill="white"/>
<path d="M970 77.2C966.951 77.4634 963.889 77.5502 960.83 77.46C957.771 77.5502 954.709 77.4634 951.66 77.2C954.709 76.9426 957.771 76.8558 960.83 76.94C963.889 76.8558 966.951 76.9426 970 77.2Z" fill="white"/>
<path d="M970 96.24C966.951 96.4974 963.889 96.5842 960.83 96.5C957.771 96.5842 954.709 96.4974 951.66 96.24C954.709 95.9766 957.771 95.8898 960.83 95.98C963.889 95.8898 966.951 95.9766 970 96.24Z" fill="white"/>
<path d="M970 115.34C966.951 115.597 963.889 115.684 960.83 115.6C957.771 115.684 954.709 115.597 951.66 115.34C954.709 115.083 957.771 114.996 960.83 115.08C963.889 114.996 966.951 115.083 970 115.34Z" fill="white"/>
<path d="M970 134.44C966.951 134.703 963.889 134.79 960.83 134.7C957.771 134.79 954.709 134.703 951.66 134.44C954.709 134.183 957.771 134.096 960.83 134.18C963.889 134.096 966.951 134.183 970 134.44Z" fill="white"/>
<path d="M852.1 101.41H744.26V364.88H852.1V101.41Z" fill="#108A37"/>
<path d="M795.8 112.23H787.36V354.4H795.8V112.23Z" fill="#455A64"/>
<path d="M807.69 112.23H799.25V354.4H807.69V112.23Z" fill="#455A64"/>
<path d="M819.57 112.23H811.13V354.4H819.57V112.23Z" fill="#455A64"/>
<path d="M760.06 112.23H751.62V354.4H760.06V112.23Z" fill="#455A64"/>
<path d="M771.94 112.23H763.5V354.4H771.94V112.23Z" fill="#455A64"/>
<path d="M831.45 112.23H823.01V354.4H831.45V112.23Z" fill="#455A64"/>
<path d="M843.33 112.23H834.89V354.4H843.33V112.23Z" fill="#455A64"/>
<g opacity="0.3">
<path d="M778.84 101.41H744.26V364.88H778.84V101.41Z" fill="black"/>
</g>
<path d="M818.66 139C817.974 140.043 817.15 140.989 816.21 141.81C815.392 142.753 814.446 143.578 813.4 144.26C814.891 142.263 816.663 140.491 818.66 139Z" fill="white"/>
<path d="M829.17 146.13C829.27 146.24 828.52 147.13 827.49 148.13C826.46 149.13 825.55 149.83 825.49 149.72C825.92 148.954 826.49 148.275 827.17 147.72C828.16 146.74 829.07 146 829.17 146.13Z" fill="white"/>
<path d="M839.84 131.13C839.94 131.23 839.23 132.13 838.25 133.02C837.27 133.91 836.39 134.63 836.25 134.53C836.11 134.43 836.86 133.58 837.85 132.64C838.84 131.7 839.74 131 839.84 131.13Z" fill="white"/>
<path d="M1052.77 65.79H998.35V80.2H1052.77V65.79Z" fill="#263238"/>
<path d="M1050.48 67.6H1000.64V76.93H1050.48V67.6Z" fill="#455A64"/>
<g opacity="0.3">
<path d="M1050.48 67.6H1000.64V76.93H1050.48V67.6Z" fill="white"/>
</g>
<path d="M1059.95 78.09H990.04V255.17H1059.95V78.09Z" fill="#263238"/>
<path d="M1055.77 82.18H993.79V255.16H1055.77V82.18Z" fill="#455A64"/>
<g opacity="0.3">
<path d="M993.79 163.31H1006.34V143.8H1016.45V128.04H1036.67V177.75H1046.78V107.26H1055.77V82.18H993.79V163.31Z" fill="white"/>
</g>
<path d="M1058.62 100.38C1058.62 100.53 1043.76 100.64 1025.44 100.64C1007.12 100.64 992.26 100.53 992.26 100.38C992.26 100.23 1007.11 100.12 1025.44 100.12C1043.77 100.12 1058.62 100.24 1058.62 100.38Z" fill="#263238"/>
<path d="M1058.62 118.13C1058.62 118.27 1043.76 118.39 1025.44 118.39C1007.12 118.39 992.26 118.27 992.26 118.13C992.26 117.99 1007.11 117.87 1025.44 117.87C1043.77 117.87 1058.62 118 1058.62 118.13Z" fill="#263238"/>
<path d="M1058.62 135.88C1058.62 136.02 1043.76 136.14 1025.44 136.14C1007.12 136.14 992.26 136.02 992.26 135.88C992.26 135.74 1007.11 135.61 1025.44 135.61C1043.77 135.61 1058.62 135.73 1058.62 135.88Z" fill="#263238"/>
<path d="M1058.62 153.62C1058.62 153.77 1043.76 153.88 1025.44 153.88C1007.12 153.88 992.26 153.77 992.26 153.62C992.26 153.47 1007.11 153.36 1025.44 153.36C1043.77 153.36 1058.62 153.48 1058.62 153.62Z" fill="#263238"/>
<path d="M1058.62 171.37C1058.62 171.51 1043.76 171.63 1025.44 171.63C1007.12 171.63 992.26 171.51 992.26 171.37C992.26 171.23 1007.11 171.11 1025.44 171.11C1043.77 171.11 1058.62 171.22 1058.62 171.37Z" fill="#263238"/>
<path d="M1058.62 189.11C1058.62 189.26 1043.76 189.37 1025.44 189.37C1007.12 189.37 992.26 189.26 992.26 189.11C992.26 188.96 1007.11 188.85 1025.44 188.85C1043.77 188.85 1058.62 189 1058.62 189.11Z" fill="#263238"/>
<path d="M1058.62 206.86C1058.62 207 1043.76 207.12 1025.44 207.12C1007.12 207.12 992.26 207 992.26 206.86C992.26 206.72 1007.11 206.6 1025.44 206.6C1043.77 206.6 1058.62 206.72 1058.62 206.86Z" fill="#263238"/>
<path d="M1058.62 224.61C1058.62 224.75 1043.76 224.87 1025.44 224.87C1007.12 224.87 992.26 224.75 992.26 224.61C992.26 224.47 1007.11 224.35 1025.44 224.35C1043.77 224.35 1058.62 224.46 1058.62 224.61Z" fill="#263238"/>
<path d="M1058.62 242.35C1058.62 242.5 1043.76 242.61 1025.44 242.61C1007.12 242.61 992.26 242.5 992.26 242.35C992.26 242.2 1007.11 242.09 1025.44 242.09C1043.77 242.09 1058.62 242.21 1058.62 242.35Z" fill="#263238"/>
<path d="M1007.9 258.86C1007.75 258.86 1007.64 215.86 1007.64 162.86C1007.64 109.86 1007.75 66.86 1007.9 66.86C1008.05 66.86 1008.16 109.86 1008.16 162.86C1008.16 215.86 1008 258.86 1007.9 258.86Z" fill="#263238"/>
<path d="M1025.88 258.86C1025.74 258.86 1025.62 215.86 1025.62 162.86C1025.62 109.86 1025.74 66.86 1025.88 66.86C1026.02 66.86 1026.15 109.86 1026.15 162.86C1026.15 215.86 1026 258.86 1025.88 258.86Z" fill="#263238"/>
<path d="M1043.87 258.86C1043.73 258.86 1043.61 215.86 1043.61 162.86C1043.61 109.86 1043.73 66.86 1043.87 66.86C1044.01 66.86 1044.13 109.86 1044.13 162.86C1044.13 215.86 1044 258.86 1043.87 258.86Z" fill="#263238"/>
<path d="M998.35 65.79H990.48V78.09H998.35V65.79Z" fill="#263238"/>
<g opacity="0.3">
<path d="M998.35 65.79H990.48V78.09H998.35V65.79Z" fill="black"/>
</g>
<path d="M990.38 78.2H982.51V227.23H990.38V78.2Z" fill="#263238"/>
<g opacity="0.3">
<path d="M990.38 78.2H982.51V227.23H990.38V78.2Z" fill="black"/>
</g>
<path d="M1023.29 103.61C1021.7 105.454 1019.98 107.188 1018.15 108.8C1016.44 110.538 1014.6 112.149 1012.65 113.62C1014.25 111.774 1015.96 110.037 1017.79 108.42C1019.51 106.687 1021.34 105.079 1023.29 103.61Z" fill="white"/>
<path d="M1039.94 103.29C1038.35 105.142 1036.63 106.879 1034.8 108.49C1033.08 110.225 1031.24 111.835 1029.3 113.31C1032.6 109.727 1036.16 106.385 1039.94 103.31V103.29Z" fill="white"/>
<path d="M1040.22 89.2C1038.63 91.0548 1036.92 92.7927 1035.08 94.4C1033.36 96.1323 1031.53 97.7429 1029.59 99.22C1031.17 97.3624 1032.89 95.6243 1034.73 94.02C1036.44 92.2842 1038.28 90.6734 1040.22 89.2Z" fill="white"/>
<path d="M1174.92 320.7H1082.23V155.66L1174.92 110.5V320.7Z" fill="#455A64"/>
<path d="M1127.72 227.13H1119.38V239.11H1127.72V227.13Z" fill="#EBEBEB"/>
<g opacity="0.3">
<path d="M1119.38 227.13V228.61H1126.32V239.11H1127.72V227.13H1119.38Z" fill="black"/>
</g>
<path d="M1127.72 250.31H1119.38V262.29H1127.72V250.31Z" fill="#EBEBEB"/>
<g opacity="0.3">
<path d="M1119.38 250.31V251.8H1126.32V262.29H1127.72V250.31H1119.38Z" fill="black"/>
</g>
<path d="M1127.72 273.5H1119.38V285.48H1127.72V273.5Z" fill="#EBEBEB"/>
<g opacity="0.3">
<path d="M1119.38 273.5V274.98H1126.32V285.48H1127.72V273.5H1119.38Z" fill="black"/>
</g>
<path d="M1127.72 296.81H1119.38V320.79H1127.72V296.81Z" fill="#EBEBEB"/>
<g opacity="0.3">
<path d="M1119.38 296.81V299.79H1126.32V320.79H1127.72V296.81H1119.38Z" fill="black"/>
</g>
<path d="M1127.72 203.38H1119.38V215.36H1127.72V203.38Z" fill="#EBEBEB"/>
<g opacity="0.3">
<path d="M1119.38 203.38V204.87H1126.32V215.36H1127.72V203.38H1119.38Z" fill="black"/>
</g>
<path d="M1127.72 179.64H1119.38V191.62H1127.72V179.64Z" fill="#EBEBEB"/>
<g opacity="0.3">
<path d="M1119.38 179.64V181.12H1126.32V191.62H1127.72V179.64H1119.38Z" fill="black"/>
</g>
<path d="M1127.72 155.89H1119.38V167.87H1127.72V155.89Z" fill="#EBEBEB"/>
<g opacity="0.3">
<path d="M1119.38 155.89V157.38H1126.32V167.87H1127.72V155.89H1119.38Z" fill="black"/>
</g>
<path d="M1146.61 226.61H1138.27V238.59H1146.61V226.61Z" fill="#EBEBEB"/>
<g opacity="0.3">
<path d="M1138.27 226.61V228.09H1145.2V238.59H1146.61V226.61H1138.27Z" fill="black"/>
</g>
<path d="M1146.61 249.79H1138.27V261.77H1146.61V249.79Z" fill="#EBEBEB"/>
<g opacity="0.3">
<path d="M1138.27 249.79V251.28H1145.2V261.77H1146.61V249.79H1138.27Z" fill="black"/>
</g>
<path d="M1146.61 272.98H1138.27V284.96H1146.61V272.98Z" fill="#EBEBEB"/>
<g opacity="0.3">
<path d="M1138.27 272.98V274.46H1145.2V284.96H1146.61V272.98H1138.27Z" fill="black"/>
</g>
<path d="M1146.61 296.16H1138.27V320.79H1146.61V296.16Z" fill="#EBEBEB"/>
<g opacity="0.3">
<path d="M1138.27 296.16V299.22H1145.2V320.79H1146.61V296.16H1138.27Z" fill="black"/>
</g>
<path d="M1146.61 202.86H1138.27V214.84H1146.61V202.86Z" fill="#EBEBEB"/>
<g opacity="0.3">
<path d="M1138.27 202.86V204.35H1145.2V214.84H1146.61V202.86H1138.27Z" fill="black"/>
</g>
<path d="M1146.61 179.12H1138.27V191.1H1146.61V179.12Z" fill="#EBEBEB"/>
<g opacity="0.3">
<path d="M1138.27 179.12V180.6H1145.2V191.1H1146.61V179.12H1138.27Z" fill="black"/>
</g>
<path d="M1146.61 155.37H1138.27V167.35H1146.61V155.37Z" fill="#EBEBEB"/>
<g opacity="0.3">
<path d="M1138.27 155.37V156.86H1145.2V167.35H1146.61V155.37H1138.27Z" fill="black"/>
</g>
<path d="M1165.49 227H1157.15V238.98H1165.49V227Z" fill="#EBEBEB"/>
<g opacity="0.3">
<path d="M1157.15 227V228.49H1164.09V238.98H1165.49V227H1157.15Z" fill="black"/>
</g>
<path d="M1165.49 250.19H1157.15V262.17H1165.49V250.19Z" fill="#EBEBEB"/>
<g opacity="0.3">
<path d="M1157.15 250.19V251.67H1164.09V262.17H1165.49V250.19H1157.15Z" fill="black"/>
</g>
<path d="M1165.49 273.37H1157.15V285.35H1165.49V273.37Z" fill="#EBEBEB"/>
<g opacity="0.3">
<path d="M1157.15 273.37V274.86H1164.09V285.35H1165.49V273.37H1157.15Z" fill="black"/>
</g>
<path d="M1165.49 296.56H1157.15V320.54H1165.49V296.56Z" fill="#EBEBEB"/>
<g opacity="0.3">
<path d="M1157.15 296.56V299.53H1164.09V320.54H1165.49V296.56H1157.15Z" fill="black"/>
</g>
<path d="M1165.49 203.26H1157.15V215.24H1165.49V203.26Z" fill="#EBEBEB"/>
<g opacity="0.3">
<path d="M1157.15 203.25V204.74H1164.09V215.24H1165.49V203.25H1157.15Z" fill="black"/>
</g>
<path d="M1165.49 179.51H1157.15V191.49H1165.49V179.51Z" fill="#EBEBEB"/>
<g opacity="0.3">
<path d="M1157.15 179.51V181H1164.09V191.49H1165.49V179.51H1157.15Z" fill="black"/>
</g>
<path d="M1165.49 155.76H1157.15V167.74H1165.49V155.76Z" fill="#EBEBEB"/>
<g opacity="0.3">
<path d="M1157.15 155.76V157.25H1164.09V167.74H1165.49V155.76H1157.15Z" fill="black"/>
</g>
<path d="M1165.49 135.52H1157.15V147.5H1165.49V135.52Z" fill="#EBEBEB"/>
<g opacity="0.3">
<path d="M1157.15 135.52V137.01H1164.09V147.5H1165.49V135.52H1157.15Z" fill="black"/>
</g>
<path d="M1101.16 159.59H1098.24V171.57H1101.16V159.59Z" fill="#263238"/>
<path d="M1101.57 171.56H1096.24V173.37H1101.57V171.56Z" fill="white"/>
<path d="M1101.16 182.41H1098.24V194.39H1101.16V182.41Z" fill="#263238"/>
<path d="M1101.57 194.39H1096.24V196.2H1101.57V194.39Z" fill="white"/>
<path d="M1101.16 205.23H1098.24V217.21H1101.16V205.23Z" fill="#263238"/>
<path d="M1101.57 217.21H1096.24V219.02H1101.57V217.21Z" fill="white"/>
<path d="M1101.16 228.06H1098.24V240.04H1101.16V228.06Z" fill="#263238"/>
<path d="M1101.57 240.04H1096.24V241.85H1101.57V240.04Z" fill="white"/>
<path d="M1101.45 250.28H1098.53V262.26H1101.45V250.28Z" fill="#263238"/>
<path d="M1101.86 262.26H1096.53V264.07H1101.86V262.26Z" fill="white"/>
<path d="M1101.74 272.51H1098.82V284.49H1101.74V272.51Z" fill="#263238"/>
<path d="M1102.15 284.49H1096.82V286.3H1102.15V284.49Z" fill="white"/>
<path d="M1102.03 294.74H1099.11V306.72H1102.03V294.74Z" fill="#263238"/>
<path d="M1102.44 306.72H1097.11V308.53H1102.44V306.72Z" fill="white"/>
<path d="M1092.23 159.59H1089.31V171.57H1092.23V159.59Z" fill="#263238"/>
<path d="M1092.64 171.56H1087.31V173.37H1092.64V171.56Z" fill="white"/>
<path d="M1092.23 182.41H1089.31V194.39H1092.23V182.41Z" fill="#263238"/>
<path d="M1092.64 194.39H1087.31V196.2H1092.64V194.39Z" fill="white"/>
<path d="M1092.23 205.23H1089.31V217.21H1092.23V205.23Z" fill="#263238"/>
<path d="M1092.64 217.21H1087.31V219.02H1092.64V217.21Z" fill="white"/>
<path d="M1092.23 228.06H1089.31V240.04H1092.23V228.06Z" fill="#263238"/>
<path d="M1092.64 240.04H1087.31V241.85H1092.64V240.04Z" fill="white"/>
<path d="M1092.52 250.28H1089.6V262.26H1092.52V250.28Z" fill="#263238"/>
<path d="M1092.93 262.26H1087.6V264.07H1092.93V262.26Z" fill="white"/>
<path d="M1092.81 272.51H1089.89V284.49H1092.81V272.51Z" fill="#263238"/>
<path d="M1093.22 284.49H1087.89V286.3H1093.22V284.49Z" fill="white"/>
<path d="M1093.1 294.74H1090.18V306.72H1093.1V294.74Z" fill="#263238"/>
<path d="M1093.51 306.72H1088.18V308.53H1093.51V306.72Z" fill="white"/>
<g opacity="0.3">
<path d="M1108.46 320.79H1082.23V155.66L1109.06 142.58L1108.46 320.79Z" fill="black"/>
</g>
<path d="M937.16 151.81H857.95V365.26H937.16V151.81Z" fill="#E0E0E0"/>
<path d="M893.93 159.93H888.73V167.41H893.93V159.93Z" fill="#455A64"/>
<g opacity="0.3">
<path d="M888.73 159.93V160.86H893.05V167.41H893.93V159.93H888.73Z" fill="black"/>
</g>
<path d="M901.91 159.93H896.71V167.41H901.91V159.93Z" fill="#455A64"/>
<g opacity="0.3">
<path d="M896.71 159.93V160.86H901.03V167.41H901.91V159.93H896.71Z" fill="black"/>
</g>
<path d="M909.89 159.93H904.69V167.41H909.89V159.93Z" fill="#455A64"/>
<g opacity="0.3">
<path d="M904.69 159.93V160.86H909.01V167.41H909.89V159.93H904.69Z" fill="black"/>
</g>
<path d="M917.87 159.93H912.67V167.41H917.87V159.93Z" fill="#455A64"/>
<g opacity="0.3">
<path d="M912.67 159.93V160.86H917V167.41H917.87V159.93H912.67Z" fill="black"/>
</g>
<path d="M925.85 159.93H920.65V167.41H925.85V159.93Z" fill="#455A64"/>
<g opacity="0.3">
<path d="M920.65 159.93V160.86H924.98V167.41H925.86V159.93H920.65Z" fill="black"/>
</g>
<path d="M933.83 159.93H928.63V167.41H933.83V159.93Z" fill="#455A64"/>
<g opacity="0.3">
<path d="M928.63 159.93V160.86H932.96V167.41H933.84V159.93H928.63Z" fill="black"/>
</g>
<path d="M866.47 159.93H861.27V167.41H866.47V159.93Z" fill="#455A64"/>
<g opacity="0.3">
<path d="M861.27 159.93V160.86H865.6V167.41H866.48V159.93H861.27Z" fill="black"/>
</g>
<path d="M874.45 159.93H869.25V167.41H874.45V159.93Z" fill="#455A64"/>
<g opacity="0.3">
<path d="M869.25 159.93V160.86H873.58V167.41H874.46V159.93H869.25Z" fill="black"/>
</g>
<path d="M882.43 159.93H877.23V167.41H882.43V159.93Z" fill="#455A64"/>
<g opacity="0.3">
<path d="M877.23 159.93V160.86H881.56V167.41H882.44V159.93H877.23Z" fill="black"/>
</g>
<path d="M893.93 171.03H888.73V178.51H893.93V171.03Z" fill="#455A64"/>
<g opacity="0.3">
<path d="M888.73 171.03V171.96H893.05V178.51H893.93V171.03H888.73Z" fill="black"/>
</g>
<path d="M901.91 171.03H896.71V178.51H901.91V171.03Z" fill="#455A64"/>
<g opacity="0.3">
<path d="M896.71 171.03V171.96H901.03V178.51H901.91V171.03H896.71Z" fill="black"/>
</g>
<path d="M909.89 171.03H904.69V178.51H909.89V171.03Z" fill="#455A64"/>
<g opacity="0.3">
<path d="M904.69 171.03V171.96H909.01V178.51H909.89V171.03H904.69Z" fill="black"/>
</g>
<path d="M917.87 171.03H912.67V178.51H917.87V171.03Z" fill="#455A64"/>
<g opacity="0.3">
<path d="M912.67 171.03V171.96H917V178.51H917.87V171.03H912.67Z" fill="black"/>
</g>
<path d="M925.85 171.03H920.65V178.51H925.85V171.03Z" fill="#455A64"/>
<g opacity="0.3">
<path d="M920.65 171.03V171.96H924.98V178.51H925.86V171.03H920.65Z" fill="black"/>
</g>
<path d="M933.83 171.03H928.63V178.51H933.83V171.03Z" fill="#455A64"/>
<g opacity="0.3">
<path d="M928.63 171.03V171.96H932.96V178.51H933.84V171.03H928.63Z" fill="black"/>
</g>
<path d="M866.47 171.03H861.27V178.51H866.47V171.03Z" fill="#455A64"/>
<g opacity="0.3">
<path d="M861.27 171.03V171.96H865.6V178.51H866.48V171.03H861.27Z" fill="black"/>
</g>
<path d="M874.45 171.03H869.25V178.51H874.45V171.03Z" fill="#455A64"/>
<g opacity="0.3">
<path d="M869.25 171.03V171.96H873.58V178.51H874.46V171.03H869.25Z" fill="black"/>
</g>
<path d="M882.43 171.03H877.23V178.51H882.43V171.03Z" fill="#455A64"/>
<g opacity="0.3">
<path d="M877.23 171.03V171.96H881.56V178.51H882.44V171.03H877.23Z" fill="black"/>
</g>
<path d="M893.93 182.13H888.73V189.61H893.93V182.13Z" fill="#455A64"/>
<g opacity="0.3">
<path d="M888.73 182.13V183.06H893.05V189.61H893.93V182.13H888.73Z" fill="black"/>
</g>
<path d="M901.91 182.13H896.71V189.61H901.91V182.13Z" fill="#455A64"/>
<g opacity="0.3">
<path d="M896.71 182.13V183.06H901.03V189.61H901.91V182.13H896.71Z" fill="black"/>
</g>
<path d="M909.89 182.13H904.69V189.61H909.89V182.13Z" fill="#455A64"/>
<g opacity="0.3">
<path d="M904.69 182.13V183.06H909.01V189.61H909.89V182.13H904.69Z" fill="black"/>
</g>
<path d="M917.87 182.13H912.67V189.61H917.87V182.13Z" fill="#455A64"/>
<g opacity="0.3">
<path d="M912.67 182.13V183.06H917V189.61H917.87V182.13H912.67Z" fill="black"/>
</g>
<path d="M925.85 182.13H920.65V189.61H925.85V182.13Z" fill="#455A64"/>
<g opacity="0.3">
<path d="M920.65 182.13V183.06H924.98V189.61H925.86V182.13H920.65Z" fill="black"/>
</g>
<path d="M933.83 182.13H928.63V189.61H933.83V182.13Z" fill="#455A64"/>
<g opacity="0.3">
<path d="M928.63 182.13V183.06H932.96V189.61H933.84V182.13H928.63Z" fill="black"/>
</g>
<path d="M866.47 182.13H861.27V189.61H866.47V182.13Z" fill="#455A64"/>
<g opacity="0.3">
<path d="M861.27 182.13V183.06H865.6V189.61H866.48V182.13H861.27Z" fill="black"/>
</g>
<path d="M874.45 182.13H869.25V189.61H874.45V182.13Z" fill="#455A64"/>
<g opacity="0.3">
<path d="M869.25 182.13V183.06H873.58V189.61H874.46V182.13H869.25Z" fill="black"/>
</g>
<path d="M882.43 182.13H877.23V189.61H882.43V182.13Z" fill="#455A64"/>
<g opacity="0.3">
<path d="M877.23 182.13V183.06H881.56V189.61H882.44V182.13H877.23Z" fill="black"/>
</g>
<g opacity="0.4">
<path d="M866.47 159.93H861.27V167.41H866.47V159.93Z" fill="white"/>
<g opacity="0.3">
<path d="M861.27 159.93V160.86H865.6V167.41H866.48V159.93H861.27Z" fill="white"/>
</g>
</g>
<g opacity="0.4">
<path d="M874.45 159.93H869.25V167.41H874.45V159.93Z" fill="white"/>
<g opacity="0.3">
<path d="M869.25 159.93V160.86H873.58V167.41H874.46V159.93H869.25Z" fill="white"/>
</g>
</g>
<g opacity="0.4">
<path d="M882.43 159.93H877.23V167.41H882.43V159.93Z" fill="white"/>
<g opacity="0.3">
<path d="M877.23 159.93V160.86H881.56V167.41H882.44V159.93H877.23Z" fill="white"/>
</g>
</g>
<g opacity="0.4">
<path d="M866.47 171.03H861.27V178.51H866.47V171.03Z" fill="white"/>
<g opacity="0.3">
<path d="M861.27 171.03V171.96H865.6V178.51H866.48V171.03H861.27Z" fill="white"/>
</g>
</g>
<g opacity="0.4">
<path d="M874.45 171.03H869.25V178.51H874.45V171.03Z" fill="white"/>
<g opacity="0.3">
<path d="M869.25 171.03V171.96H873.58V178.51H874.46V171.03H869.25Z" fill="white"/>
</g>
</g>
<g opacity="0.4">
<path d="M882.43 171.03H877.23V178.51H882.43V171.03Z" fill="white"/>
<g opacity="0.3">
<path d="M877.23 171.03V171.96H881.56V178.51H882.44V171.03H877.23Z" fill="white"/>
</g>
</g>
<g opacity="0.4">
<path d="M866.47 182.13H861.27V189.61H866.47V182.13Z" fill="white"/>
<g opacity="0.3">
<path d="M861.27 182.13V183.06H865.6V189.61H866.48V182.13H861.27Z" fill="white"/>
</g>
</g>
<g opacity="0.4">
<path d="M882.43 182.13H877.23V189.61H882.43V182.13Z" fill="white"/>
<g opacity="0.3">
<path d="M877.23 182.13V183.06H881.56V189.61H882.44V182.13H877.23Z" fill="white"/>
</g>
</g>
<path d="M893.93 193.23H888.73V200.71H893.93V193.23Z" fill="#455A64"/>
<g opacity="0.3">
<path d="M888.73 193.23V194.16H893.05V200.71H893.93V193.23H888.73Z" fill="black"/>
</g>
<path d="M901.91 193.23H896.71V200.71H901.91V193.23Z" fill="#455A64"/>
<g opacity="0.3">
<path d="M896.71 193.23V194.16H901.03V200.71H901.91V193.23H896.71Z" fill="black"/>
</g>
<path d="M909.89 193.23H904.69V200.71H909.89V193.23Z" fill="#455A64"/>
<g opacity="0.3">
<path d="M904.69 193.23V194.16H909.01V200.71H909.89V193.23H904.69Z" fill="black"/>
</g>
<path d="M917.87 193.23H912.67V200.71H917.87V193.23Z" fill="#455A64"/>
<g opacity="0.3">
<path d="M912.67 193.23V194.16H917V200.71H917.87V193.23H912.67Z" fill="black"/>
</g>
<path d="M925.85 193.23H920.65V200.71H925.85V193.23Z" fill="#455A64"/>
<g opacity="0.3">
<path d="M920.65 193.23V194.16H924.98V200.71H925.86V193.23H920.65Z" fill="black"/>
</g>
<path d="M933.83 193.23H928.63V200.71H933.83V193.23Z" fill="#455A64"/>
<g opacity="0.3">
<path d="M928.63 193.23V194.16H932.96V200.71H933.84V193.23H928.63Z" fill="black"/>
</g>
<path d="M866.47 193.23H861.27V200.71H866.47V193.23Z" fill="#455A64"/>
<g opacity="0.3">
<path d="M861.27 193.23V194.16H865.6V200.71H866.48V193.23H861.27Z" fill="black"/>
</g>
<path d="M874.45 193.23H869.25V200.71H874.45V193.23Z" fill="#455A64"/>
<g opacity="0.3">
<path d="M869.25 193.23V194.16H873.58V200.71H874.46V193.23H869.25Z" fill="black"/>
</g>
<path d="M882.43 193.23H877.23V200.71H882.43V193.23Z" fill="#455A64"/>
<g opacity="0.3">
<path d="M877.23 193.23V194.16H881.56V200.71H882.44V193.23H877.23Z" fill="black"/>
</g>
<path d="M893.93 204.33H888.73V211.81H893.93V204.33Z" fill="#455A64"/>
<g opacity="0.3">
<path d="M888.73 204.33V205.26H893.05V211.81H893.93V204.33H888.73Z" fill="black"/>
</g>
<path d="M901.91 204.33H896.71V211.81H901.91V204.33Z" fill="#455A64"/>
<g opacity="0.3">
<path d="M896.71 204.33V205.26H901.03V211.81H901.91V204.33H896.71Z" fill="black"/>
</g>
<path d="M909.89 204.33H904.69V211.81H909.89V204.33Z" fill="#455A64"/>
<g opacity="0.3">
<path d="M904.69 204.33V205.26H909.01V211.81H909.89V204.33H904.69Z" fill="black"/>
</g>
<path d="M917.87 204.33H912.67V211.81H917.87V204.33Z" fill="#455A64"/>
<g opacity="0.3">
<path d="M912.67 204.33V205.26H917V211.81H917.87V204.33H912.67Z" fill="black"/>
</g>
<path d="M925.85 204.33H920.65V211.81H925.85V204.33Z" fill="#455A64"/>
<g opacity="0.3">
<path d="M920.65 204.33V205.26H924.98V211.81H925.86V204.33H920.65Z" fill="black"/>
</g>
<path d="M933.83 204.33H928.63V211.81H933.83V204.33Z" fill="#455A64"/>
<g opacity="0.3">
<path d="M928.63 204.33V205.26H932.96V211.81H933.84V204.33H928.63Z" fill="black"/>
</g>
<path d="M866.47 204.33H861.27V211.81H866.47V204.33Z" fill="#455A64"/>
<g opacity="0.3">
<path d="M861.27 204.33V205.26H865.6V211.81H866.48V204.33H861.27Z" fill="black"/>
</g>
<path d="M874.45 204.33H869.25V211.81H874.45V204.33Z" fill="#455A64"/>
<g opacity="0.3">
<path d="M869.25 204.33V205.26H873.58V211.81H874.46V204.33H869.25Z" fill="black"/>
</g>
<path d="M882.43 204.33H877.23V211.81H882.43V204.33Z" fill="#455A64"/>
<g opacity="0.3">
<path d="M877.23 204.33V205.26H881.56V211.81H882.44V204.33H877.23Z" fill="black"/>
</g>
<path d="M893.93 215.43H888.73V222.91H893.93V215.43Z" fill="#455A64"/>
<g opacity="0.3">
<path d="M888.73 215.43V216.36H893.05V222.91H893.93V215.43H888.73Z" fill="black"/>
</g>
<path d="M901.91 215.43H896.71V222.91H901.91V215.43Z" fill="#455A64"/>
<g opacity="0.3">
<path d="M896.71 215.43V216.36H901.03V222.91H901.91V215.43H896.71Z" fill="black"/>
</g>
<path d="M909.89 215.43H904.69V222.91H909.89V215.43Z" fill="#455A64"/>
<g opacity="0.3">
<path d="M904.69 215.43V216.36H909.01V222.91H909.89V215.43H904.69Z" fill="black"/>
</g>
<path d="M917.87 215.43H912.67V222.91H917.87V215.43Z" fill="#455A64"/>
<g opacity="0.3">
<path d="M912.67 215.43V216.36H917V222.91H917.87V215.43H912.67Z" fill="black"/>
</g>
<path d="M925.85 215.43H920.65V222.91H925.85V215.43Z" fill="#455A64"/>
<g opacity="0.3">
<path d="M920.65 215.43V216.36H924.98V222.91H925.86V215.43H920.65Z" fill="black"/>
</g>
<path d="M933.83 215.43H928.63V222.91H933.83V215.43Z" fill="#455A64"/>
<g opacity="0.3">
<path d="M928.63 215.43V216.36H932.96V222.91H933.84V215.43H928.63Z" fill="black"/>
</g>
<path d="M866.47 215.43H861.27V222.91H866.47V215.43Z" fill="#455A64"/>
<g opacity="0.3">
<path d="M861.27 215.43V216.36H865.6V222.91H866.48V215.43H861.27Z" fill="black"/>
</g>
<path d="M874.45 215.43H869.25V222.91H874.45V215.43Z" fill="#455A64"/>
<g opacity="0.3">
<path d="M869.25 215.43V216.36H873.58V222.91H874.46V215.43H869.25Z" fill="black"/>
</g>
<path d="M882.43 215.43H877.23V222.91H882.43V215.43Z" fill="#455A64"/>
<g opacity="0.3">
<path d="M877.23 215.43V216.36H881.56V222.91H882.44V215.43H877.23Z" fill="black"/>
</g>
<path d="M893.93 231.84H888.73V239.32H893.93V231.84Z" fill="#455A64"/>
<g opacity="0.3">
<path d="M888.73 231.84V232.77H893.05V239.32H893.93V231.84H888.73Z" fill="black"/>
</g>
<path d="M901.91 231.84H896.71V239.32H901.91V231.84Z" fill="#455A64"/>
<g opacity="0.3">
<path d="M896.71 231.84V232.77H901.03V239.32H901.91V231.84H896.71Z" fill="black"/>
</g>
<path d="M909.89 231.84H904.69V239.32H909.89V231.84Z" fill="#455A64"/>
<g opacity="0.3">
<path d="M904.69 231.84V232.77H909.01V239.32H909.89V231.84H904.69Z" fill="black"/>
</g>
<path d="M917.87 231.84H912.67V239.32H917.87V231.84Z" fill="#455A64"/>
<g opacity="0.3">
<path d="M912.67 231.84V232.77H917V239.32H917.87V231.84H912.67Z" fill="black"/>
</g>
<path d="M925.85 231.84H920.65V239.32H925.85V231.84Z" fill="#455A64"/>
<g opacity="0.3">
<path d="M920.65 231.84V232.77H924.98V239.32H925.86V231.84H920.65Z" fill="black"/>
</g>
<path d="M933.83 231.84H928.63V239.32H933.83V231.84Z" fill="#455A64"/>
<g opacity="0.3">
<path d="M928.63 231.84V232.77H932.96V239.32H933.84V231.84H928.63Z" fill="black"/>
</g>
<path d="M866.47 231.84H861.27V239.32H866.47V231.84Z" fill="#455A64"/>
<g opacity="0.3">
<path d="M861.27 231.84V232.77H865.6V239.32H866.48V231.84H861.27Z" fill="black"/>
</g>
<path d="M874.45 231.84H869.25V239.32H874.45V231.84Z" fill="#455A64"/>
<g opacity="0.3">
<path d="M869.25 231.84V232.77H873.58V239.32H874.46V231.84H869.25Z" fill="black"/>
</g>
<path d="M882.43 231.84H877.23V239.32H882.43V231.84Z" fill="#455A64"/>
<g opacity="0.3">
<path d="M877.23 231.84V232.77H881.56V239.32H882.44V231.84H877.23Z" fill="black"/>
</g>
<path d="M893.93 242.56H888.73V250.04H893.93V242.56Z" fill="#455A64"/>
<g opacity="0.3">
<path d="M888.73 242.56V243.49H893.05V250.04H893.93V242.56H888.73Z" fill="black"/>
</g>
<path d="M901.91 242.56H896.71V250.04H901.91V242.56Z" fill="#455A64"/>
<g opacity="0.3">
<path d="M896.71 242.56V243.49H901.03V250.04H901.91V242.56H896.71Z" fill="black"/>
</g>
<path d="M909.89 242.56H904.69V250.04H909.89V242.56Z" fill="#455A64"/>
<g opacity="0.3">
<path d="M904.69 242.56V243.49H909.01V250.04H909.89V242.56H904.69Z" fill="black"/>
</g>
<path d="M917.87 242.56H912.67V250.04H917.87V242.56Z" fill="#455A64"/>
<g opacity="0.3">
<path d="M912.67 242.56V243.49H917V250.04H917.87V242.56H912.67Z" fill="black"/>
</g>
<path d="M925.85 242.56H920.65V250.04H925.85V242.56Z" fill="#455A64"/>
<g opacity="0.3">
<path d="M920.65 242.56V243.49H924.98V250.04H925.86V242.56H920.65Z" fill="black"/>
</g>
<path d="M933.83 242.56H928.63V250.04H933.83V242.56Z" fill="#455A64"/>
<g opacity="0.3">
<path d="M928.63 242.56V243.49H932.96V250.04H933.84V242.56H928.63Z" fill="black"/>
</g>
<path d="M866.47 242.56H861.27V250.04H866.47V242.56Z" fill="#455A64"/>
<g opacity="0.3">
<path d="M861.27 242.56V243.49H865.6V250.04H866.48V242.56H861.27Z" fill="black"/>
</g>
<path d="M874.45 242.56H869.25V250.04H874.45V242.56Z" fill="#455A64"/>
<g opacity="0.3">
<path d="M869.25 242.56V243.49H873.58V250.04H874.46V242.56H869.25Z" fill="black"/>
</g>
<path d="M882.43 242.56H877.23V250.04H882.43V242.56Z" fill="#455A64"/>
<g opacity="0.3">
<path d="M877.23 242.56V243.49H881.56V250.04H882.44V242.56H877.23Z" fill="black"/>
</g>
<path d="M893.93 253.28H888.73V260.76H893.93V253.28Z" fill="#455A64"/>
<g opacity="0.3">
<path d="M888.73 253.28V254.21H893.05V260.75H893.93V253.28H888.73Z" fill="black"/>
</g>
<path d="M901.91 253.28H896.71V260.76H901.91V253.28Z" fill="#455A64"/>
<g opacity="0.3">
<path d="M896.71 253.28V254.21H901.03V260.75H901.91V253.28H896.71Z" fill="black"/>
</g>
<path d="M909.89 253.28H904.69V260.76H909.89V253.28Z" fill="#455A64"/>
<g opacity="0.3">
<path d="M904.69 253.28V254.21H909.01V260.75H909.89V253.28H904.69Z" fill="black"/>
</g>
<path d="M917.87 253.28H912.67V260.76H917.87V253.28Z" fill="#455A64"/>
<g opacity="0.3">
<path d="M912.67 253.28V254.21H917V260.75H917.87V253.28H912.67Z" fill="black"/>
</g>
<path d="M925.85 253.28H920.65V260.76H925.85V253.28Z" fill="#455A64"/>
<g opacity="0.3">
<path d="M920.65 253.28V254.21H924.98V260.75H925.86V253.28H920.65Z" fill="black"/>
</g>
<path d="M933.83 253.28H928.63V260.76H933.83V253.28Z" fill="#455A64"/>
<g opacity="0.3">
<path d="M928.63 253.28V254.21H932.96V260.75H933.84V253.28H928.63Z" fill="black"/>
</g>
<path d="M866.47 253.28H861.27V260.76H866.47V253.28Z" fill="#455A64"/>
<g opacity="0.3">
<path d="M861.27 253.28V254.21H865.6V260.75H866.48V253.28H861.27Z" fill="black"/>
</g>
<path d="M874.45 253.28H869.25V260.76H874.45V253.28Z" fill="#455A64"/>
<g opacity="0.3">
<path d="M869.25 253.28V254.21H873.58V260.75H874.46V253.28H869.25Z" fill="black"/>
</g>
<path d="M882.43 253.28H877.23V260.76H882.43V253.28Z" fill="#455A64"/>
<g opacity="0.3">
<path d="M877.23 253.28V254.21H881.56V260.75H882.44V253.28H877.23Z" fill="black"/>
</g>
<path d="M893.93 264H888.73V271.48H893.93V264Z" fill="#455A64"/>
<g opacity="0.3">
<path d="M888.73 264V264.93H893.05V271.47H893.93V264H888.73Z" fill="black"/>
</g>
<path d="M901.91 264H896.71V271.48H901.91V264Z" fill="#455A64"/>
<g opacity="0.3">
<path d="M896.71 264V264.93H901.03V271.47H901.91V264H896.71Z" fill="black"/>
</g>
<path d="M909.89 264H904.69V271.48H909.89V264Z" fill="#455A64"/>
<g opacity="0.3">
<path d="M904.69 264V264.93H909.01V271.47H909.89V264H904.69Z" fill="black"/>
</g>
<path d="M917.87 264H912.67V271.48H917.87V264Z" fill="#455A64"/>
<g opacity="0.3">
<path d="M912.67 264V264.93H917V271.47H917.87V264H912.67Z" fill="black"/>
</g>
<path d="M925.85 264H920.65V271.48H925.85V264Z" fill="#455A64"/>
<g opacity="0.3">
<path d="M920.65 264V264.93H924.98V271.47H925.86V264H920.65Z" fill="black"/>
</g>
<path d="M933.83 264H928.63V271.48H933.83V264Z" fill="#455A64"/>
<g opacity="0.3">
<path d="M928.63 264V264.93H932.96V271.47H933.84V264H928.63Z" fill="black"/>
</g>
<path d="M866.47 264H861.27V271.48H866.47V264Z" fill="#455A64"/>
<g opacity="0.3">
<path d="M861.27 264V264.93H865.6V271.47H866.48V264H861.27Z" fill="black"/>
</g>
<path d="M874.45 264H869.25V271.48H874.45V264Z" fill="#455A64"/>
<g opacity="0.3">
<path d="M869.25 264V264.93H873.58V271.47H874.46V264H869.25Z" fill="black"/>
</g>
<path d="M882.43 264H877.23V271.48H882.43V264Z" fill="#455A64"/>
<g opacity="0.3">
<path d="M877.23 264V264.93H881.56V271.47H882.44V264H877.23Z" fill="black"/>
</g>
<path d="M893.93 274.72H888.73V282.2H893.93V274.72Z" fill="#455A64"/>
<g opacity="0.3">
<path d="M888.73 274.72V275.64H893.05V282.19H893.93V274.72H888.73Z" fill="black"/>
</g>
<path d="M901.91 274.72H896.71V282.2H901.91V274.72Z" fill="#455A64"/>
<g opacity="0.3">
<path d="M896.71 274.72V275.64H901.03V282.19H901.91V274.72H896.71Z" fill="black"/>
</g>
<path d="M909.89 274.72H904.69V282.2H909.89V274.72Z" fill="#455A64"/>
<g opacity="0.3">
<path d="M904.69 274.72V275.64H909.01V282.19H909.89V274.72H904.69Z" fill="black"/>
</g>
<path d="M917.87 274.72H912.67V282.2H917.87V274.72Z" fill="#455A64"/>
<g opacity="0.3">
<path d="M912.67 274.72V275.64H917V282.19H917.87V274.72H912.67Z" fill="black"/>
</g>
<path d="M925.85 274.72H920.65V282.2H925.85V274.72Z" fill="#455A64"/>
<g opacity="0.3">
<path d="M920.65 274.72V275.64H924.98V282.19H925.86V274.72H920.65Z" fill="black"/>
</g>
<path d="M933.83 274.72H928.63V282.2H933.83V274.72Z" fill="#455A64"/>
<g opacity="0.3">
<path d="M928.63 274.72V275.64H932.96V282.19H933.84V274.72H928.63Z" fill="black"/>
</g>
<path d="M866.47 274.72H861.27V282.2H866.47V274.72Z" fill="#455A64"/>
<g opacity="0.3">
<path d="M861.27 274.72V275.64H865.6V282.19H866.48V274.72H861.27Z" fill="black"/>
</g>
<path d="M874.45 274.72H869.25V282.2H874.45V274.72Z" fill="#455A64"/>
<g opacity="0.3">
<path d="M869.25 274.72V275.64H873.58V282.19H874.46V274.72H869.25Z" fill="black"/>
</g>
<path d="M882.43 274.72H877.23V282.2H882.43V274.72Z" fill="#455A64"/>
<g opacity="0.3">
<path d="M877.23 274.72V275.64H881.56V282.19H882.44V274.72H877.23Z" fill="black"/>
</g>
<path d="M893.93 285.44H888.73V292.92H893.93V285.44Z" fill="#455A64"/>
<g opacity="0.3">
<path d="M888.73 285.44V286.36H893.05V292.91H893.93V285.44H888.73Z" fill="black"/>
</g>
<path d="M901.91 285.44H896.71V292.92H901.91V285.44Z" fill="#455A64"/>
<g opacity="0.3">
<path d="M896.71 285.44V286.36H901.03V292.91H901.91V285.44H896.71Z" fill="black"/>
</g>
<path d="M909.89 285.44H904.69V292.92H909.89V285.44Z" fill="#455A64"/>
<g opacity="0.3">
<path d="M904.69 285.44V286.36H909.01V292.91H909.89V285.44H904.69Z" fill="black"/>
</g>
<path d="M917.87 285.44H912.67V292.92H917.87V285.44Z" fill="#455A64"/>
<g opacity="0.3">
<path d="M912.67 285.44V286.36H917V292.91H917.87V285.44H912.67Z" fill="black"/>
</g>
<path d="M925.85 285.44H920.65V292.92H925.85V285.44Z" fill="#455A64"/>
<g opacity="0.3">
<path d="M920.65 285.44V286.36H924.98V292.91H925.86V285.44H920.65Z" fill="black"/>
</g>
<path d="M933.83 285.44H928.63V292.92H933.83V285.44Z" fill="#455A64"/>
<g opacity="0.3">
<path d="M928.63 285.44V286.36H932.96V292.91H933.84V285.44H928.63Z" fill="black"/>
</g>
<path d="M866.47 285.44H861.27V292.92H866.47V285.44Z" fill="#455A64"/>
<g opacity="0.3">
<path d="M861.27 285.44V286.36H865.6V292.91H866.48V285.44H861.27Z" fill="black"/>
</g>
<path d="M874.45 285.44H869.25V292.92H874.45V285.44Z" fill="#455A64"/>
<g opacity="0.3">
<path d="M869.25 285.44V286.36H873.58V292.91H874.46V285.44H869.25Z" fill="black"/>
</g>
<path d="M882.43 285.44H877.23V292.92H882.43V285.44Z" fill="#455A64"/>
<g opacity="0.3">
<path d="M877.23 285.44V286.36H881.56V292.91H882.44V285.44H877.23Z" fill="black"/>
</g>
<path d="M893.93 299.49H888.73V306.97H893.93V299.49Z" fill="#455A64"/>
<g opacity="0.3">
<path d="M888.73 299.49V300.41H893.05V306.96H893.93V299.49H888.73Z" fill="black"/>
</g>
<path d="M901.91 299.49H896.71V306.97H901.91V299.49Z" fill="#455A64"/>
<g opacity="0.3">
<path d="M896.71 299.49V300.41H901.03V306.96H901.91V299.49H896.71Z" fill="black"/>
</g>
<path d="M909.89 299.49H904.69V306.97H909.89V299.49Z" fill="#455A64"/>
<g opacity="0.3">
<path d="M904.69 299.49V300.41H909.01V306.96H909.89V299.49H904.69Z" fill="black"/>
</g>
<path d="M917.87 299.49H912.67V306.97H917.87V299.49Z" fill="#455A64"/>
<g opacity="0.3">
<path d="M912.67 299.49V300.41H917V306.96H917.87V299.49H912.67Z" fill="black"/>
</g>
<path d="M925.85 299.49H920.65V306.97H925.85V299.49Z" fill="#455A64"/>
<g opacity="0.3">
<path d="M920.65 299.49V300.41H924.98V306.96H925.86V299.49H920.65Z" fill="black"/>
</g>
<path d="M933.83 299.49H928.63V306.97H933.83V299.49Z" fill="#455A64"/>
<g opacity="0.3">
<path d="M928.63 299.49V300.41H932.96V306.96H933.84V299.49H928.63Z" fill="black"/>
</g>
<path d="M866.47 299.49H861.27V306.97H866.47V299.49Z" fill="#455A64"/>
<g opacity="0.3">
<path d="M861.27 299.49V300.41H865.6V306.96H866.48V299.49H861.27Z" fill="black"/>
</g>
<path d="M874.45 299.49H869.25V306.97H874.45V299.49Z" fill="#455A64"/>
<g opacity="0.3">
<path d="M869.25 299.49V300.41H873.58V306.96H874.46V299.49H869.25Z" fill="black"/>
</g>
<path d="M882.43 299.49H877.23V306.97H882.43V299.49Z" fill="#455A64"/>
<g opacity="0.3">
<path d="M877.23 299.49V300.41H881.56V306.96H882.44V299.49H877.23Z" fill="black"/>
</g>
<path d="M893.93 310.21H888.73V317.69H893.93V310.21Z" fill="#455A64"/>
<g opacity="0.3">
<path d="M888.73 310.21V311.13H893.05V317.68H893.93V310.21H888.73Z" fill="black"/>
</g>
<path d="M901.91 310.21H896.71V317.69H901.91V310.21Z" fill="#455A64"/>
<g opacity="0.3">
<path d="M896.71 310.21V311.13H901.03V317.68H901.91V310.21H896.71Z" fill="black"/>
</g>
<path d="M909.89 310.21H904.69V317.69H909.89V310.21Z" fill="#455A64"/>
<g opacity="0.3">
<path d="M904.69 310.21V311.13H909.01V317.68H909.89V310.21H904.69Z" fill="black"/>
</g>
<path d="M917.87 310.21H912.67V317.69H917.87V310.21Z" fill="#455A64"/>
<g opacity="0.3">
<path d="M912.67 310.21V311.13H917V317.68H917.87V310.21H912.67Z" fill="black"/>
</g>
<path d="M925.85 310.21H920.65V317.69H925.85V310.21Z" fill="#455A64"/>
<g opacity="0.3">
<path d="M920.65 310.21V311.13H924.98V317.68H925.86V310.21H920.65Z" fill="black"/>
</g>
<path d="M933.83 310.21H928.63V317.69H933.83V310.21Z" fill="#455A64"/>
<g opacity="0.3">
<path d="M928.63 310.21V311.13H932.96V317.68H933.84V310.21H928.63Z" fill="black"/>
</g>
<path d="M866.47 310.21H861.27V317.69H866.47V310.21Z" fill="#455A64"/>
<g opacity="0.3">
<path d="M861.27 310.21V311.13H865.6V317.68H866.48V310.21H861.27Z" fill="black"/>
</g>
<path d="M874.45 310.21H869.25V317.69H874.45V310.21Z" fill="#455A64"/>
<g opacity="0.3">
<path d="M869.25 310.21V311.13H873.58V317.68H874.46V310.21H869.25Z" fill="black"/>
</g>
<path d="M882.43 310.21H877.23V317.69H882.43V310.21Z" fill="#455A64"/>
<g opacity="0.3">
<path d="M877.23 310.21V311.13H881.56V317.68H882.44V310.21H877.23Z" fill="black"/>
</g>
<path d="M893.93 320.93H888.73V328.41H893.93V320.93Z" fill="#455A64"/>
<g opacity="0.3">
<path d="M888.73 320.93V321.85H893.05V328.4H893.93V320.93H888.73Z" fill="black"/>
</g>
<path d="M901.91 320.93H896.71V328.41H901.91V320.93Z" fill="#455A64"/>
<g opacity="0.3">
<path d="M896.71 320.93V321.85H901.03V328.4H901.91V320.93H896.71Z" fill="black"/>
</g>
<path d="M909.89 320.93H904.69V328.41H909.89V320.93Z" fill="#455A64"/>
<g opacity="0.3">
<path d="M904.69 320.93V321.85H909.01V328.4H909.89V320.93H904.69Z" fill="black"/>
</g>
<path d="M917.87 320.93H912.67V328.41H917.87V320.93Z" fill="#455A64"/>
<g opacity="0.3">
<path d="M912.67 320.93V321.85H917V328.4H917.87V320.93H912.67Z" fill="black"/>
</g>
<path d="M925.85 320.93H920.65V328.41H925.85V320.93Z" fill="#455A64"/>
<g opacity="0.3">
<path d="M920.65 320.93V321.85H924.98V328.4H925.86V320.93H920.65Z" fill="black"/>
</g>
<path d="M933.83 320.93H928.63V328.41H933.83V320.93Z" fill="#455A64"/>
<g opacity="0.3">
<path d="M928.63 320.93V321.85H932.96V328.4H933.84V320.93H928.63Z" fill="black"/>
</g>
<path d="M866.47 320.93H861.27V328.41H866.47V320.93Z" fill="#455A64"/>
<g opacity="0.3">
<path d="M861.27 320.93V321.85H865.6V328.4H866.48V320.93H861.27Z" fill="black"/>
</g>
<path d="M874.45 320.93H869.25V328.41H874.45V320.93Z" fill="#455A64"/>
<g opacity="0.3">
<path d="M869.25 320.93V321.85H873.58V328.4H874.46V320.93H869.25Z" fill="black"/>
</g>
<path d="M882.43 320.93H877.23V328.41H882.43V320.93Z" fill="#455A64"/>
<g opacity="0.3">
<path d="M877.23 320.93V321.85H881.56V328.4H882.44V320.93H877.23Z" fill="black"/>
</g>
<path d="M893.93 331.64H888.73V339.12H893.93V331.64Z" fill="#455A64"/>
<g opacity="0.3">
<path d="M888.73 331.64V332.57H893.05V339.12H893.93V331.64H888.73Z" fill="black"/>
</g>
<path d="M901.91 331.64H896.71V339.12H901.91V331.64Z" fill="#455A64"/>
<g opacity="0.3">
<path d="M896.71 331.64V332.57H901.03V339.12H901.91V331.64H896.71Z" fill="black"/>
</g>
<path d="M909.89 331.64H904.69V339.12H909.89V331.64Z" fill="#455A64"/>
<g opacity="0.3">
<path d="M904.69 331.64V332.57H909.01V339.12H909.89V331.64H904.69Z" fill="black"/>
</g>
<path d="M917.87 331.64H912.67V339.12H917.87V331.64Z" fill="#455A64"/>
<g opacity="0.3">
<path d="M912.67 331.64V332.57H917V339.12H917.87V331.64H912.67Z" fill="black"/>
</g>
<path d="M925.85 331.64H920.65V339.12H925.85V331.64Z" fill="#455A64"/>
<g opacity="0.3">
<path d="M920.65 331.64V332.57H924.98V339.12H925.86V331.64H920.65Z" fill="black"/>
</g>
<path d="M933.83 331.64H928.63V339.12H933.83V331.64Z" fill="#455A64"/>
<g opacity="0.3">
<path d="M928.63 331.64V332.57H932.96V339.12H933.84V331.64H928.63Z" fill="black"/>
</g>
<path d="M866.47 331.64H861.27V339.12H866.47V331.64Z" fill="#455A64"/>
<g opacity="0.3">
<path d="M861.27 331.64V332.57H865.6V339.12H866.48V331.64H861.27Z" fill="black"/>
</g>
<path d="M874.45 331.64H869.25V339.12H874.45V331.64Z" fill="#455A64"/>
<g opacity="0.3">
<path d="M869.25 331.64V332.57H873.58V339.12H874.46V331.64H869.25Z" fill="black"/>
</g>
<path d="M882.43 331.64H877.23V339.12H882.43V331.64Z" fill="#455A64"/>
<g opacity="0.3">
<path d="M877.23 331.64V332.57H881.56V339.12H882.44V331.64H877.23Z" fill="black"/>
</g>
<path d="M893.93 342.36H888.73V349.84H893.93V342.36Z" fill="#455A64"/>
<g opacity="0.3">
<path d="M888.73 342.36V343.29H893.05V349.84H893.93V342.36H888.73Z" fill="black"/>
</g>
<path d="M901.91 342.36H896.71V349.84H901.91V342.36Z" fill="#455A64"/>
<g opacity="0.3">
<path d="M896.71 342.36V343.29H901.03V349.84H901.91V342.36H896.71Z" fill="black"/>
</g>
<path d="M909.89 342.36H904.69V349.84H909.89V342.36Z" fill="#455A64"/>
<g opacity="0.3">
<path d="M904.69 342.36V343.29H909.01V349.84H909.89V342.36H904.69Z" fill="black"/>
</g>
<path d="M917.87 342.36H912.67V349.84H917.87V342.36Z" fill="#455A64"/>
<g opacity="0.3">
<path d="M912.67 342.36V343.29H917V349.84H917.87V342.36H912.67Z" fill="black"/>
</g>
<path d="M925.85 342.36H920.65V349.84H925.85V342.36Z" fill="#455A64"/>
<g opacity="0.3">
<path d="M920.65 342.36V343.29H924.98V349.84H925.86V342.36H920.65Z" fill="black"/>
</g>
<path d="M933.83 342.36H928.63V349.84H933.83V342.36Z" fill="#455A64"/>
<g opacity="0.3">
<path d="M928.63 342.36V343.29H932.96V349.84H933.84V342.36H928.63Z" fill="black"/>
</g>
<path d="M866.47 342.36H861.27V349.84H866.47V342.36Z" fill="#455A64"/>
<g opacity="0.3">
<path d="M861.27 342.36V343.29H865.6V349.84H866.48V342.36H861.27Z" fill="black"/>
</g>
<path d="M874.45 342.36H869.25V349.84H874.45V342.36Z" fill="#455A64"/>
<g opacity="0.3">
<path d="M869.25 342.36V343.29H873.58V349.84H874.46V342.36H869.25Z" fill="black"/>
</g>
<path d="M882.43 342.36H877.23V349.84H882.43V342.36Z" fill="#455A64"/>
<g opacity="0.3">
<path d="M877.23 342.36V343.29H881.56V349.84H882.44V342.36H877.23Z" fill="black"/>
</g>
<path d="M893.93 353.08H888.73V360.56H893.93V353.08Z" fill="#455A64"/>
<g opacity="0.3">
<path d="M888.73 353.08V354.01H893.05V360.56H893.93V353.08H888.73Z" fill="black"/>
</g>
<path d="M901.91 353.08H896.71V360.56H901.91V353.08Z" fill="#455A64"/>
<g opacity="0.3">
<path d="M896.71 353.08V354.01H901.03V360.56H901.91V353.08H896.71Z" fill="black"/>
</g>
<path d="M909.89 353.08H904.69V360.56H909.89V353.08Z" fill="#455A64"/>
<g opacity="0.3">
<path d="M904.69 353.08V354.01H909.01V360.56H909.89V353.08H904.69Z" fill="black"/>
</g>
<path d="M917.87 353.08H912.67V360.56H917.87V353.08Z" fill="#455A64"/>
<g opacity="0.3">
<path d="M912.67 353.08V354.01H917V360.56H917.87V353.08H912.67Z" fill="black"/>
</g>
<path d="M925.85 353.08H920.65V360.56H925.85V353.08Z" fill="#455A64"/>
<g opacity="0.3">
<path d="M920.65 353.08V354.01H924.98V360.56H925.86V353.08H920.65Z" fill="black"/>
</g>
<path d="M933.83 353.08H928.63V360.56H933.83V353.08Z" fill="#455A64"/>
<g opacity="0.3">
<path d="M928.63 353.08V354.01H932.96V360.56H933.84V353.08H928.63Z" fill="black"/>
</g>
<path d="M866.47 353.08H861.27V360.56H866.47V353.08Z" fill="#455A64"/>
<g opacity="0.3">
<path d="M861.27 353.08V354.01H865.6V360.56H866.48V353.08H861.27Z" fill="black"/>
</g>
<path d="M874.45 353.08H869.25V360.56H874.45V353.08Z" fill="#455A64"/>
<g opacity="0.3">
<path d="M869.25 353.08V354.01H873.58V360.56H874.46V353.08H869.25Z" fill="black"/>
</g>
<path d="M882.43 353.08H877.23V360.56H882.43V353.08Z" fill="#455A64"/>
<g opacity="0.3">
<path d="M877.23 353.08V354.01H881.56V360.56H882.44V353.08H877.23Z" fill="black"/>
</g>
<g opacity="0.4">
<path d="M893.93 159.93H888.73V167.41H893.93V159.93Z" fill="white"/>
</g>
<g opacity="0.4">
<path d="M901.91 159.93H896.71V167.41H901.91V159.93Z" fill="white"/>
</g>
<g opacity="0.4">
<path d="M909.89 159.93H904.69V167.41H909.89V159.93Z" fill="white"/>
</g>
<g opacity="0.4">
<path d="M917.87 159.93H912.67V167.41H917.87V159.93Z" fill="white"/>
</g>
<g opacity="0.4">
<path d="M925.85 159.93H920.65V167.41H925.85V159.93Z" fill="white"/>
</g>
<g opacity="0.4">
<path d="M933.83 159.93H928.63V167.41H933.83V159.93Z" fill="white"/>
</g>
<g opacity="0.4">
<path d="M893.93 171.03H888.73V178.51H893.93V171.03Z" fill="white"/>
</g>
<g opacity="0.4">
<path d="M901.91 171.03H896.71V178.51H901.91V171.03Z" fill="white"/>
</g>
<g opacity="0.4">
<path d="M909.89 171.03H904.69V178.51H909.89V171.03Z" fill="white"/>
</g>
<g opacity="0.4">
<path d="M917.87 171.03H912.67V178.51H917.87V171.03Z" fill="white"/>
</g>
<g opacity="0.4">
<path d="M925.85 171.03H920.65V178.51H925.85V171.03Z" fill="white"/>
</g>
<g opacity="0.4">
<path d="M933.83 171.03H928.63V178.51H933.83V171.03Z" fill="white"/>
</g>
<g opacity="0.4">
<path d="M893.93 182.13H888.73V189.61H893.93V182.13Z" fill="white"/>
</g>
<g opacity="0.4">
<path d="M901.91 182.13H896.71V189.61H901.91V182.13Z" fill="white"/>
</g>
<g opacity="0.4">
<path d="M925.85 182.13H920.65V189.61H925.85V182.13Z" fill="white"/>
</g>
<g opacity="0.4">
<path d="M893.93 193.23H888.73V200.71H893.93V193.23Z" fill="white"/>
</g>
<g opacity="0.4">
<path d="M925.85 193.23H920.65V200.71H925.85V193.23Z" fill="white"/>
</g>
<g opacity="0.3">
<path d="M885.03 151.81H857.95V365.28H885.03V151.81Z" fill="black"/>
</g>
<path d="M843.46 365.06H888.95V240.9H843.46V365.06Z" fill="#108A37"/>
<path d="M820.24 365.06H843.47V240.9H820.24V365.06Z" fill="#108A37"/>
<path d="M859.54 252.96H850.18V265.62H859.54V252.96Z" fill="#455A64"/>
<g opacity="0.3">
<path d="M850.18 252.96V254.53H857.96V265.62H859.54V252.96H850.18Z" fill="black"/>
</g>
<path d="M860.08 265.62H850.18V268.19H860.08V265.62Z" fill="white"/>
<path d="M860.08 250.31H850.18V252.88H860.08V250.31Z" fill="white"/>
<path d="M881.1 265.62H871.2V268.19H881.1V265.62Z" fill="white"/>
<path d="M881.1 250.31H871.2V252.88H881.1V250.31Z" fill="white"/>
<path d="M880.56 252.96H871.2V265.62H880.56V252.96Z" fill="#455A64"/>
<g opacity="0.3">
<path d="M871.2 252.96V254.53H878.98V265.62H880.56V252.96H871.2Z" fill="black"/>
</g>
<path d="M859.54 276.44H850.18V289.1H859.54V276.44Z" fill="#455A64"/>
<g opacity="0.3">
<path d="M850.18 276.44V278.01H857.96V289.11H859.54V276.44H850.18Z" fill="black"/>
</g>
<path d="M860.08 289.11H850.18V291.68H860.08V289.11Z" fill="white"/>
<path d="M860.08 273.8H850.18V276.37H860.08V273.8Z" fill="white"/>
<path d="M881.1 289.11H871.2V291.68H881.1V289.11Z" fill="white"/>
<path d="M881.1 273.8H871.2V276.37H881.1V273.8Z" fill="white"/>
<path d="M880.56 276.44H871.2V289.1H880.56V276.44Z" fill="#455A64"/>
<g opacity="0.3">
<path d="M871.2 276.44V278.01H878.98V289.11H880.56V276.44H871.2Z" fill="black"/>
</g>
<path d="M859.54 300.76H850.18V313.42H859.54V300.76Z" fill="#455A64"/>
<g opacity="0.3">
<path d="M850.18 300.76V302.33H857.96V313.42H859.54V300.76H850.18Z" fill="black"/>
</g>
<path d="M860.08 313.42H850.18V315.99H860.08V313.42Z" fill="white"/>
<path d="M860.08 298.11H850.18V300.68H860.08V298.11Z" fill="white"/>
<path d="M881.1 313.42H871.2V315.99H881.1V313.42Z" fill="white"/>
<path d="M881.1 298.11H871.2V300.68H881.1V298.11Z" fill="white"/>
<path d="M880.56 300.76H871.2V313.42H880.56V300.76Z" fill="#455A64"/>
<g opacity="0.3">
<path d="M871.2 300.76V302.33H878.98V313.42H880.56V300.76H871.2Z" fill="black"/>
</g>
<path d="M859.54 324.91H850.18V337.57H859.54V324.91Z" fill="#455A64"/>
<g opacity="0.3">
<path d="M850.18 324.91V326.48H857.96V337.57H859.54V324.91H850.18Z" fill="black"/>
</g>
<path d="M860.08 337.57H850.18V340.14H860.08V337.57Z" fill="white"/>
<path d="M860.08 322.26H850.18V324.83H860.08V322.26Z" fill="white"/>
<path d="M881.1 337.57H871.2V340.14H881.1V337.57Z" fill="white"/>
<path d="M881.1 322.26H871.2V324.83H881.1V322.26Z" fill="white"/>
<path d="M880.56 324.91H871.2V337.57H880.56V324.91Z" fill="#455A64"/>
<g opacity="0.3">
<path d="M871.2 324.91V326.48H878.98V337.57H880.56V324.91H871.2Z" fill="black"/>
</g>
<path d="M837.37 252.54H834.09V265.2H837.37V252.54Z" fill="#263238"/>
<path d="M837.84 265.21H831.85V267.12H837.84V265.21Z" fill="white"/>
<path d="M828.6 252.54H825.32V265.2H828.6V252.54Z" fill="#263238"/>
<path d="M829.07 265.21H823.08V267.12H829.07V265.21Z" fill="white"/>
<path d="M837.37 276.67H834.09V289.33H837.37V276.67Z" fill="#263238"/>
<path d="M837.84 289.33H831.85V291.24H837.84V289.33Z" fill="white"/>
<path d="M828.6 276.67H825.32V289.33H828.6V276.67Z" fill="#263238"/>
<path d="M829.07 289.33H823.08V291.24H829.07V289.33Z" fill="white"/>
<path d="M837.37 300.79H834.09V313.45H837.37V300.79Z" fill="#263238"/>
<path d="M837.84 313.45H831.85V315.36H837.84V313.45Z" fill="white"/>
<path d="M828.6 300.79H825.32V313.45H828.6V300.79Z" fill="#263238"/>
<path d="M829.07 313.45H823.08V315.36H829.07V313.45Z" fill="white"/>
<path d="M859.54 345.08H850.18V365.06H859.54V345.08Z" fill="#455A64"/>
<g opacity="0.3">
<path d="M850.18 345.08V346.58H857.96V365.06H859.54V345.08H850.18Z" fill="black"/>
</g>
<path d="M880.84 345.08H871.48V365.06H880.84V345.08Z" fill="#455A64"/>
<g opacity="0.3">
<path d="M871.48 345.08V346.58H879.26V365.06H880.83V345.08H871.48Z" fill="black"/>
</g>
<path d="M837.37 324.91H834.09V337.57H837.37V324.91Z" fill="#263238"/>
<path d="M837.84 337.57H831.85V339.48H837.84V337.57Z" fill="white"/>
<path d="M828.6 324.91H825.32V337.57H828.6V324.91Z" fill="#263238"/>
<path d="M829.07 337.57H823.08V339.48H829.07V337.57Z" fill="white"/>
<path d="M837.37 346.11H834.09V358.77H837.37V346.11Z" fill="#263238"/>
<path d="M837.84 358.77H831.85V360.68H837.84V358.77Z" fill="white"/>
<path d="M828.6 346.11H825.32V358.77H828.6V346.11Z" fill="#263238"/>
<path d="M829.07 358.77H823.08V360.68H829.07V358.77Z" fill="white"/>
<g opacity="0.3">
<path d="M819.57 365.06H843.47V240.9H819.57V365.06Z" fill="black"/>
</g>
<path d="M1184.96 313.24H1086.16V365.5H1184.96V313.24Z" fill="#108A37"/>
<path d="M1187.04 313.24H1084.9V318.12H1187.04V313.24Z" fill="#E0E0E0"/>
<path d="M1103.51 326.03H1099.38V355.86H1103.51V326.03Z" fill="#455A64"/>
<path d="M1095.56 326.03H1091.43V355.86H1095.56V326.03Z" fill="#455A64"/>
<path d="M1184.96 355.77H1086.16V365.51H1184.96V355.77Z" fill="#E0E0E0"/>
<path d="M1128.62 344.21H1118.78V365.5H1128.62V344.21Z" fill="#455A64"/>
<path d="M1124.62 327.51H1118.78V335.02H1124.62V327.51Z" fill="#455A64"/>
<g opacity="0.3">
<path d="M1118.78 327.51V328.44H1123.63V335.02H1124.61V327.51H1118.78Z" fill="black"/>
</g>
<path d="M1141.38 327.51H1135.54V335.02H1141.38V327.51Z" fill="#455A64"/>
<g opacity="0.3">
<path d="M1135.54 327.51V328.44H1140.39V335.02H1141.38V327.51H1135.54Z" fill="black"/>
</g>
<path d="M1159.33 327.51H1153.49V335.02H1159.33V327.51Z" fill="#455A64"/>
<g opacity="0.3">
<path d="M1153.49 327.51V328.44H1158.34V335.02H1159.33V327.51H1153.49Z" fill="black"/>
</g>
<path d="M1177.28 327.51H1171.44V335.02H1177.28V327.51Z" fill="#455A64"/>
<g opacity="0.3">
<path d="M1171.44 327.51V328.44H1176.29V335.02H1177.28V327.51H1171.44Z" fill="black"/>
</g>
<path d="M1141.38 340.94H1135.54V348.45H1141.38V340.94Z" fill="#455A64"/>
<g opacity="0.3">
<path d="M1135.54 340.94V341.87H1140.39V348.45H1141.38V340.94H1135.54Z" fill="black"/>
</g>
<path d="M1159.33 340.94H1153.49V348.45H1159.33V340.94Z" fill="#455A64"/>
<g opacity="0.3">
<path d="M1153.49 340.94V341.87H1158.34V348.45H1159.33V340.94H1153.49Z" fill="black"/>
</g>
<path d="M1177.28 340.94H1171.44V348.45H1177.28V340.94Z" fill="#455A64"/>
<g opacity="0.3">
<path d="M1171.44 340.94V341.87H1176.29V348.45H1177.28V340.94H1171.44Z" fill="black"/>
</g>
<g opacity="0.3">
<path d="M1112.5 318.13H1086.16V365.51H1112.5V318.13Z" fill="black"/>
</g>
<path d="M1085.96 210.72H971.51V365.28H1085.96V210.72Z" fill="#108A37"/>
<path d="M1005.07 221.73H996.66V233.81H1005.07V221.73Z" fill="#455A64"/>
<g opacity="0.3">
<path d="M996.66 221.73V223.23H1003.64V233.81H1005.06V221.73H996.66Z" fill="black"/>
</g>
<path d="M1020.5 221.73H1012.09V233.81H1020.5V221.73Z" fill="#455A64"/>
<g opacity="0.3">
<path d="M1012.09 221.73V223.23H1019.08V233.81H1020.5V221.73H1012.09Z" fill="black"/>
</g>
<path d="M1035.94 221.73H1027.53V233.81H1035.94V221.73Z" fill="#455A64"/>
<g opacity="0.3">
<path d="M1027.53 221.73V223.23H1034.52V233.81H1035.94V221.73H1027.53Z" fill="black"/>
</g>
<path d="M1051.38 221.73H1042.97V233.81H1051.38V221.73Z" fill="#455A64"/>
<g opacity="0.3">
<path d="M1042.97 221.73V223.23H1049.95V233.81H1051.37V221.73H1042.97Z" fill="black"/>
</g>
<path d="M1066.81 221.73H1058.4V233.81H1066.81V221.73Z" fill="#455A64"/>
<g opacity="0.3">
<path d="M1058.4 221.73V223.23H1065.39V233.81H1066.81V221.73H1058.4Z" fill="black"/>
</g>
<path d="M1082.25 221.73H1073.84V233.81H1082.25V221.73Z" fill="#455A64"/>
<g opacity="0.3">
<path d="M1073.84 221.73V223.23H1080.83V233.81H1082.25V221.73H1073.84Z" fill="black"/>
</g>
<path d="M1005.8 251.08H997.39V263.16H1005.8V251.08Z" fill="#455A64"/>
<g opacity="0.3">
<path d="M997.39 251.08V252.57H1004.38V263.15H1005.79V251.08H997.39Z" fill="black"/>
</g>
<path d="M1021.23 251.08H1012.82V263.16H1021.23V251.08Z" fill="#455A64"/>
<g opacity="0.3">
<path d="M1012.82 251.08V252.57H1019.81V263.15H1021.23V251.08H1012.82Z" fill="black"/>
</g>
<path d="M1036.67 251.08H1028.26V263.16H1036.67V251.08Z" fill="#455A64"/>
<g opacity="0.3">
<path d="M1028.26 251.08V252.57H1035.25V263.15H1036.67V251.08H1028.26Z" fill="black"/>
</g>
<path d="M1052.11 251.08H1043.7V263.16H1052.11V251.08Z" fill="#455A64"/>
<g opacity="0.3">
<path d="M1043.7 251.08V252.57H1050.69V263.15H1052.1V251.08H1043.7Z" fill="black"/>
</g>
<path d="M1067.54 251.08H1059.13V263.16H1067.54V251.08Z" fill="#455A64"/>
<g opacity="0.3">
<path d="M1059.13 251.08V252.57H1066.12V263.15H1067.54V251.08H1059.13Z" fill="black"/>
</g>
<path d="M1082.98 251.08H1074.57V263.16H1082.98V251.08Z" fill="#455A64"/>
<g opacity="0.3">
<path d="M1074.57 251.08V252.57H1081.56V263.15H1082.98V251.08H1074.57Z" fill="black"/>
</g>
<path d="M1004.9 280.33H996.49V292.41H1004.9V280.33Z" fill="#455A64"/>
<g opacity="0.3">
<path d="M996.49 280.33V281.83H1003.48V292.41H1004.9V280.33H996.49Z" fill="black"/>
</g>
<path d="M1020.34 280.33H1011.93V292.41H1020.34V280.33Z" fill="#455A64"/>
<g opacity="0.3">
<path d="M1011.93 280.33V281.83H1018.92V292.41H1020.34V280.33H1011.93Z" fill="black"/>
</g>
<path d="M1035.78 280.33H1027.37V292.41H1035.78V280.33Z" fill="#455A64"/>
<g opacity="0.3">
<path d="M1027.37 280.33V281.83H1034.36V292.41H1035.77V280.33H1027.37Z" fill="black"/>
</g>
<path d="M1051.21 280.33H1042.8V292.41H1051.21V280.33Z" fill="#455A64"/>
<g opacity="0.3">
<path d="M1042.8 280.33V281.83H1049.79V292.41H1051.21V280.33H1042.8Z" fill="black"/>
</g>
<path d="M1066.65 280.33H1058.24V292.41H1066.65V280.33Z" fill="#455A64"/>
<g opacity="0.3">
<path d="M1058.24 280.33V281.83H1065.23V292.41H1066.65V280.33H1058.24Z" fill="black"/>
</g>
<path d="M1082.09 280.33H1073.68V292.41H1082.09V280.33Z" fill="#455A64"/>
<g opacity="0.3">
<path d="M1073.68 280.33V281.83H1080.66V292.41H1082.08V280.33H1073.68Z" fill="black"/>
</g>
<path d="M1005.32 309.5H996.91V321.58H1005.32V309.5Z" fill="#455A64"/>
<g opacity="0.3">
<path d="M996.91 309.5V311H1003.9V321.58H1005.31V309.5H996.91Z" fill="black"/>
</g>
<path d="M1020.76 309.5H1012.35V321.58H1020.76V309.5Z" fill="#455A64"/>
<g opacity="0.3">
<path d="M1012.35 309.5V311H1019.33V321.58H1020.75V309.5H1012.35Z" fill="black"/>
</g>
<path d="M1036.19 309.5H1027.78V321.58H1036.19V309.5Z" fill="#455A64"/>
<g opacity="0.3">
<path d="M1027.78 309.5V311H1034.77V321.58H1036.19V309.5H1027.78Z" fill="black"/>
</g>
<path d="M1024.28 343.03H999.41V365.27H1024.28V343.03Z" fill="#455A64"/>
<g opacity="0.3">
<path d="M999.41 343.04V345.79H1021.67V365.28H1024.28V343.04H999.41Z" fill="black"/>
</g>
<path d="M1045.07 343.03H1029.59V365.27H1045.07V343.03Z" fill="#455A64"/>
<g opacity="0.3">
<path d="M1029.59 343.04V345.79H1042.46V365.28H1045.07V343.04H1029.59Z" fill="black"/>
</g>
<path d="M1081.18 343.03H1065.7V365.27H1081.18V343.03Z" fill="#455A64"/>
<g opacity="0.3">
<path d="M1065.7 343.04V345.79H1078.57V365.28H1081.19V343.04H1065.7Z" fill="black"/>
</g>
<path d="M1051.63 309.5H1043.22V321.58H1051.63V309.5Z" fill="#455A64"/>
<g opacity="0.3">
<path d="M1043.22 309.5V311H1050.21V321.58H1051.63V309.5H1043.22Z" fill="black"/>
</g>
<path d="M1067.07 309.5H1058.66V321.58H1067.07V309.5Z" fill="#455A64"/>
<g opacity="0.3">
<path d="M1058.66 309.5V311H1065.64V321.58H1067.06V309.5H1058.66Z" fill="black"/>
</g>
<path d="M1082.5 309.5H1074.09V321.58H1082.5V309.5Z" fill="#455A64"/>
<g opacity="0.3">
<path d="M1074.09 309.5V311H1081.08V321.58H1082.5V309.5H1074.09Z" fill="black"/>
</g>
<path d="M1085.96 208.12H971.51V213.31H1085.96V208.12Z" fill="#FFBF9D"/>
<path d="M1085.96 238.71H971.51V243.9H1085.96V238.71Z" fill="#FFBF9D"/>
<path d="M1085.96 267.97H971.51V273.16H1085.96V267.97Z" fill="#FFBF9D"/>
<path d="M1085.96 297.23H971.51V302.42H1085.96V297.23Z" fill="#FFBF9D"/>
<path d="M1085.96 327.07H971.51V332.26H1085.96V327.07Z" fill="#108A37"/>
<path d="M979.48 220.79H976.42V233.33H979.48V220.79Z" fill="#263238"/>
<path d="M988.46 220.79H985.4V233.33H988.46V220.79Z" fill="#263238"/>
<path d="M979.65 248.72H976.59V261.26H979.65V248.72Z" fill="#263238"/>
<path d="M988.76 248.72H985.7V261.26H988.76V248.72Z" fill="#263238"/>
<path d="M979.59 277.98H976.53V290.52H979.59V277.98Z" fill="#263238"/>
<path d="M988.7 277.98H985.64V290.52H988.7V277.98Z" fill="#263238"/>
<path d="M979.18 307.53H976.12V320.07H979.18V307.53Z" fill="#263238"/>
<path d="M987.58 307.53H984.52V320.07H987.58V307.53Z" fill="#263238"/>
<path d="M979.18 343.1H976.12V365.28H979.18V343.1Z" fill="#263238"/>
<path d="M987.58 343.1H984.52V365.28H987.58V343.1Z" fill="#263238"/>
<path d="M1085.96 328.67H971.51V333.86H1085.96V328.67Z" fill="#FFBF9D"/>
<g opacity="0.3">
<path d="M991.54 208.12H971.51V365.28H991.54V208.12Z" fill="black"/>
</g>
<g opacity="0.3">
<path d="M1085.97 302.42H991.55V304.61H1085.97V302.42Z" fill="black"/>
</g>
<g opacity="0.3">
<path d="M1085.97 333.93H991.55V336.12H1085.97V333.93Z" fill="black"/>
</g>
<g opacity="0.3">
<path d="M1085.97 273.43H991.55V275.62H1085.97V273.43Z" fill="black"/>
</g>
<g opacity="0.3">
<path d="M1085.97 243.9H991.55V246.09H1085.97V243.9Z" fill="black"/>
</g>
<g opacity="0.3">
<path d="M1085.97 213.31H991.55V215.5H1085.97V213.31Z" fill="black"/>
</g>
<g opacity="0.3">
<path d="M1061.81 344.32H1050.18V365.28H1061.81V344.32Z" fill="black"/>
</g>
<path d="M1023.62 195.93H1000.7V208.12H1023.62V195.93Z" fill="#FFBF9D"/>
<g opacity="0.3">
<path d="M1007.97 195.93H1000.7V208.12H1007.97V195.93Z" fill="black"/>
</g>
<path d="M1005.4 321.36C1002.55 321.707 999.67 321.707 996.82 321.36C999.67 321.013 1002.55 321.013 1005.4 321.36Z" fill="white"/>
<path d="M1020.68 321.36C1017.83 321.707 1014.95 321.707 1012.1 321.36C1014.95 321.013 1017.83 321.013 1020.68 321.36Z" fill="white"/>
<path d="M1036 321.36C1033.15 321.707 1030.28 321.707 1027.43 321.36C1030.28 321.013 1033.15 321.013 1036 321.36Z" fill="white"/>
<path d="M1051.71 321.36C1048.86 321.707 1045.98 321.707 1043.13 321.36C1045.98 321.013 1048.86 321.013 1051.71 321.36Z" fill="white"/>
<path d="M1067.22 321.36C1064.37 321.707 1061.49 321.707 1058.64 321.36C1061.49 321.013 1064.37 321.013 1067.22 321.36Z" fill="white"/>
<path d="M1082.73 321.36C1079.88 321.707 1077 321.707 1074.15 321.36C1077 321.013 1079.88 321.013 1082.73 321.36Z" fill="white"/>
<path d="M1005.4 292.22C1002.55 292.567 999.67 292.567 996.82 292.22C999.67 291.873 1002.55 291.873 1005.4 292.22Z" fill="white"/>
<path d="M1020.68 292.22C1017.83 292.567 1014.95 292.567 1012.1 292.22C1014.95 291.873 1017.83 291.873 1020.68 292.22Z" fill="white"/>
<path d="M1036 292.22C1033.15 292.567 1030.28 292.567 1027.43 292.22C1030.28 291.873 1033.15 291.873 1036 292.22Z" fill="white"/>
<path d="M1051.71 292.22C1048.86 292.567 1045.98 292.567 1043.13 292.22C1045.98 291.873 1048.86 291.873 1051.71 292.22Z" fill="white"/>
<path d="M1067.22 292.22C1064.37 292.567 1061.49 292.567 1058.64 292.22C1061.49 291.873 1064.37 291.873 1067.22 292.22Z" fill="white"/>
<path d="M1082.73 292.22C1079.88 292.567 1077 292.567 1074.15 292.22C1077 291.873 1079.88 291.873 1082.73 292.22Z" fill="white"/>
<path d="M1005.4 263.15C1002.55 263.497 999.67 263.497 996.82 263.15C999.67 262.803 1002.55 262.803 1005.4 263.15Z" fill="white"/>
<path d="M1020.68 263.15C1017.83 263.497 1014.95 263.497 1012.1 263.15C1014.95 262.803 1017.83 262.803 1020.68 263.15Z" fill="white"/>
<path d="M1036 263.15C1033.15 263.497 1030.28 263.497 1027.43 263.15C1030.28 262.803 1033.15 262.803 1036 263.15Z" fill="white"/>
<path d="M1051.71 263.15C1048.86 263.497 1045.98 263.497 1043.13 263.15C1045.98 262.803 1048.86 262.803 1051.71 263.15Z" fill="white"/>
<path d="M1067.22 263.15C1064.37 263.497 1061.49 263.497 1058.64 263.15C1061.49 262.803 1064.37 262.803 1067.22 263.15Z" fill="white"/>
<path d="M1082.73 263.15C1079.88 263.497 1077 263.497 1074.15 263.15C1077 262.803 1079.88 262.803 1082.73 263.15Z" fill="white"/>
<path d="M1005.4 233.81C1002.55 234.157 999.67 234.157 996.82 233.81C999.67 233.463 1002.55 233.463 1005.4 233.81Z" fill="white"/>
<path d="M1020.68 233.81C1017.83 234.157 1014.95 234.157 1012.1 233.81C1014.95 233.463 1017.83 233.463 1020.68 233.81Z" fill="white"/>
<path d="M1036 233.81C1033.15 234.157 1030.28 234.157 1027.43 233.81C1030.28 233.463 1033.15 233.463 1036 233.81Z" fill="white"/>
<path d="M1051.71 233.81C1048.86 234.157 1045.98 234.157 1043.13 233.81C1045.98 233.463 1048.86 233.463 1051.71 233.81Z" fill="white"/>
<path d="M1067.22 233.81C1064.37 234.157 1061.49 234.157 1058.64 233.81C1061.49 233.463 1064.37 233.463 1067.22 233.81Z" fill="white"/>
<path d="M1082.73 233.81C1079.88 234.157 1077 234.157 1074.15 233.81C1077 233.463 1079.88 233.463 1082.73 233.81Z" fill="white"/>
<path d="M971.37 260.03H895.35V365.16H971.37V260.03Z" fill="#FF9A6C"/>
<path d="M935.89 328.15H927.16V340.69H935.89V328.15Z" fill="white"/>
<g opacity="0.3">
<path d="M927.16 328.15V329.71H934.42V340.69H935.89V328.15H927.16Z" fill="black"/>
</g>
<path d="M938.44 340.69H927.16V342.17H938.44V340.69Z" fill="white"/>
<path d="M935.89 347.95H927.16V360.49H935.89V347.95Z" fill="white"/>
<g opacity="0.3">
<path d="M927.16 347.95V349.5H934.42V360.49H935.89V347.95H927.16Z" fill="black"/>
</g>
<path d="M938.44 360.49H927.16V361.97H938.44V360.49Z" fill="white"/>
<path d="M935.73 310.61H927V323.15H935.73V310.61Z" fill="white"/>
<g opacity="0.3">
<path d="M927 310.61V312.17H934.25V323.15H935.73V310.61H927Z" fill="black"/>
</g>
<path d="M938.28 323.15H927V324.63H938.28V323.15Z" fill="white"/>
<path d="M935.57 293.07H926.84V305.61H935.57V293.07Z" fill="white"/>
<g opacity="0.3">
<path d="M926.84 293.07V294.63H934.09V305.61H935.56V293.07H926.84Z" fill="black"/>
</g>
<path d="M938.12 305.61H926.84V307.09H938.12V305.61Z" fill="white"/>
<path d="M935.4 275.53H926.67V288.07H935.4V275.53Z" fill="white"/>
<g opacity="0.3">
<path d="M926.67 275.53V277.09H933.93V288.07H935.4V275.53H926.67Z" fill="black"/>
</g>
<path d="M937.95 288.07H926.67V289.55H937.95V288.07Z" fill="white"/>
<path d="M958.44 328.15H949.71V340.69H958.44V328.15Z" fill="white"/>
<g opacity="0.3">
<path d="M949.71 328.15V329.71H956.97V340.69H958.44V328.15H949.71Z" fill="black"/>
</g>
<path d="M960.99 340.69H949.71V342.17H960.99V340.69Z" fill="white"/>
<path d="M958.28 310.61H949.55V323.15H958.28V310.61Z" fill="white"/>
<g opacity="0.3">
<path d="M949.55 310.61V312.17H956.81V323.15H958.28V310.61H949.55Z" fill="black"/>
</g>
<path d="M960.83 323.15H949.55V324.63H960.83V323.15Z" fill="white"/>
<path d="M958.12 293.07H949.39V305.61H958.12V293.07Z" fill="white"/>
<g opacity="0.3">
<path d="M949.39 293.07V294.63H956.64V305.61H958.12V293.07H949.39Z" fill="black"/>
</g>
<path d="M960.67 305.61H949.39V307.09H960.67V305.61Z" fill="white"/>
<path d="M957.95 275.53H949.22V288.07H957.95V275.53Z" fill="white"/>
<g opacity="0.3">
<path d="M949.22 275.53V277.09H956.48V288.07H957.95V275.53H949.22Z" fill="black"/>
</g>
<path d="M960.5 288.07H949.22V289.55H960.5V288.07Z" fill="white"/>
<path d="M904.83 274.58H901.77V287.12H904.83V274.58Z" fill="#263238"/>
<path d="M905.26 287.12H899.68V289.01H905.26V287.12Z" fill="white"/>
<path d="M904.83 293.82H901.77V306.36H904.83V293.82Z" fill="#263238"/>
<path d="M905.26 306.36H899.68V308.25H905.26V306.36Z" fill="white"/>
<path d="M904.83 313.06H901.77V325.6H904.83V313.06Z" fill="#263238"/>
<path d="M905.26 325.6H899.68V327.49H905.26V325.6Z" fill="white"/>
<path d="M904.83 332.3H901.77V344.84H904.83V332.3Z" fill="#263238"/>
<path d="M905.26 344.84H899.68V346.73H905.26V344.84Z" fill="white"/>
<path d="M904.83 349.73H901.77V362.27H904.83V349.73Z" fill="#263238"/>
<path d="M905.26 362.27H899.68V364.16H905.26V362.27Z" fill="white"/>
<path d="M973.38 254.75H893.94V260.03H973.38V254.75Z" fill="#EBEBEB"/>
<path d="M971.31 262.27H895.24V263.83H971.31V262.27Z" fill="#E0E0E0"/>
<path d="M960.89 345.78H948.83V365.15H960.89V345.78Z" fill="#E0E0E0"/>
<path d="M959.84 346.73H949.81V365.28H959.84V346.73Z" fill="#263238"/>
<g opacity="0.3">
<path d="M913.57 260.03H895.35V365.28H913.57V260.03Z" fill="black"/>
</g>
<g opacity="0.3">
<path d="M908.4 254.75H893.94V260.03H908.4V254.75Z" fill="black"/>
</g>
<path d="M817.13 221.32H703.34V365.28H817.13V221.32Z" fill="#FFBF9D"/>
<path d="M818.59 218.88H701.6V223.75H818.59V218.88Z" fill="#FF9A6C"/>
<path d="M817.13 232.07H703.34V236.08H817.13V232.07Z" fill="#FF9A6C"/>
<path d="M817.13 226.91H703.34V228.92H817.13V226.91Z" fill="#FF9A6C"/>
<path d="M807.69 235.46H781.31V339.02H807.69V235.46Z" fill="#FF9A6C"/>
<path d="M754.05 235.46H727.67V339.02H754.05V235.46Z" fill="#FF9A6C"/>
<path d="M818.58 339.02H703.34V343.03H818.58V339.02Z" fill="#FF9A6C"/>
<path d="M776.15 345.04H756.08V365.11H776.15V345.04Z" fill="#FF9A6C"/>
<path d="M793.07 346.48H784.34V359.02H793.07V346.48Z" fill="white"/>
<g opacity="0.3">
<path d="M784.34 346.48V348.04H791.59V359.02H793.06V346.48H784.34Z" fill="black"/>
</g>
<path d="M795.62 359.02H784.34V360.5H795.62V359.02Z" fill="white"/>
<path d="M812.67 346.48H803.94V359.02H812.67V346.48Z" fill="white"/>
<g opacity="0.3">
<path d="M803.94 346.48V348.04H811.2V359.02H812.67V346.48H803.94Z" fill="black"/>
</g>
<path d="M815.22 359.02H803.94V360.5H815.22V359.02Z" fill="white"/>
<path d="M718.38 346.48H709.65V359.02H718.38V346.48Z" fill="white"/>
<g opacity="0.3">
<path d="M709.66 346.48V348.04H716.91V359.02H718.38V346.48H709.66Z" fill="black"/>
</g>
<path d="M720.93 359.02H709.65V360.5H720.93V359.02Z" fill="white"/>
<path d="M745.41 347.5H736.68V360.04H745.41V347.5Z" fill="white"/>
<g opacity="0.3">
<path d="M736.68 347.5V349.05H743.93V360.04H745.41V347.5H736.68Z" fill="black"/>
</g>
<path d="M747.96 360.04H736.68V361.52H747.96V360.04Z" fill="white"/>
<path d="M772.04 319.48H763.31V332.02H772.04V319.48Z" fill="white"/>
<g opacity="0.3">
<path d="M763.31 319.48V321.03H770.57V332.02H772.04V319.48H763.31Z" fill="black"/>
</g>
<path d="M772.04 294.62H763.31V307.16H772.04V294.62Z" fill="white"/>
<g opacity="0.3">
<path d="M763.31 294.62V296.17H770.57V307.16H772.04V294.62H763.31Z" fill="black"/>
</g>
<path d="M772.04 269.76H763.31V282.3H772.04V269.76Z" fill="white"/>
<g opacity="0.3">
<path d="M763.31 269.76V271.31H770.57V282.3H772.04V269.76H763.31Z" fill="black"/>
</g>
<path d="M772.04 244.9H763.31V257.44H772.04V244.9Z" fill="white"/>
<g opacity="0.3">
<path d="M772.04 244.9H763.31V257.44H772.04V244.9Z" fill="white"/>
</g>
<g opacity="0.3">
<path d="M763.31 244.9V246.45H770.57V257.44H772.04V244.9H763.31Z" fill="black"/>
</g>
<path d="M745.22 319.71H736.49V332.25H745.22V319.71Z" fill="white"/>
<g opacity="0.3">
<path d="M736.49 319.71V321.26H743.75V332.25H745.22V319.71H736.49Z" fill="black"/>
</g>
<path d="M745.22 294.85H736.49V307.39H745.22V294.85Z" fill="white"/>
<g opacity="0.3">
<path d="M736.49 294.85V296.41H743.75V307.39H745.22V294.85H736.49Z" fill="black"/>
</g>
<path d="M745.22 269.99H736.49V282.53H745.22V269.99Z" fill="white"/>
<g opacity="0.3">
<path d="M745.22 269.99H736.49V282.53H745.22V269.99Z" fill="white"/>
</g>
<g opacity="0.3">
<path d="M736.49 269.99V271.55H743.75V282.53H745.22V269.99H736.49Z" fill="black"/>
</g>
<path d="M745.22 245.13H736.49V257.67H745.22V245.13Z" fill="white"/>
<g opacity="0.3">
<path d="M745.22 245.13H736.49V257.67H745.22V245.13Z" fill="white"/>
</g>
<g opacity="0.3">
<path d="M736.49 245.13V246.69H743.75V257.68H745.22V245.13H736.49Z" fill="black"/>
</g>
<path d="M799.98 319.7H791.25V332.24H799.98V319.7Z" fill="white"/>
<g opacity="0.3">
<path d="M791.25 319.7V321.25H798.5V332.24H799.98V319.7H791.25Z" fill="black"/>
</g>
<path d="M799.98 294.84H791.25V307.38H799.98V294.84Z" fill="white"/>
<g opacity="0.3">
<path d="M791.25 294.84V296.4H798.5V307.38H799.98V294.84H791.25Z" fill="black"/>
</g>
<path d="M799.98 269.98H791.25V282.52H799.98V269.98Z" fill="white"/>
<g opacity="0.3">
<path d="M799.98 269.98H791.25V282.52H799.98V269.98Z" fill="white"/>
</g>
<g opacity="0.3">
<path d="M791.25 269.98V271.54H798.5V282.52H799.98V269.98H791.25Z" fill="black"/>
</g>
<path d="M799.98 245.12H791.25V257.66H799.98V245.12Z" fill="white"/>
<g opacity="0.3">
<path d="M799.98 245.12H791.25V257.66H799.98V245.12Z" fill="white"/>
</g>
<g opacity="0.3">
<path d="M791.25 245.12V246.68H798.5V257.67H799.98V245.12H791.25Z" fill="black"/>
</g>
<path d="M713.55 245.86H710.49V258.4H713.55V245.86Z" fill="#263238"/>
<path d="M713.98 258.41H708.4V260.3H713.98V258.41Z" fill="white"/>
<path d="M713.55 269.76H710.49V282.3H713.55V269.76Z" fill="#263238"/>
<path d="M713.98 282.3H708.4V284.19H713.98V282.3Z" fill="white"/>
<path d="M713.55 293.65H710.49V306.19H713.55V293.65Z" fill="#263238"/>
<path d="M713.98 306.19H708.4V308.08H713.98V306.19Z" fill="white"/>
<path d="M713.55 317.54H710.49V330.08H713.55V317.54Z" fill="#263238"/>
<path d="M713.98 330.08H708.4V331.97H713.98V330.08Z" fill="white"/>
<g opacity="0.3">
<path d="M724.08 223.75H703.34V365.27H724.08V223.75Z" fill="black"/>
</g>
<path d="M774.22 347H758.31V365.11H774.22V347Z" fill="#263238"/>
<g opacity="0.3">
<path d="M720.7 218.88H701.6V223.75H720.7V218.88Z" fill="black"/>
</g>
<path d="M745 258C743.585 258.256 742.145 258.344 740.71 258.26C739.275 258.344 737.835 258.256 736.42 258C737.834 257.738 739.275 257.65 740.71 257.74C742.145 257.65 743.586 257.738 745 258Z" fill="white"/>
<path d="M772.21 257.67C770.797 257.939 769.356 258.03 767.92 257.94C766.484 258.03 765.043 257.939 763.63 257.67C765.045 257.414 766.485 257.326 767.92 257.41C769.355 257.326 770.795 257.414 772.21 257.67Z" fill="white"/>
<path d="M800.14 257.9C797.294 258.247 794.416 258.247 791.57 257.9C794.416 257.553 797.294 257.553 800.14 257.9Z" fill="white"/>
<path d="M800.14 282.76C797.294 283.107 794.416 283.107 791.57 282.76C794.416 282.413 797.294 282.413 800.14 282.76Z" fill="white"/>
<path d="M771.67 282.3C770.255 282.556 768.815 282.644 767.38 282.56C765.945 282.644 764.505 282.556 763.09 282.3C764.504 282.038 765.945 281.95 767.38 282.04C768.815 281.95 770.256 282.038 771.67 282.3Z" fill="white"/>
<path d="M771.67 307.14C770.255 307.396 768.815 307.484 767.38 307.4C765.945 307.484 764.505 307.396 763.09 307.14C764.504 306.878 765.945 306.79 767.38 306.88C768.815 306.79 770.256 306.878 771.67 307.14Z" fill="white"/>
<path d="M800.26 307.38C797.414 307.727 794.536 307.727 791.69 307.38C794.536 307.033 797.414 307.033 800.26 307.38Z" fill="white"/>
<path d="M744.41 307.12C742.996 307.382 741.555 307.47 740.12 307.38C738.688 307.469 737.251 307.382 735.84 307.12C737.251 306.864 738.688 306.777 740.12 306.86C741.555 306.776 742.995 306.864 744.41 307.12Z" fill="white"/>
<path d="M745.23 332.25C743.815 332.506 742.375 332.594 740.94 332.51C739.505 332.594 738.065 332.506 736.65 332.25C738.065 331.994 739.505 331.906 740.94 331.99C742.375 331.906 743.815 331.994 745.23 332.25Z" fill="white"/>
<path d="M771.72 332C770.309 332.262 768.872 332.349 767.44 332.26C766.005 332.35 764.564 332.262 763.15 332C764.565 331.744 766.005 331.656 767.44 331.74C768.872 331.657 770.309 331.744 771.72 332Z" fill="white"/>
<path d="M799.8 332.25C796.95 332.597 794.069 332.597 791.22 332.25C794.069 331.903 796.95 331.903 799.8 332.25Z" fill="white"/>
<path d="M745 282.53C743.586 282.792 742.145 282.88 740.71 282.79C739.275 282.88 737.834 282.792 736.42 282.53C737.835 282.274 739.275 282.186 740.71 282.27C742.145 282.186 743.585 282.274 745 282.53Z" fill="white"/>
<path d="M681.774 347.312C681.311 344.919 680.622 342.575 679.714 340.312C679.084 339.099 678.147 338.072 676.996 337.335C675.844 336.598 674.519 336.176 673.154 336.112H672.804H672.444C671.078 336.174 669.752 336.595 668.6 337.332C667.449 338.069 666.512 339.097 665.884 340.312C664.971 342.573 664.281 344.917 663.824 347.312C662.907 350.227 662.412 353.257 662.354 356.312C662.33 357.748 662.612 359.173 663.181 360.492C663.75 361.811 664.593 362.994 665.654 363.962C667.474 365.532 670.114 365.902 672.804 365.852C675.704 365.792 678.124 365.532 679.954 363.962C681.011 362.991 681.851 361.807 682.42 360.489C682.988 359.171 683.272 357.748 683.254 356.312C683.183 353.258 682.685 350.228 681.774 347.312Z" fill="white"/>
<path d="M902.704 347.312C902.246 344.917 901.556 342.573 900.644 340.312C900.016 339.097 899.079 338.069 897.927 337.332C896.776 336.595 895.45 336.174 894.084 336.112H893.724H893.364C891.998 336.176 890.673 336.598 889.522 337.335C888.371 338.072 887.433 339.099 886.804 340.312C885.896 342.575 885.206 344.919 884.744 347.312C883.836 350.229 883.341 353.258 883.274 356.312C883.255 357.748 883.539 359.171 884.108 360.489C884.677 361.807 885.517 362.991 886.574 363.962C888.404 365.532 891.044 365.902 893.724 365.852C896.624 365.792 899.044 365.532 900.874 363.962C901.933 362.992 902.774 361.809 903.343 360.491C903.912 359.172 904.195 357.748 904.174 356.312C904.116 353.257 903.621 350.227 902.704 347.312Z" fill="white"/>
<path d="M700.344 331.702C697.804 331.962 693.984 350.892 692.424 359.212C692.216 360.362 692.442 361.548 693.057 362.541C693.672 363.534 694.632 364.265 695.754 364.592C699.18 365.725 702.866 365.815 706.344 364.852C707.49 364.518 708.465 363.758 709.069 362.728C709.673 361.698 709.861 360.476 709.594 359.312C707.714 351.152 702.874 331.442 700.344 331.702Z" fill="white"/>
<path d="M712.154 347.202C710.784 347.342 708.714 357.592 707.874 362.092C707.762 362.714 707.884 363.355 708.216 363.892C708.548 364.429 709.068 364.825 709.674 365.002C711.528 365.612 713.522 365.66 715.404 365.142C716.025 364.962 716.554 364.551 716.881 363.993C717.208 363.435 717.31 362.772 717.164 362.142C716.144 357.762 713.524 347.062 712.154 347.202Z" fill="white"/>
<path d="M970.254 331.002C967.724 331.252 963.904 350.192 962.344 358.512C962.134 359.662 962.359 360.849 962.974 361.843C963.589 362.837 964.551 363.567 965.674 363.892C969.097 365.025 972.779 365.115 976.254 364.152C977.4 363.818 978.376 363.058 978.982 362.029C979.588 360.999 979.778 359.777 979.514 358.612C977.624 350.452 972.784 330.762 970.254 331.002Z" fill="white"/>
<path d="M981.434 346.382C980.064 346.522 977.994 356.772 977.154 361.272C977.042 361.894 977.164 362.535 977.496 363.072C977.828 363.609 978.348 364.005 978.954 364.182C980.807 364.797 982.802 364.846 984.684 364.322C985.305 364.142 985.834 363.731 986.161 363.173C986.488 362.615 986.59 361.952 986.444 361.322C985.434 356.912 982.774 346.242 981.434 346.382Z" fill="white"/>
<path d="M1089.58 334.552C1087.05 334.792 1083.23 352.462 1081.67 360.212C1081.49 361.312 1081.73 362.441 1082.35 363.369C1082.97 364.297 1083.92 364.956 1085 365.212C1088.44 366.271 1092.1 366.358 1095.58 365.462C1096.7 365.2 1097.66 364.511 1098.27 363.544C1098.88 362.577 1099.09 361.409 1098.84 360.292C1096.95 352.702 1092.12 334.312 1089.58 334.552Z" fill="white"/>
<path d="M1173.69 346.572C1172.32 346.702 1170.26 356.952 1169.41 361.452C1169.3 362.075 1169.42 362.719 1169.76 363.257C1170.09 363.794 1170.61 364.189 1171.22 364.362C1173.07 364.979 1175.06 365.031 1176.94 364.512C1177.56 364.33 1178.09 363.918 1178.42 363.361C1178.74 362.803 1178.85 362.142 1178.7 361.512C1177.68 357.092 1175.07 346.432 1173.69 346.572Z" fill="white"/>
<path d="M1184.66 331.022C1182.13 331.272 1178.3 350.212 1176.74 358.532C1176.54 359.683 1176.76 360.87 1177.38 361.864C1178 362.857 1178.96 363.587 1180.08 363.912C1183.51 365.045 1187.19 365.135 1190.66 364.172C1191.81 363.838 1192.79 363.078 1193.39 362.049C1194 361.019 1194.19 359.797 1193.92 358.632C1192.03 350.472 1187.19 330.762 1184.66 331.022Z" fill="white"/>
<path d="M1196.19 346.512C1194.82 346.652 1192.75 356.902 1191.91 361.402C1191.8 362.024 1191.92 362.666 1192.25 363.204C1192.59 363.742 1193.11 364.137 1193.71 364.312C1195.57 364.922 1197.56 364.97 1199.44 364.452C1200.06 364.27 1200.59 363.858 1200.92 363.301C1201.24 362.743 1201.35 362.082 1201.2 361.452C1200.18 357.042 1197.56 346.372 1196.19 346.512Z" fill="white"/>
<path d="M691.304 349.672C690.144 349.792 688.394 358.452 687.684 362.262C687.586 362.788 687.687 363.331 687.968 363.786C688.249 364.241 688.69 364.575 689.204 364.722C690.77 365.24 692.454 365.282 694.044 364.842C694.569 364.688 695.015 364.339 695.292 363.867C695.569 363.395 695.655 362.836 695.534 362.302C694.674 358.572 692.434 349.552 691.304 349.672Z" fill="white"/>
<path d="M621.704 331.702C619.174 331.962 615.344 350.892 613.784 359.212C613.577 360.363 613.804 361.55 614.421 362.544C615.037 363.537 616 364.267 617.124 364.592C620.547 365.725 624.229 365.815 627.704 364.852C628.85 364.518 629.826 363.758 630.432 362.729C631.038 361.699 631.228 360.477 630.964 359.312C629.074 351.152 624.234 331.442 621.704 331.702Z" fill="white"/>
<path d="M633.514 347.202C632.144 347.342 630.084 357.592 629.234 362.092C629.122 362.714 629.244 363.355 629.576 363.892C629.908 364.429 630.428 364.825 631.034 365.002C632.888 365.612 634.882 365.66 636.764 365.142C637.385 364.962 637.914 364.551 638.241 363.993C638.568 363.435 638.67 362.772 638.524 362.142C637.504 357.762 634.894 347.062 633.514 347.202Z" fill="white"/>
<path d="M612.664 349.672C611.504 349.792 609.754 358.452 609.044 362.262C608.935 362.794 609.031 363.347 609.313 363.811C609.595 364.274 610.042 364.614 610.564 364.762C612.133 365.28 613.821 365.322 615.414 364.882C615.937 364.726 616.382 364.377 616.659 363.905C616.935 363.434 617.023 362.875 616.904 362.342C616.034 358.572 613.824 349.552 612.664 349.672Z" fill="white"/>
<path d="M751.314 347.362C749.964 347.502 747.934 357.572 747.104 361.992C746.997 362.603 747.118 363.232 747.445 363.759C747.771 364.286 748.28 364.675 748.874 364.852C750.696 365.454 752.656 365.5 754.504 364.982C755.113 364.806 755.633 364.404 755.954 363.857C756.276 363.31 756.376 362.661 756.234 362.042C755.234 357.702 752.664 347.222 751.314 347.362Z" fill="white"/>
<path d="M779.924 347.182C778.544 347.322 776.474 357.592 775.624 362.102C775.512 362.726 775.635 363.37 775.969 363.909C776.303 364.448 776.825 364.845 777.434 365.022C779.291 365.637 781.289 365.685 783.174 365.162C783.794 364.98 784.322 364.568 784.651 364.011C784.979 363.454 785.084 362.793 784.944 362.162C783.914 357.762 781.294 347.042 779.924 347.182Z" fill="white"/>
<path d="M72.7737 345.312C72.3114 342.919 71.6216 340.575 70.7137 338.312C70.0843 337.099 69.1469 336.072 67.9955 335.335C66.8442 334.598 65.5194 334.176 64.1537 334.112H63.8037H63.4437C62.0776 334.174 60.752 334.595 59.6003 335.332C58.4486 336.069 57.5116 337.097 56.8837 338.312C55.9714 340.573 55.2815 342.917 54.8237 345.312C53.9066 348.227 53.4116 351.257 53.3537 354.312C53.33 355.748 53.6119 357.173 54.1809 358.492C54.7498 359.811 55.5928 360.994 56.6537 361.962C58.4737 363.532 61.1137 363.902 63.8037 363.852C66.7037 363.792 69.1237 363.532 70.9537 361.962C72.0107 360.991 72.8509 359.807 73.4195 358.489C73.9882 357.171 74.2724 355.748 74.2537 354.312C74.1834 351.258 73.6852 348.228 72.7737 345.312Z" fill="white"/>
<path d="M293.704 345.312C293.246 342.917 292.556 340.573 291.644 338.312C291.016 337.097 290.079 336.069 288.927 335.332C287.776 334.595 286.45 334.174 285.084 334.112H284.724H284.364C282.998 334.176 281.673 334.598 280.522 335.335C279.371 336.072 278.433 337.099 277.804 338.312C276.896 340.575 276.206 342.919 275.744 345.312C274.836 348.229 274.341 351.258 274.274 354.312C274.255 355.748 274.539 357.171 275.108 358.489C275.677 359.807 276.517 360.991 277.574 361.962C279.404 363.532 282.044 363.902 284.724 363.852C287.624 363.792 290.044 363.532 291.874 361.962C292.933 360.992 293.774 359.809 294.343 358.491C294.912 357.172 295.195 355.748 295.174 354.312C295.116 351.257 294.621 348.227 293.704 345.312Z" fill="white"/>
<path d="M91.3437 329.702C88.8037 329.962 84.9837 348.892 83.4237 357.212C83.2164 358.362 83.4419 359.548 84.0567 360.541C84.6716 361.534 85.6323 362.265 86.7537 362.592C90.1803 363.725 93.8657 363.815 97.3437 362.852C98.4899 362.518 99.4649 361.758 100.069 360.728C100.673 359.698 100.861 358.476 100.594 357.312C98.7137 349.152 93.8737 329.442 91.3437 329.702Z" fill="white"/>
<path d="M103.154 345.202C101.784 345.342 99.7138 355.592 98.8738 360.092C98.7619 360.714 98.8839 361.355 99.2162 361.892C99.5484 362.429 100.068 362.825 100.674 363.002C102.528 363.612 104.522 363.66 106.404 363.142C107.025 362.962 107.554 362.551 107.881 361.993C108.208 361.435 108.31 360.772 108.164 360.142C107.144 355.762 104.524 345.062 103.154 345.202Z" fill="white"/>
<path d="M361.254 329.002C358.724 329.252 354.904 348.192 353.344 356.512C353.134 357.662 353.359 358.849 353.974 359.843C354.589 360.837 355.551 361.567 356.674 361.892C360.097 363.025 363.779 363.115 367.254 362.152C368.4 361.818 369.376 361.058 369.982 360.029C370.588 358.999 370.778 357.777 370.514 356.612C368.624 348.452 363.784 328.762 361.254 329.002Z" fill="white"/>
<path d="M372.434 344.382C371.064 344.522 368.994 354.772 368.154 359.272C368.042 359.894 368.164 360.535 368.496 361.072C368.828 361.609 369.348 362.005 369.954 362.182C371.807 362.797 373.802 362.846 375.684 362.322C376.305 362.142 376.834 361.731 377.161 361.173C377.488 360.615 377.59 359.952 377.444 359.322C376.434 354.912 373.774 344.242 372.434 344.382Z" fill="white"/>
<path d="M480.584 332.552C478.054 332.792 474.234 350.462 472.674 358.212C472.492 359.312 472.735 360.441 473.353 361.369C473.971 362.297 474.918 362.956 476.004 363.212C479.44 364.271 483.102 364.358 486.584 363.462C487.696 363.2 488.662 362.511 489.271 361.544C489.881 360.577 490.087 359.409 489.844 358.292C487.954 350.702 483.124 332.312 480.584 332.552Z" fill="white"/>
<path d="M564.694 344.572C563.324 344.702 561.264 354.952 560.414 359.452C560.3 360.075 560.422 360.719 560.757 361.257C561.092 361.794 561.614 362.189 562.224 362.362C564.073 362.979 566.064 363.031 567.944 362.512C568.564 362.33 569.091 361.918 569.418 361.361C569.745 360.803 569.847 360.142 569.704 359.512C568.684 355.092 566.074 344.432 564.694 344.572Z" fill="white"/>
<path d="M575.664 329.022C573.134 329.272 569.304 348.212 567.744 356.532C567.537 357.683 567.764 358.87 568.381 359.864C568.997 360.857 569.96 361.587 571.084 361.912C574.507 363.045 578.189 363.135 581.664 362.172C582.81 361.838 583.786 361.078 584.392 360.049C584.998 359.019 585.188 357.797 584.924 356.632C583.034 348.472 578.194 328.762 575.664 329.022Z" fill="white"/>
<path d="M587.194 344.512C585.824 344.652 583.754 354.902 582.914 359.402C582.8 360.024 582.921 360.666 583.253 361.204C583.586 361.742 584.106 362.137 584.714 362.312C586.568 362.922 588.562 362.97 590.444 362.452C591.064 362.27 591.591 361.858 591.918 361.301C592.245 360.743 592.347 360.082 592.204 359.452C591.184 355.042 588.564 344.372 587.194 344.512Z" fill="white"/>
<path d="M82.3037 347.672C81.1437 347.792 79.3937 356.452 78.6837 360.262C78.5859 360.788 78.6873 361.331 78.9684 361.786C79.2494 362.241 79.6899 362.575 80.2037 362.722C81.7696 363.24 83.4541 363.282 85.0437 362.842C85.5687 362.688 86.015 362.339 86.2918 361.867C86.5687 361.395 86.6552 360.836 86.5337 360.302C85.6737 356.572 83.4337 347.552 82.3037 347.672Z" fill="white"/>
<path d="M12.7038 329.702C10.1738 329.962 6.34375 348.892 4.78375 357.212C4.57691 358.363 4.8038 359.55 5.42062 360.544C6.03743 361.537 7.00044 362.267 8.12375 362.592C11.5468 363.725 15.2292 363.815 18.7037 362.852C19.8505 362.518 20.8263 361.758 21.4321 360.729C22.0379 359.699 22.2281 358.477 21.9638 357.312C20.0738 349.152 15.2338 329.442 12.7038 329.702Z" fill="white"/>
<path d="M24.5137 345.202C23.1437 345.342 21.0837 355.592 20.2337 360.092C20.1219 360.714 20.2439 361.355 20.5761 361.892C20.9084 362.429 21.4276 362.825 22.0337 363.002C23.8884 363.612 25.8816 363.66 27.7637 363.142C28.385 362.962 28.9137 362.551 29.241 361.993C29.5684 361.435 29.6695 360.772 29.5237 360.142C28.5037 355.762 25.8937 345.062 24.5137 345.202Z" fill="white"/>
<path d="M3.66375 347.672C2.50375 347.792 0.753746 356.452 0.0437464 360.262C-0.0651567 360.794 0.0309948 361.347 0.312911 361.811C0.594828 362.274 1.04166 362.614 1.56375 362.762C3.13311 363.28 4.82068 363.322 6.41375 362.882C6.93733 362.726 7.38219 362.377 7.65868 361.905C7.93516 361.434 8.02274 360.875 7.90375 360.342C7.03375 356.572 4.82375 347.552 3.66375 347.672Z" fill="white"/>
<path d="M142.314 345.362C140.964 345.502 138.934 355.572 138.104 359.992C137.997 360.603 138.118 361.232 138.445 361.759C138.771 362.286 139.28 362.675 139.874 362.852C141.696 363.454 143.656 363.5 145.504 362.982C146.113 362.806 146.633 362.404 146.954 361.857C147.276 361.31 147.376 360.661 147.234 360.042C146.234 355.702 143.664 345.222 142.314 345.362Z" fill="white"/>
<path d="M170.924 345.182C169.544 345.322 167.474 355.592 166.624 360.102C166.512 360.726 166.635 361.37 166.969 361.909C167.303 362.448 167.825 362.845 168.434 363.022C170.291 363.637 172.289 363.685 174.174 363.162C174.794 362.98 175.322 362.568 175.651 362.011C175.979 361.454 176.084 360.793 175.944 360.162C174.914 355.762 172.294 345.042 170.924 345.182Z" fill="white"/>
</g>
<defs>
<clipPath id="clip0_101_2">
<rect width="1202" height="367" fill="white"/>
</clipPath>
</defs>
</svg>
