<svg width="750" height="500" viewBox="0 0 750 500" fill="none" xmlns="http://www.w3.org/2000/svg">
<path d="M714.25 483.75C714.25 483.89 561.01 484.01 372.02 484.01C183.03 484.01 29.75 483.89 29.75 483.75C29.75 483.61 183 483.49 372 483.49C561 483.49 714.25 483.6 714.25 483.75Z" fill="#263238"/>
<path d="M340.55 118.27H316.69V483.92H340.55V118.27Z" fill="#108A37"/>
<g opacity="0.3">
<path d="M340.55 118.27H316.69V483.92H340.55V118.27Z" fill="black"/>
</g>
<path d="M420 118.27H340.56V483.92H420V118.27Z" fill="#108A37"/>
<path d="M387.36 126.04H346.12V137.23H387.36V126.04Z" fill="#455A64"/>
<g opacity="0.3">
<path d="M387.36 126.04H346.12V137.23H387.36V126.04Z" fill="white"/>
</g>
<path d="M414.69 126.04H394.07V137.23H414.69V126.04Z" fill="#455A64"/>
<g opacity="0.3">
<path d="M414.69 126.04H394.07V137.23H414.69V126.04Z" fill="white"/>
</g>
<g opacity="0.3">
<path d="M346.12 127.8L385.38 127.83L385.47 137.23H387.35V126.04H346.12V127.8Z" fill="black"/>
</g>
<g opacity="0.3">
<path d="M394.07 126.04V127.66H412.41V137.23H414.69V126.04H394.07Z" fill="black"/>
</g>
<path d="M387.36 145.29H346.12V156.48H387.36V145.29Z" fill="#455A64"/>
<g opacity="0.3">
<path d="M387.36 145.29H346.12V156.48H387.36V145.29Z" fill="white"/>
</g>
<path d="M414.69 145.29H394.07V156.48H414.69V145.29Z" fill="#455A64"/>
<g opacity="0.3">
<path d="M414.69 145.29H394.07V156.48H414.69V145.29Z" fill="white"/>
</g>
<g opacity="0.3">
<path d="M346.12 147.05L385.38 147.08L385.47 156.48H387.35V145.29H346.12V147.05Z" fill="black"/>
</g>
<g opacity="0.3">
<path d="M394.07 145.29V146.92H412.41V156.48H414.69V145.29H394.07Z" fill="black"/>
</g>
<path d="M387.36 164.54H346.12V175.73H387.36V164.54Z" fill="#455A64"/>
<g opacity="0.3">
<path d="M387.36 164.54H346.12V175.73H387.36V164.54Z" fill="white"/>
</g>
<path d="M414.69 164.54H394.07V175.73H414.69V164.54Z" fill="#455A64"/>
<g opacity="0.3">
<path d="M414.69 175.73H409.5L409.46 173.23L402.76 173.24V175.73H394.07V164.54H414.69V175.73Z" fill="white"/>
</g>
<g opacity="0.3">
<path d="M346.12 166.3L385.38 166.33L385.47 175.73H387.35V164.54H346.12V166.3Z" fill="black"/>
</g>
<g opacity="0.3">
<path d="M394.07 164.54V166.17H412.41V175.73H414.69V164.54H394.07Z" fill="black"/>
</g>
<path d="M387.36 183.8H346.12V194.99H387.36V183.8Z" fill="#455A64"/>
<path d="M414.69 183.8H394.07V194.99H414.69V183.8Z" fill="#455A64"/>
<g opacity="0.3">
<path d="M398.19 194.98V189.39H402.35V183.79H394.07V194.98H398.19Z" fill="white"/>
</g>
<g opacity="0.3">
<path d="M414.68 183.8H411.09V194.99H414.68V183.8Z" fill="white"/>
</g>
<g opacity="0.3">
<path d="M387.36 183.8H346.12V194.99H387.36V183.8Z" fill="white"/>
</g>
<g opacity="0.3">
<path d="M346.12 185.56L385.38 185.59L385.47 194.98H387.35V183.79H346.12V185.56Z" fill="black"/>
</g>
<g opacity="0.3">
<path d="M394.07 183.79V185.42H412.41V194.98H414.69V183.79H394.07Z" fill="black"/>
</g>
<path d="M387.36 203.05H346.12V214.24H387.36V203.05Z" fill="#455A64"/>
<g opacity="0.3">
<path d="M346.12 211.18H355.78V207.01H373.84V214.24H387.35V203.05H346.12V211.18Z" fill="white"/>
</g>
<path d="M414.69 203.05H394.07V214.24H414.69V203.05Z" fill="#455A64"/>
<g opacity="0.3">
<path d="M414.68 203.05H411.09V214.24H414.68V203.05Z" fill="white"/>
</g>
<g opacity="0.3">
<path d="M346.12 204.81L385.38 204.84L385.47 214.24H387.35V203.05H346.12V204.81Z" fill="black"/>
</g>
<g opacity="0.3">
<path d="M398.19 203.05H394.07V214.24H398.19V203.05Z" fill="white"/>
</g>
<g opacity="0.3">
<path d="M394.07 203.05V204.67H412.41V214.24H414.69V203.05H394.07Z" fill="black"/>
</g>
<path d="M387.36 222.3H346.12V233.49H387.36V222.3Z" fill="#455A64"/>
<path d="M414.69 222.3H394.07V233.49H414.69V222.3Z" fill="#455A64"/>
<g opacity="0.3">
<path d="M346.12 224.06L385.38 224.09L385.47 233.49H387.35V222.3H346.12V224.06Z" fill="black"/>
</g>
<g opacity="0.3">
<path d="M394.07 222.3V223.93H412.41V233.49H414.69V222.3H394.07Z" fill="black"/>
</g>
<path d="M387.36 241.55H346.12V252.74H387.36V241.55Z" fill="#455A64"/>
<path d="M414.69 241.55H394.07V252.74H414.69V241.55Z" fill="#455A64"/>
<g opacity="0.3">
<path d="M346.12 243.31L385.38 243.34L385.47 252.74H387.35V241.55H346.12V243.31Z" fill="black"/>
</g>
<g opacity="0.3">
<path d="M394.07 241.55V243.18H412.41V252.74H414.69V241.55H394.07Z" fill="black"/>
</g>
<path d="M387.36 260.81H346.12V272H387.36V260.81Z" fill="#455A64"/>
<path d="M414.69 260.81H394.07V272H414.69V260.81Z" fill="#455A64"/>
<g opacity="0.3">
<path d="M346.12 262.57L385.38 262.6L385.47 271.99H387.35V260.81H346.12V262.57Z" fill="black"/>
</g>
<g opacity="0.3">
<path d="M394.07 260.81V262.43H412.41V271.99H414.69V260.81H394.07Z" fill="black"/>
</g>
<path d="M387.36 280.06H346.12V291.25H387.36V280.06Z" fill="#455A64"/>
<path d="M414.69 280.06H394.07V291.25H414.69V280.06Z" fill="#455A64"/>
<g opacity="0.3">
<path d="M346.12 281.82L385.38 281.85L385.47 291.25H387.35V280.06H346.12V281.82Z" fill="black"/>
</g>
<g opacity="0.3">
<path d="M394.07 280.06V281.68H412.41V291.25H414.69V280.06H394.07Z" fill="black"/>
</g>
<path d="M387.36 299.31H346.12V310.5H387.36V299.31Z" fill="#455A64"/>
<path d="M414.69 299.31H394.07V310.5H414.69V299.31Z" fill="#455A64"/>
<g opacity="0.3">
<path d="M346.12 301.07L385.38 301.1L385.47 310.5H387.35V299.31H346.12V301.07Z" fill="black"/>
</g>
<g opacity="0.3">
<path d="M394.07 299.31V300.94H412.41V310.5H414.69V299.31H394.07Z" fill="black"/>
</g>
<path d="M387.36 318.56H346.12V329.75H387.36V318.56Z" fill="#455A64"/>
<path d="M414.69 318.56H394.07V329.75H414.69V318.56Z" fill="#455A64"/>
<g opacity="0.3">
<path d="M346.12 320.32L385.38 320.36L385.47 329.75H387.35V318.56H346.12V320.32Z" fill="black"/>
</g>
<g opacity="0.3">
<path d="M394.07 318.56V320.19H412.41V329.75H414.69V318.56H394.07Z" fill="black"/>
</g>
<path d="M387.36 337.82H346.12V349.01H387.36V337.82Z" fill="#455A64"/>
<path d="M414.69 337.82H394.07V349.01H414.69V337.82Z" fill="#455A64"/>
<g opacity="0.3">
<path d="M346.12 339.58L385.38 339.61L385.47 349H387.35V337.82H346.12V339.58Z" fill="black"/>
</g>
<g opacity="0.3">
<path d="M394.07 337.82V339.44H412.41V349H414.69V337.82H394.07Z" fill="black"/>
</g>
<path d="M387.36 357.07H346.12V368.26H387.36V357.07Z" fill="#455A64"/>
<path d="M414.69 357.07H394.07V368.26H414.69V357.07Z" fill="#455A64"/>
<g opacity="0.3">
<path d="M346.12 358.83L385.38 358.86L385.47 368.26H387.35V357.07H346.12V358.83Z" fill="black"/>
</g>
<g opacity="0.3">
<path d="M394.07 357.07V358.69H412.41V368.26H414.69V357.07H394.07Z" fill="black"/>
</g>
<path d="M334.47 128.09H329.44V136.14H334.47V128.09Z" fill="#455A64"/>
<path d="M334.47 146.84H329.44V154.89H334.47V146.84Z" fill="#455A64"/>
<path d="M334.47 165.81H329.44V173.86H334.47V165.81Z" fill="#455A64"/>
<path d="M334.47 184.78H329.44V192.83H334.47V184.78Z" fill="#455A64"/>
<path d="M334.47 203.75H329.44V211.8H334.47V203.75Z" fill="#455A64"/>
<path d="M334.47 222.71H329.44V230.76H334.47V222.71Z" fill="#455A64"/>
<path d="M334.47 241.68H329.44V249.73H334.47V241.68Z" fill="#455A64"/>
<path d="M334.47 260.65H329.44V268.7H334.47V260.65Z" fill="#455A64"/>
<path d="M334.47 279.62H329.44V287.67H334.47V279.62Z" fill="#455A64"/>
<path d="M334.47 298.59H329.44V306.64H334.47V298.59Z" fill="#455A64"/>
<path d="M334.47 317.55H329.44V325.6H334.47V317.55Z" fill="#455A64"/>
<path d="M334.47 336.52H329.44V344.57H334.47V336.52Z" fill="#455A64"/>
<path d="M326.31 128.09H321.28V136.14H326.31V128.09Z" fill="#455A64"/>
<path d="M326.31 146.84H321.28V154.89H326.31V146.84Z" fill="#455A64"/>
<path d="M326.31 165.81H321.28V173.86H326.31V165.81Z" fill="#455A64"/>
<path d="M326.31 184.78H321.28V192.83H326.31V184.78Z" fill="#455A64"/>
<path d="M326.31 203.75H321.28V211.8H326.31V203.75Z" fill="#455A64"/>
<path d="M326.31 222.71H321.28V230.76H326.31V222.71Z" fill="#455A64"/>
<path d="M326.31 241.68H321.28V249.73H326.31V241.68Z" fill="#455A64"/>
<path d="M326.31 260.65H321.28V268.7H326.31V260.65Z" fill="#455A64"/>
<path d="M326.31 279.62H321.28V287.67H326.31V279.62Z" fill="#455A64"/>
<path d="M326.31 298.59H321.28V306.64H326.31V298.59Z" fill="#455A64"/>
<path d="M326.31 317.55H321.28V325.6H326.31V317.55Z" fill="#455A64"/>
<path d="M326.31 336.52H321.28V344.57H326.31V336.52Z" fill="#455A64"/>
<path d="M386.47 272C386.47 272.15 377.47 272.26 366.3 272.26C355.13 272.26 346.12 272.15 346.12 272C346.12 271.85 355.12 271.74 366.3 271.74C377.48 271.74 386.47 271.85 386.47 272Z" fill="white"/>
<path d="M413 272C409.951 272.263 406.889 272.35 403.83 272.26C400.771 272.35 397.709 272.263 394.66 272C397.709 271.743 400.771 271.656 403.83 271.74C406.889 271.656 409.951 271.743 413 272Z" fill="white"/>
<path d="M386.47 291.45C386.47 291.59 377.47 291.71 366.3 291.71C355.13 291.71 346.12 291.59 346.12 291.45C346.12 291.31 355.12 291.19 366.3 291.19C377.48 291.19 386.47 291.31 386.47 291.45Z" fill="white"/>
<path d="M413 291.45C409.951 291.707 406.889 291.794 403.83 291.71C400.771 291.794 397.709 291.707 394.66 291.45C397.709 291.193 400.771 291.106 403.83 291.19C406.889 291.106 409.951 291.193 413 291.45Z" fill="white"/>
<path d="M386.47 310.91C386.47 311.05 377.47 311.17 366.3 311.17C355.13 311.17 346.12 311.05 346.12 310.91C346.12 310.77 355.12 310.65 366.3 310.65C377.48 310.65 386.47 310.76 386.47 310.91Z" fill="white"/>
<path d="M413 310.91C409.951 311.167 406.889 311.254 403.83 311.17C400.771 311.254 397.709 311.167 394.66 310.91C397.709 310.647 400.771 310.56 403.83 310.65C406.889 310.56 409.951 310.647 413 310.91Z" fill="white"/>
<path d="M386.47 330.36C386.47 330.51 377.47 330.62 366.3 330.62C355.13 330.62 346.12 330.51 346.12 330.36C346.12 330.21 355.12 330.1 366.3 330.1C377.48 330.1 386.47 330.22 386.47 330.36Z" fill="white"/>
<path d="M413 330.36C409.951 330.623 406.889 330.71 403.83 330.62C400.771 330.71 397.709 330.623 394.66 330.36C397.709 330.103 400.771 330.016 403.83 330.1C406.889 330.016 409.951 330.103 413 330.36Z" fill="white"/>
<path d="M386.47 349.82C386.47 349.96 377.47 350.08 366.3 350.08C355.13 350.08 346.12 349.96 346.12 349.82C346.12 349.68 355.12 349.56 366.3 349.56C377.48 349.56 386.47 349.67 386.47 349.82Z" fill="white"/>
<path d="M413 349.82C409.951 350.077 406.889 350.164 403.83 350.08C400.771 350.164 397.709 350.077 394.66 349.82C397.709 349.557 400.771 349.47 403.83 349.56C406.889 349.47 409.951 349.557 413 349.82Z" fill="white"/>
<path d="M386.47 369.27C386.47 369.42 377.47 369.53 366.3 369.53C355.13 369.53 346.12 369.42 346.12 369.27C346.12 369.12 355.12 369.01 366.3 369.01C377.48 369.01 386.47 369.13 386.47 369.27Z" fill="white"/>
<path d="M413 369.27C409.951 369.533 406.889 369.62 403.83 369.53C400.771 369.62 397.709 369.533 394.66 369.27C397.709 369.013 400.771 368.926 403.83 369.01C406.889 368.926 409.951 369.013 413 369.27Z" fill="white"/>
<path d="M386.47 195.2C386.47 195.35 377.47 195.46 366.3 195.46C355.13 195.46 346.12 195.35 346.12 195.2C346.12 195.05 355.12 194.94 366.3 194.94C377.48 194.94 386.47 195.06 386.47 195.2Z" fill="white"/>
<path d="M386.47 175.73C386.47 175.87 377.47 175.99 366.3 175.99C355.13 175.99 346.12 175.87 346.12 175.73C346.12 175.59 355.12 175.47 366.3 175.47C377.48 175.47 386.47 175.59 386.47 175.73Z" fill="white"/>
<path d="M386.47 156.26C386.47 156.4 377.47 156.52 366.3 156.52C355.13 156.52 346.12 156.4 346.12 156.26C346.12 156.12 355.12 156 366.3 156C377.48 156 386.47 156.12 386.47 156.26Z" fill="white"/>
<path d="M386.47 214.24C386.47 214.38 377.47 214.5 366.3 214.5C355.13 214.5 346.12 214.38 346.12 214.24C346.12 214.1 355.12 213.98 366.3 213.98C377.48 213.98 386.47 214.09 386.47 214.24Z" fill="white"/>
<path d="M386.47 233.27C386.47 233.41 377.47 233.53 366.3 233.53C355.13 233.53 346.12 233.41 346.12 233.27C346.12 233.13 355.12 233.01 366.3 233.01C377.48 233.01 386.47 233.13 386.47 233.27Z" fill="white"/>
<path d="M386.47 252.3C386.47 252.45 377.47 252.56 366.3 252.56C355.13 252.56 346.12 252.45 346.12 252.3C346.12 252.15 355.12 252.04 366.3 252.04C377.48 252.04 386.47 252.16 386.47 252.3Z" fill="white"/>
<path d="M385.69 137.18C385.69 137.32 376.69 137.44 365.6 137.44C354.51 137.44 345.52 137.32 345.52 137.18C345.52 137.04 354.52 136.92 365.6 136.92C376.68 136.92 385.69 137 385.69 137.18Z" fill="white"/>
<path d="M413 137.18C409.951 137.437 406.889 137.524 403.83 137.44C400.771 137.524 397.709 137.437 394.66 137.18C397.709 136.917 400.771 136.83 403.83 136.92C406.889 136.83 409.951 136.917 413 137.18Z" fill="white"/>
<path d="M413 156.26C409.951 156.517 406.889 156.604 403.83 156.52C400.771 156.604 397.709 156.517 394.66 156.26C397.709 156.003 400.771 155.916 403.83 156C406.889 155.916 409.951 156.003 413 156.26Z" fill="white"/>
<path d="M413 175.34C409.951 175.603 406.889 175.69 403.83 175.6C400.771 175.69 397.709 175.603 394.66 175.34C397.709 175.083 400.771 174.996 403.83 175.08C406.889 174.996 409.951 175.083 413 175.34Z" fill="white"/>
<path d="M413 195.2C409.951 195.463 406.889 195.55 403.83 195.46C400.771 195.55 397.709 195.463 394.66 195.2C397.709 194.943 400.771 194.856 403.83 194.94C406.889 194.856 409.951 194.943 413 195.2Z" fill="white"/>
<path d="M413 214.24C409.951 214.497 406.889 214.584 403.83 214.5C400.771 214.584 397.709 214.497 394.66 214.24C397.709 213.977 400.771 213.89 403.83 213.98C406.889 213.89 409.951 213.977 413 214.24Z" fill="white"/>
<path d="M413 233.34C409.951 233.597 406.889 233.684 403.83 233.6C400.771 233.684 397.709 233.597 394.66 233.34C397.709 233.083 400.771 232.996 403.83 233.08C406.889 232.996 409.951 233.083 413 233.34Z" fill="white"/>
<path d="M413 252.44C409.951 252.703 406.889 252.79 403.83 252.7C400.771 252.79 397.709 252.703 394.66 252.44C397.709 252.183 400.771 252.096 403.83 252.18C406.889 252.096 409.951 252.183 413 252.44Z" fill="white"/>
<path d="M295.1 219.41H187.26V482.88H295.1V219.41Z" fill="#108A37"/>
<path d="M238.8 230.23H230.36V472.4H238.8V230.23Z" fill="#455A64"/>
<path d="M250.69 230.23H242.25V472.4H250.69V230.23Z" fill="#455A64"/>
<path d="M262.57 230.23H254.13V472.4H262.57V230.23Z" fill="#455A64"/>
<path d="M203.06 230.23H194.62V472.4H203.06V230.23Z" fill="#455A64"/>
<path d="M214.94 230.23H206.5V472.4H214.94V230.23Z" fill="#455A64"/>
<path d="M274.45 230.23H266.01V472.4H274.45V230.23Z" fill="#455A64"/>
<path d="M286.33 230.23H277.89V472.4H286.33V230.23Z" fill="#455A64"/>
<g opacity="0.3">
<path d="M221.84 219.41H187.26V482.88H221.84V219.41Z" fill="black"/>
</g>
<path d="M261.66 257C260.974 258.043 260.15 258.989 259.21 259.81C258.392 260.753 257.446 261.578 256.4 262.26C257.891 260.263 259.663 258.491 261.66 257Z" fill="white"/>
<path d="M272.17 264.13C272.27 264.24 271.52 265.13 270.49 266.13C269.46 267.13 268.55 267.83 268.49 267.72C268.92 266.954 269.489 266.275 270.17 265.72C271.16 264.74 272.07 264 272.17 264.13Z" fill="white"/>
<path d="M282.84 249.13C282.94 249.23 282.23 250.13 281.25 251.02C280.27 251.91 279.39 252.63 279.25 252.53C279.11 252.43 279.86 251.58 280.85 250.64C281.84 249.7 282.74 249 282.84 249.13Z" fill="white"/>
<path d="M495.77 183.79H441.35V198.2H495.77V183.79Z" fill="#263238"/>
<path d="M493.48 185.6H443.64V194.93H493.48V185.6Z" fill="#455A64"/>
<g opacity="0.3">
<path d="M493.48 185.6H443.64V194.93H493.48V185.6Z" fill="white"/>
</g>
<path d="M502.95 196.09H433.04V373.17H502.95V196.09Z" fill="#263238"/>
<path d="M498.77 200.18H436.79V373.16H498.77V200.18Z" fill="#455A64"/>
<g opacity="0.3">
<path d="M436.79 281.31H449.34V261.8H459.45V246.04H479.67V295.75H489.78V225.26H498.77V200.18H436.79V281.31Z" fill="white"/>
</g>
<path d="M501.62 218.38C501.62 218.53 486.76 218.64 468.44 218.64C450.12 218.64 435.26 218.53 435.26 218.38C435.26 218.23 450.11 218.12 468.44 218.12C486.77 218.12 501.62 218.24 501.62 218.38Z" fill="#263238"/>
<path d="M501.62 236.13C501.62 236.27 486.76 236.39 468.44 236.39C450.12 236.39 435.26 236.27 435.26 236.13C435.26 235.99 450.11 235.87 468.44 235.87C486.77 235.87 501.62 236 501.62 236.13Z" fill="#263238"/>
<path d="M501.62 253.88C501.62 254.02 486.76 254.14 468.44 254.14C450.12 254.14 435.26 254.02 435.26 253.88C435.26 253.74 450.11 253.61 468.44 253.61C486.77 253.61 501.62 253.73 501.62 253.88Z" fill="#263238"/>
<path d="M501.62 271.62C501.62 271.77 486.76 271.88 468.44 271.88C450.12 271.88 435.26 271.77 435.26 271.62C435.26 271.47 450.11 271.36 468.44 271.36C486.77 271.36 501.62 271.48 501.62 271.62Z" fill="#263238"/>
<path d="M501.62 289.37C501.62 289.51 486.76 289.63 468.44 289.63C450.12 289.63 435.26 289.51 435.26 289.37C435.26 289.23 450.11 289.11 468.44 289.11C486.77 289.11 501.62 289.22 501.62 289.37Z" fill="#263238"/>
<path d="M501.62 307.11C501.62 307.26 486.76 307.37 468.44 307.37C450.12 307.37 435.26 307.26 435.26 307.11C435.26 306.96 450.11 306.85 468.44 306.85C486.77 306.85 501.62 307 501.62 307.11Z" fill="#263238"/>
<path d="M501.62 324.86C501.62 325 486.76 325.12 468.44 325.12C450.12 325.12 435.26 325 435.26 324.86C435.26 324.72 450.11 324.6 468.44 324.6C486.77 324.6 501.62 324.72 501.62 324.86Z" fill="#263238"/>
<path d="M501.62 342.61C501.62 342.75 486.76 342.87 468.44 342.87C450.12 342.87 435.26 342.75 435.26 342.61C435.26 342.47 450.11 342.35 468.44 342.35C486.77 342.35 501.62 342.46 501.62 342.61Z" fill="#263238"/>
<path d="M501.62 360.35C501.62 360.5 486.76 360.61 468.44 360.61C450.12 360.61 435.26 360.5 435.26 360.35C435.26 360.2 450.11 360.09 468.44 360.09C486.77 360.09 501.62 360.21 501.62 360.35Z" fill="#263238"/>
<path d="M450.9 376.86C450.75 376.86 450.64 333.86 450.64 280.86C450.64 227.86 450.75 184.86 450.9 184.86C451.05 184.86 451.16 227.86 451.16 280.86C451.16 333.86 451 376.86 450.9 376.86Z" fill="#263238"/>
<path d="M468.88 376.86C468.74 376.86 468.62 333.86 468.62 280.86C468.62 227.86 468.74 184.86 468.88 184.86C469.02 184.86 469.15 227.86 469.15 280.86C469.15 333.86 469 376.86 468.88 376.86Z" fill="#263238"/>
<path d="M486.87 376.86C486.73 376.86 486.61 333.86 486.61 280.86C486.61 227.86 486.73 184.86 486.87 184.86C487.01 184.86 487.13 227.86 487.13 280.86C487.13 333.86 487 376.86 486.87 376.86Z" fill="#263238"/>
<path d="M441.35 183.79H433.48V196.09H441.35V183.79Z" fill="#263238"/>
<g opacity="0.3">
<path d="M441.35 183.79H433.48V196.09H441.35V183.79Z" fill="black"/>
</g>
<path d="M433.38 196.2H425.51V345.23H433.38V196.2Z" fill="#263238"/>
<g opacity="0.3">
<path d="M433.38 196.2H425.51V345.23H433.38V196.2Z" fill="black"/>
</g>
<path d="M466.29 221.61C464.696 223.454 462.979 225.188 461.15 226.8C459.436 228.538 457.598 230.149 455.65 231.62C457.245 229.774 458.963 228.037 460.79 226.42C462.506 224.687 464.344 223.079 466.29 221.61Z" fill="white"/>
<path d="M482.94 221.29C481.351 223.142 479.633 224.879 477.8 226.49C476.083 228.225 474.245 229.835 472.3 231.31C475.604 227.727 479.159 224.385 482.94 221.31V221.29Z" fill="white"/>
<path d="M483.22 207.2C481.634 209.055 479.916 210.793 478.08 212.4C476.364 214.132 474.53 215.743 472.59 217.22C474.173 215.362 475.891 213.624 477.73 212.02C479.442 210.284 481.277 208.673 483.22 207.2Z" fill="white"/>
<path d="M617.92 438.7H525.23V273.66L617.92 228.5V438.7Z" fill="#455A64"/>
<path d="M570.72 345.13H562.38V357.11H570.72V345.13Z" fill="#EBEBEB"/>
<g opacity="0.3">
<path d="M562.38 345.13V346.61H569.32V357.11H570.72V345.13H562.38Z" fill="black"/>
</g>
<path d="M570.72 368.31H562.38V380.29H570.72V368.31Z" fill="#EBEBEB"/>
<g opacity="0.3">
<path d="M562.38 368.31V369.8H569.32V380.29H570.72V368.31H562.38Z" fill="black"/>
</g>
<path d="M570.72 391.5H562.38V403.48H570.72V391.5Z" fill="#EBEBEB"/>
<g opacity="0.3">
<path d="M562.38 391.5V392.98H569.32V403.48H570.72V391.5H562.38Z" fill="black"/>
</g>
<path d="M570.72 414.81H562.38V438.79H570.72V414.81Z" fill="#EBEBEB"/>
<g opacity="0.3">
<path d="M562.38 414.81V417.79H569.32V438.79H570.72V414.81H562.38Z" fill="black"/>
</g>
<path d="M570.72 321.38H562.38V333.36H570.72V321.38Z" fill="#EBEBEB"/>
<g opacity="0.3">
<path d="M562.38 321.38V322.87H569.32V333.36H570.72V321.38H562.38Z" fill="black"/>
</g>
<path d="M570.72 297.64H562.38V309.62H570.72V297.64Z" fill="#EBEBEB"/>
<g opacity="0.3">
<path d="M562.38 297.64V299.12H569.32V309.62H570.72V297.64H562.38Z" fill="black"/>
</g>
<path d="M570.72 273.89H562.38V285.87H570.72V273.89Z" fill="#EBEBEB"/>
<g opacity="0.3">
<path d="M562.38 273.89V275.38H569.32V285.87H570.72V273.89H562.38Z" fill="black"/>
</g>
<path d="M589.61 344.61H581.27V356.59H589.61V344.61Z" fill="#EBEBEB"/>
<g opacity="0.3">
<path d="M581.27 344.61V346.09H588.2V356.59H589.61V344.61H581.27Z" fill="black"/>
</g>
<path d="M589.61 367.79H581.27V379.77H589.61V367.79Z" fill="#EBEBEB"/>
<g opacity="0.3">
<path d="M581.27 367.79V369.28H588.2V379.77H589.61V367.79H581.27Z" fill="black"/>
</g>
<path d="M589.61 390.98H581.27V402.96H589.61V390.98Z" fill="#EBEBEB"/>
<g opacity="0.3">
<path d="M581.27 390.98V392.46H588.2V402.96H589.61V390.98H581.27Z" fill="black"/>
</g>
<path d="M589.61 414.16H581.27V438.79H589.61V414.16Z" fill="#EBEBEB"/>
<g opacity="0.3">
<path d="M581.27 414.16V417.22H588.2V438.79H589.61V414.16H581.27Z" fill="black"/>
</g>
<path d="M589.61 320.86H581.27V332.84H589.61V320.86Z" fill="#EBEBEB"/>
<g opacity="0.3">
<path d="M581.27 320.86V322.35H588.2V332.84H589.61V320.86H581.27Z" fill="black"/>
</g>
<path d="M589.61 297.12H581.27V309.1H589.61V297.12Z" fill="#EBEBEB"/>
<g opacity="0.3">
<path d="M581.27 297.12V298.6H588.2V309.1H589.61V297.12H581.27Z" fill="black"/>
</g>
<path d="M589.61 273.37H581.27V285.35H589.61V273.37Z" fill="#EBEBEB"/>
<g opacity="0.3">
<path d="M581.27 273.37V274.86H588.2V285.35H589.61V273.37H581.27Z" fill="black"/>
</g>
<path d="M608.49 345H600.15V356.98H608.49V345Z" fill="#EBEBEB"/>
<g opacity="0.3">
<path d="M600.15 345V346.49H607.09V356.98H608.49V345H600.15Z" fill="black"/>
</g>
<path d="M608.49 368.19H600.15V380.17H608.49V368.19Z" fill="#EBEBEB"/>
<g opacity="0.3">
<path d="M600.15 368.19V369.67H607.09V380.17H608.49V368.19H600.15Z" fill="black"/>
</g>
<path d="M608.49 391.37H600.15V403.35H608.49V391.37Z" fill="#EBEBEB"/>
<g opacity="0.3">
<path d="M600.15 391.37V392.86H607.09V403.35H608.49V391.37H600.15Z" fill="black"/>
</g>
<path d="M608.49 414.56H600.15V438.54H608.49V414.56Z" fill="#EBEBEB"/>
<g opacity="0.3">
<path d="M600.15 414.56V417.53H607.09V438.54H608.49V414.56H600.15Z" fill="black"/>
</g>
<path d="M608.49 321.26H600.15V333.24H608.49V321.26Z" fill="#EBEBEB"/>
<g opacity="0.3">
<path d="M600.15 321.25V322.74H607.09V333.24H608.49V321.25H600.15Z" fill="black"/>
</g>
<path d="M608.49 297.51H600.15V309.49H608.49V297.51Z" fill="#EBEBEB"/>
<g opacity="0.3">
<path d="M600.15 297.51V299H607.09V309.49H608.49V297.51H600.15Z" fill="black"/>
</g>
<path d="M608.49 273.76H600.15V285.74H608.49V273.76Z" fill="#EBEBEB"/>
<g opacity="0.3">
<path d="M600.15 273.76V275.25H607.09V285.74H608.49V273.76H600.15Z" fill="black"/>
</g>
<path d="M608.49 253.52H600.15V265.5H608.49V253.52Z" fill="#EBEBEB"/>
<g opacity="0.3">
<path d="M600.15 253.52V255.01H607.09V265.5H608.49V253.52H600.15Z" fill="black"/>
</g>
<path d="M544.16 277.59H541.24V289.57H544.16V277.59Z" fill="#263238"/>
<path d="M544.57 289.56H539.24V291.37H544.57V289.56Z" fill="white"/>
<path d="M544.16 300.41H541.24V312.39H544.16V300.41Z" fill="#263238"/>
<path d="M544.57 312.39H539.24V314.2H544.57V312.39Z" fill="white"/>
<path d="M544.16 323.23H541.24V335.21H544.16V323.23Z" fill="#263238"/>
<path d="M544.57 335.21H539.24V337.02H544.57V335.21Z" fill="white"/>
<path d="M544.16 346.06H541.24V358.04H544.16V346.06Z" fill="#263238"/>
<path d="M544.57 358.04H539.24V359.85H544.57V358.04Z" fill="white"/>
<path d="M544.45 368.28H541.53V380.26H544.45V368.28Z" fill="#263238"/>
<path d="M544.86 380.26H539.53V382.07H544.86V380.26Z" fill="white"/>
<path d="M544.74 390.51H541.82V402.49H544.74V390.51Z" fill="#263238"/>
<path d="M545.15 402.49H539.82V404.3H545.15V402.49Z" fill="white"/>
<path d="M545.03 412.74H542.11V424.72H545.03V412.74Z" fill="#263238"/>
<path d="M545.44 424.72H540.11V426.53H545.44V424.72Z" fill="white"/>
<path d="M535.23 277.59H532.31V289.57H535.23V277.59Z" fill="#263238"/>
<path d="M535.64 289.56H530.31V291.37H535.64V289.56Z" fill="white"/>
<path d="M535.23 300.41H532.31V312.39H535.23V300.41Z" fill="#263238"/>
<path d="M535.64 312.39H530.31V314.2H535.64V312.39Z" fill="white"/>
<path d="M535.23 323.23H532.31V335.21H535.23V323.23Z" fill="#263238"/>
<path d="M535.64 335.21H530.31V337.02H535.64V335.21Z" fill="white"/>
<path d="M535.23 346.06H532.31V358.04H535.23V346.06Z" fill="#263238"/>
<path d="M535.64 358.04H530.31V359.85H535.64V358.04Z" fill="white"/>
<path d="M535.52 368.28H532.6V380.26H535.52V368.28Z" fill="#263238"/>
<path d="M535.93 380.26H530.6V382.07H535.93V380.26Z" fill="white"/>
<path d="M535.81 390.51H532.89V402.49H535.81V390.51Z" fill="#263238"/>
<path d="M536.22 402.49H530.89V404.3H536.22V402.49Z" fill="white"/>
<path d="M536.1 412.74H533.18V424.72H536.1V412.74Z" fill="#263238"/>
<path d="M536.51 424.72H531.18V426.53H536.51V424.72Z" fill="white"/>
<g opacity="0.3">
<path d="M551.46 438.79H525.23V273.66L552.06 260.58L551.46 438.79Z" fill="black"/>
</g>
<path d="M380.16 269.81H300.95V483.26H380.16V269.81Z" fill="#E0E0E0"/>
<path d="M336.93 277.93H331.73V285.41H336.93V277.93Z" fill="#455A64"/>
<g opacity="0.3">
<path d="M331.73 277.93V278.86H336.05V285.41H336.93V277.93H331.73Z" fill="black"/>
</g>
<path d="M344.91 277.93H339.71V285.41H344.91V277.93Z" fill="#455A64"/>
<g opacity="0.3">
<path d="M339.71 277.93V278.86H344.03V285.41H344.91V277.93H339.71Z" fill="black"/>
</g>
<path d="M352.89 277.93H347.69V285.41H352.89V277.93Z" fill="#455A64"/>
<g opacity="0.3">
<path d="M347.69 277.93V278.86H352.01V285.41H352.89V277.93H347.69Z" fill="black"/>
</g>
<path d="M360.87 277.93H355.67V285.41H360.87V277.93Z" fill="#455A64"/>
<g opacity="0.3">
<path d="M355.67 277.93V278.86H360V285.41H360.87V277.93H355.67Z" fill="black"/>
</g>
<path d="M368.85 277.93H363.65V285.41H368.85V277.93Z" fill="#455A64"/>
<g opacity="0.3">
<path d="M363.65 277.93V278.86H367.98V285.41H368.86V277.93H363.65Z" fill="black"/>
</g>
<path d="M376.83 277.93H371.63V285.41H376.83V277.93Z" fill="#455A64"/>
<g opacity="0.3">
<path d="M371.63 277.93V278.86H375.96V285.41H376.84V277.93H371.63Z" fill="black"/>
</g>
<path d="M309.47 277.93H304.27V285.41H309.47V277.93Z" fill="#455A64"/>
<g opacity="0.3">
<path d="M304.27 277.93V278.86H308.6V285.41H309.48V277.93H304.27Z" fill="black"/>
</g>
<path d="M317.45 277.93H312.25V285.41H317.45V277.93Z" fill="#455A64"/>
<g opacity="0.3">
<path d="M312.25 277.93V278.86H316.58V285.41H317.46V277.93H312.25Z" fill="black"/>
</g>
<path d="M325.43 277.93H320.23V285.41H325.43V277.93Z" fill="#455A64"/>
<g opacity="0.3">
<path d="M320.23 277.93V278.86H324.56V285.41H325.44V277.93H320.23Z" fill="black"/>
</g>
<path d="M336.93 289.03H331.73V296.51H336.93V289.03Z" fill="#455A64"/>
<g opacity="0.3">
<path d="M331.73 289.03V289.96H336.05V296.51H336.93V289.03H331.73Z" fill="black"/>
</g>
<path d="M344.91 289.03H339.71V296.51H344.91V289.03Z" fill="#455A64"/>
<g opacity="0.3">
<path d="M339.71 289.03V289.96H344.03V296.51H344.91V289.03H339.71Z" fill="black"/>
</g>
<path d="M352.89 289.03H347.69V296.51H352.89V289.03Z" fill="#455A64"/>
<g opacity="0.3">
<path d="M347.69 289.03V289.96H352.01V296.51H352.89V289.03H347.69Z" fill="black"/>
</g>
<path d="M360.87 289.03H355.67V296.51H360.87V289.03Z" fill="#455A64"/>
<g opacity="0.3">
<path d="M355.67 289.03V289.96H360V296.51H360.87V289.03H355.67Z" fill="black"/>
</g>
<path d="M368.85 289.03H363.65V296.51H368.85V289.03Z" fill="#455A64"/>
<g opacity="0.3">
<path d="M363.65 289.03V289.96H367.98V296.51H368.86V289.03H363.65Z" fill="black"/>
</g>
<path d="M376.83 289.03H371.63V296.51H376.83V289.03Z" fill="#455A64"/>
<g opacity="0.3">
<path d="M371.63 289.03V289.96H375.96V296.51H376.84V289.03H371.63Z" fill="black"/>
</g>
<path d="M309.47 289.03H304.27V296.51H309.47V289.03Z" fill="#455A64"/>
<g opacity="0.3">
<path d="M304.27 289.03V289.96H308.6V296.51H309.48V289.03H304.27Z" fill="black"/>
</g>
<path d="M317.45 289.03H312.25V296.51H317.45V289.03Z" fill="#455A64"/>
<g opacity="0.3">
<path d="M312.25 289.03V289.96H316.58V296.51H317.46V289.03H312.25Z" fill="black"/>
</g>
<path d="M325.43 289.03H320.23V296.51H325.43V289.03Z" fill="#455A64"/>
<g opacity="0.3">
<path d="M320.23 289.03V289.96H324.56V296.51H325.44V289.03H320.23Z" fill="black"/>
</g>
<path d="M336.93 300.13H331.73V307.61H336.93V300.13Z" fill="#455A64"/>
<g opacity="0.3">
<path d="M331.73 300.13V301.06H336.05V307.61H336.93V300.13H331.73Z" fill="black"/>
</g>
<path d="M344.91 300.13H339.71V307.61H344.91V300.13Z" fill="#455A64"/>
<g opacity="0.3">
<path d="M339.71 300.13V301.06H344.03V307.61H344.91V300.13H339.71Z" fill="black"/>
</g>
<path d="M352.89 300.13H347.69V307.61H352.89V300.13Z" fill="#455A64"/>
<g opacity="0.3">
<path d="M347.69 300.13V301.06H352.01V307.61H352.89V300.13H347.69Z" fill="black"/>
</g>
<path d="M360.87 300.13H355.67V307.61H360.87V300.13Z" fill="#455A64"/>
<g opacity="0.3">
<path d="M355.67 300.13V301.06H360V307.61H360.87V300.13H355.67Z" fill="black"/>
</g>
<path d="M368.85 300.13H363.65V307.61H368.85V300.13Z" fill="#455A64"/>
<g opacity="0.3">
<path d="M363.65 300.13V301.06H367.98V307.61H368.86V300.13H363.65Z" fill="black"/>
</g>
<path d="M376.83 300.13H371.63V307.61H376.83V300.13Z" fill="#455A64"/>
<g opacity="0.3">
<path d="M371.63 300.13V301.06H375.96V307.61H376.84V300.13H371.63Z" fill="black"/>
</g>
<path d="M309.47 300.13H304.27V307.61H309.47V300.13Z" fill="#455A64"/>
<g opacity="0.3">
<path d="M304.27 300.13V301.06H308.6V307.61H309.48V300.13H304.27Z" fill="black"/>
</g>
<path d="M317.45 300.13H312.25V307.61H317.45V300.13Z" fill="#455A64"/>
<g opacity="0.3">
<path d="M312.25 300.13V301.06H316.58V307.61H317.46V300.13H312.25Z" fill="black"/>
</g>
<path d="M325.43 300.13H320.23V307.61H325.43V300.13Z" fill="#455A64"/>
<g opacity="0.3">
<path d="M320.23 300.13V301.06H324.56V307.61H325.44V300.13H320.23Z" fill="black"/>
</g>
<g opacity="0.4">
<path d="M309.47 277.93H304.27V285.41H309.47V277.93Z" fill="white"/>
<g opacity="0.3">
<path d="M304.27 277.93V278.86H308.6V285.41H309.48V277.93H304.27Z" fill="white"/>
</g>
</g>
<g opacity="0.4">
<path d="M317.45 277.93H312.25V285.41H317.45V277.93Z" fill="white"/>
<g opacity="0.3">
<path d="M312.25 277.93V278.86H316.58V285.41H317.46V277.93H312.25Z" fill="white"/>
</g>
</g>
<g opacity="0.4">
<path d="M325.43 277.93H320.23V285.41H325.43V277.93Z" fill="white"/>
<g opacity="0.3">
<path d="M320.23 277.93V278.86H324.56V285.41H325.44V277.93H320.23Z" fill="white"/>
</g>
</g>
<g opacity="0.4">
<path d="M309.47 289.03H304.27V296.51H309.47V289.03Z" fill="white"/>
<g opacity="0.3">
<path d="M304.27 289.03V289.96H308.6V296.51H309.48V289.03H304.27Z" fill="white"/>
</g>
</g>
<g opacity="0.4">
<path d="M317.45 289.03H312.25V296.51H317.45V289.03Z" fill="white"/>
<g opacity="0.3">
<path d="M312.25 289.03V289.96H316.58V296.51H317.46V289.03H312.25Z" fill="white"/>
</g>
</g>
<g opacity="0.4">
<path d="M325.43 289.03H320.23V296.51H325.43V289.03Z" fill="white"/>
<g opacity="0.3">
<path d="M320.23 289.03V289.96H324.56V296.51H325.44V289.03H320.23Z" fill="white"/>
</g>
</g>
<g opacity="0.4">
<path d="M309.47 300.13H304.27V307.61H309.47V300.13Z" fill="white"/>
<g opacity="0.3">
<path d="M304.27 300.13V301.06H308.6V307.61H309.48V300.13H304.27Z" fill="white"/>
</g>
</g>
<g opacity="0.4">
<path d="M325.43 300.13H320.23V307.61H325.43V300.13Z" fill="white"/>
<g opacity="0.3">
<path d="M320.23 300.13V301.06H324.56V307.61H325.44V300.13H320.23Z" fill="white"/>
</g>
</g>
<path d="M336.93 311.23H331.73V318.71H336.93V311.23Z" fill="#455A64"/>
<g opacity="0.3">
<path d="M331.73 311.23V312.16H336.05V318.71H336.93V311.23H331.73Z" fill="black"/>
</g>
<path d="M344.91 311.23H339.71V318.71H344.91V311.23Z" fill="#455A64"/>
<g opacity="0.3">
<path d="M339.71 311.23V312.16H344.03V318.71H344.91V311.23H339.71Z" fill="black"/>
</g>
<path d="M352.89 311.23H347.69V318.71H352.89V311.23Z" fill="#455A64"/>
<g opacity="0.3">
<path d="M347.69 311.23V312.16H352.01V318.71H352.89V311.23H347.69Z" fill="black"/>
</g>
<path d="M360.87 311.23H355.67V318.71H360.87V311.23Z" fill="#455A64"/>
<g opacity="0.3">
<path d="M355.67 311.23V312.16H360V318.71H360.87V311.23H355.67Z" fill="black"/>
</g>
<path d="M368.85 311.23H363.65V318.71H368.85V311.23Z" fill="#455A64"/>
<g opacity="0.3">
<path d="M363.65 311.23V312.16H367.98V318.71H368.86V311.23H363.65Z" fill="black"/>
</g>
<path d="M376.83 311.23H371.63V318.71H376.83V311.23Z" fill="#455A64"/>
<g opacity="0.3">
<path d="M371.63 311.23V312.16H375.96V318.71H376.84V311.23H371.63Z" fill="black"/>
</g>
<path d="M309.47 311.23H304.27V318.71H309.47V311.23Z" fill="#455A64"/>
<g opacity="0.3">
<path d="M304.27 311.23V312.16H308.6V318.71H309.48V311.23H304.27Z" fill="black"/>
</g>
<path d="M317.45 311.23H312.25V318.71H317.45V311.23Z" fill="#455A64"/>
<g opacity="0.3">
<path d="M312.25 311.23V312.16H316.58V318.71H317.46V311.23H312.25Z" fill="black"/>
</g>
<path d="M325.43 311.23H320.23V318.71H325.43V311.23Z" fill="#455A64"/>
<g opacity="0.3">
<path d="M320.23 311.23V312.16H324.56V318.71H325.44V311.23H320.23Z" fill="black"/>
</g>
<path d="M336.93 322.33H331.73V329.81H336.93V322.33Z" fill="#455A64"/>
<g opacity="0.3">
<path d="M331.73 322.33V323.26H336.05V329.81H336.93V322.33H331.73Z" fill="black"/>
</g>
<path d="M344.91 322.33H339.71V329.81H344.91V322.33Z" fill="#455A64"/>
<g opacity="0.3">
<path d="M339.71 322.33V323.26H344.03V329.81H344.91V322.33H339.71Z" fill="black"/>
</g>
<path d="M352.89 322.33H347.69V329.81H352.89V322.33Z" fill="#455A64"/>
<g opacity="0.3">
<path d="M347.69 322.33V323.26H352.01V329.81H352.89V322.33H347.69Z" fill="black"/>
</g>
<path d="M360.87 322.33H355.67V329.81H360.87V322.33Z" fill="#455A64"/>
<g opacity="0.3">
<path d="M355.67 322.33V323.26H360V329.81H360.87V322.33H355.67Z" fill="black"/>
</g>
<path d="M368.85 322.33H363.65V329.81H368.85V322.33Z" fill="#455A64"/>
<g opacity="0.3">
<path d="M363.65 322.33V323.26H367.98V329.81H368.86V322.33H363.65Z" fill="black"/>
</g>
<path d="M376.83 322.33H371.63V329.81H376.83V322.33Z" fill="#455A64"/>
<g opacity="0.3">
<path d="M371.63 322.33V323.26H375.96V329.81H376.84V322.33H371.63Z" fill="black"/>
</g>
<path d="M309.47 322.33H304.27V329.81H309.47V322.33Z" fill="#455A64"/>
<g opacity="0.3">
<path d="M304.27 322.33V323.26H308.6V329.81H309.48V322.33H304.27Z" fill="black"/>
</g>
<path d="M317.45 322.33H312.25V329.81H317.45V322.33Z" fill="#455A64"/>
<g opacity="0.3">
<path d="M312.25 322.33V323.26H316.58V329.81H317.46V322.33H312.25Z" fill="black"/>
</g>
<path d="M325.43 322.33H320.23V329.81H325.43V322.33Z" fill="#455A64"/>
<g opacity="0.3">
<path d="M320.23 322.33V323.26H324.56V329.81H325.44V322.33H320.23Z" fill="black"/>
</g>
<path d="M336.93 333.43H331.73V340.91H336.93V333.43Z" fill="#455A64"/>
<g opacity="0.3">
<path d="M331.73 333.43V334.36H336.05V340.91H336.93V333.43H331.73Z" fill="black"/>
</g>
<path d="M344.91 333.43H339.71V340.91H344.91V333.43Z" fill="#455A64"/>
<g opacity="0.3">
<path d="M339.71 333.43V334.36H344.03V340.91H344.91V333.43H339.71Z" fill="black"/>
</g>
<path d="M352.89 333.43H347.69V340.91H352.89V333.43Z" fill="#455A64"/>
<g opacity="0.3">
<path d="M347.69 333.43V334.36H352.01V340.91H352.89V333.43H347.69Z" fill="black"/>
</g>
<path d="M360.87 333.43H355.67V340.91H360.87V333.43Z" fill="#455A64"/>
<g opacity="0.3">
<path d="M355.67 333.43V334.36H360V340.91H360.87V333.43H355.67Z" fill="black"/>
</g>
<path d="M368.85 333.43H363.65V340.91H368.85V333.43Z" fill="#455A64"/>
<g opacity="0.3">
<path d="M363.65 333.43V334.36H367.98V340.91H368.86V333.43H363.65Z" fill="black"/>
</g>
<path d="M376.83 333.43H371.63V340.91H376.83V333.43Z" fill="#455A64"/>
<g opacity="0.3">
<path d="M371.63 333.43V334.36H375.96V340.91H376.84V333.43H371.63Z" fill="black"/>
</g>
<path d="M309.47 333.43H304.27V340.91H309.47V333.43Z" fill="#455A64"/>
<g opacity="0.3">
<path d="M304.27 333.43V334.36H308.6V340.91H309.48V333.43H304.27Z" fill="black"/>
</g>
<path d="M317.45 333.43H312.25V340.91H317.45V333.43Z" fill="#455A64"/>
<g opacity="0.3">
<path d="M312.25 333.43V334.36H316.58V340.91H317.46V333.43H312.25Z" fill="black"/>
</g>
<path d="M325.43 333.43H320.23V340.91H325.43V333.43Z" fill="#455A64"/>
<g opacity="0.3">
<path d="M320.23 333.43V334.36H324.56V340.91H325.44V333.43H320.23Z" fill="black"/>
</g>
<path d="M336.93 349.84H331.73V357.32H336.93V349.84Z" fill="#455A64"/>
<g opacity="0.3">
<path d="M331.73 349.84V350.77H336.05V357.32H336.93V349.84H331.73Z" fill="black"/>
</g>
<path d="M344.91 349.84H339.71V357.32H344.91V349.84Z" fill="#455A64"/>
<g opacity="0.3">
<path d="M339.71 349.84V350.77H344.03V357.32H344.91V349.84H339.71Z" fill="black"/>
</g>
<path d="M352.89 349.84H347.69V357.32H352.89V349.84Z" fill="#455A64"/>
<g opacity="0.3">
<path d="M347.69 349.84V350.77H352.01V357.32H352.89V349.84H347.69Z" fill="black"/>
</g>
<path d="M360.87 349.84H355.67V357.32H360.87V349.84Z" fill="#455A64"/>
<g opacity="0.3">
<path d="M355.67 349.84V350.77H360V357.32H360.87V349.84H355.67Z" fill="black"/>
</g>
<path d="M368.85 349.84H363.65V357.32H368.85V349.84Z" fill="#455A64"/>
<g opacity="0.3">
<path d="M363.65 349.84V350.77H367.98V357.32H368.86V349.84H363.65Z" fill="black"/>
</g>
<path d="M376.83 349.84H371.63V357.32H376.83V349.84Z" fill="#455A64"/>
<g opacity="0.3">
<path d="M371.63 349.84V350.77H375.96V357.32H376.84V349.84H371.63Z" fill="black"/>
</g>
<path d="M309.47 349.84H304.27V357.32H309.47V349.84Z" fill="#455A64"/>
<g opacity="0.3">
<path d="M304.27 349.84V350.77H308.6V357.32H309.48V349.84H304.27Z" fill="black"/>
</g>
<path d="M317.45 349.84H312.25V357.32H317.45V349.84Z" fill="#455A64"/>
<g opacity="0.3">
<path d="M312.25 349.84V350.77H316.58V357.32H317.46V349.84H312.25Z" fill="black"/>
</g>
<path d="M325.43 349.84H320.23V357.32H325.43V349.84Z" fill="#455A64"/>
<g opacity="0.3">
<path d="M320.23 349.84V350.77H324.56V357.32H325.44V349.84H320.23Z" fill="black"/>
</g>
<path d="M336.93 360.56H331.73V368.04H336.93V360.56Z" fill="#455A64"/>
<g opacity="0.3">
<path d="M331.73 360.56V361.49H336.05V368.04H336.93V360.56H331.73Z" fill="black"/>
</g>
<path d="M344.91 360.56H339.71V368.04H344.91V360.56Z" fill="#455A64"/>
<g opacity="0.3">
<path d="M339.71 360.56V361.49H344.03V368.04H344.91V360.56H339.71Z" fill="black"/>
</g>
<path d="M352.89 360.56H347.69V368.04H352.89V360.56Z" fill="#455A64"/>
<g opacity="0.3">
<path d="M347.69 360.56V361.49H352.01V368.04H352.89V360.56H347.69Z" fill="black"/>
</g>
<path d="M360.87 360.56H355.67V368.04H360.87V360.56Z" fill="#455A64"/>
<g opacity="0.3">
<path d="M355.67 360.56V361.49H360V368.04H360.87V360.56H355.67Z" fill="black"/>
</g>
<path d="M368.85 360.56H363.65V368.04H368.85V360.56Z" fill="#455A64"/>
<g opacity="0.3">
<path d="M363.65 360.56V361.49H367.98V368.04H368.86V360.56H363.65Z" fill="black"/>
</g>
<path d="M376.83 360.56H371.63V368.04H376.83V360.56Z" fill="#455A64"/>
<g opacity="0.3">
<path d="M371.63 360.56V361.49H375.96V368.04H376.84V360.56H371.63Z" fill="black"/>
</g>
<path d="M309.47 360.56H304.27V368.04H309.47V360.56Z" fill="#455A64"/>
<g opacity="0.3">
<path d="M304.27 360.56V361.49H308.6V368.04H309.48V360.56H304.27Z" fill="black"/>
</g>
<path d="M317.45 360.56H312.25V368.04H317.45V360.56Z" fill="#455A64"/>
<g opacity="0.3">
<path d="M312.25 360.56V361.49H316.58V368.04H317.46V360.56H312.25Z" fill="black"/>
</g>
<path d="M325.43 360.56H320.23V368.04H325.43V360.56Z" fill="#455A64"/>
<g opacity="0.3">
<path d="M320.23 360.56V361.49H324.56V368.04H325.44V360.56H320.23Z" fill="black"/>
</g>
<path d="M336.93 371.28H331.73V378.76H336.93V371.28Z" fill="#455A64"/>
<g opacity="0.3">
<path d="M331.73 371.28V372.21H336.05V378.75H336.93V371.28H331.73Z" fill="black"/>
</g>
<path d="M344.91 371.28H339.71V378.76H344.91V371.28Z" fill="#455A64"/>
<g opacity="0.3">
<path d="M339.71 371.28V372.21H344.03V378.75H344.91V371.28H339.71Z" fill="black"/>
</g>
<path d="M352.89 371.28H347.69V378.76H352.89V371.28Z" fill="#455A64"/>
<g opacity="0.3">
<path d="M347.69 371.28V372.21H352.01V378.75H352.89V371.28H347.69Z" fill="black"/>
</g>
<path d="M360.87 371.28H355.67V378.76H360.87V371.28Z" fill="#455A64"/>
<g opacity="0.3">
<path d="M355.67 371.28V372.21H360V378.75H360.87V371.28H355.67Z" fill="black"/>
</g>
<path d="M368.85 371.28H363.65V378.76H368.85V371.28Z" fill="#455A64"/>
<g opacity="0.3">
<path d="M363.65 371.28V372.21H367.98V378.75H368.86V371.28H363.65Z" fill="black"/>
</g>
<path d="M376.83 371.28H371.63V378.76H376.83V371.28Z" fill="#455A64"/>
<g opacity="0.3">
<path d="M371.63 371.28V372.21H375.96V378.75H376.84V371.28H371.63Z" fill="black"/>
</g>
<path d="M309.47 371.28H304.27V378.76H309.47V371.28Z" fill="#455A64"/>
<g opacity="0.3">
<path d="M304.27 371.28V372.21H308.6V378.75H309.48V371.28H304.27Z" fill="black"/>
</g>
<path d="M317.45 371.28H312.25V378.76H317.45V371.28Z" fill="#455A64"/>
<g opacity="0.3">
<path d="M312.25 371.28V372.21H316.58V378.75H317.46V371.28H312.25Z" fill="black"/>
</g>
<path d="M325.43 371.28H320.23V378.76H325.43V371.28Z" fill="#455A64"/>
<g opacity="0.3">
<path d="M320.23 371.28V372.21H324.56V378.75H325.44V371.28H320.23Z" fill="black"/>
</g>
<path d="M336.93 382H331.73V389.48H336.93V382Z" fill="#455A64"/>
<g opacity="0.3">
<path d="M331.73 382V382.93H336.05V389.47H336.93V382H331.73Z" fill="black"/>
</g>
<path d="M344.91 382H339.71V389.48H344.91V382Z" fill="#455A64"/>
<g opacity="0.3">
<path d="M339.71 382V382.93H344.03V389.47H344.91V382H339.71Z" fill="black"/>
</g>
<path d="M352.89 382H347.69V389.48H352.89V382Z" fill="#455A64"/>
<g opacity="0.3">
<path d="M347.69 382V382.93H352.01V389.47H352.89V382H347.69Z" fill="black"/>
</g>
<path d="M360.87 382H355.67V389.48H360.87V382Z" fill="#455A64"/>
<g opacity="0.3">
<path d="M355.67 382V382.93H360V389.47H360.87V382H355.67Z" fill="black"/>
</g>
<path d="M368.85 382H363.65V389.48H368.85V382Z" fill="#455A64"/>
<g opacity="0.3">
<path d="M363.65 382V382.93H367.98V389.47H368.86V382H363.65Z" fill="black"/>
</g>
<path d="M376.83 382H371.63V389.48H376.83V382Z" fill="#455A64"/>
<g opacity="0.3">
<path d="M371.63 382V382.93H375.96V389.47H376.84V382H371.63Z" fill="black"/>
</g>
<path d="M309.47 382H304.27V389.48H309.47V382Z" fill="#455A64"/>
<g opacity="0.3">
<path d="M304.27 382V382.93H308.6V389.47H309.48V382H304.27Z" fill="black"/>
</g>
<path d="M317.45 382H312.25V389.48H317.45V382Z" fill="#455A64"/>
<g opacity="0.3">
<path d="M312.25 382V382.93H316.58V389.47H317.46V382H312.25Z" fill="black"/>
</g>
<path d="M325.43 382H320.23V389.48H325.43V382Z" fill="#455A64"/>
<g opacity="0.3">
<path d="M320.23 382V382.93H324.56V389.47H325.44V382H320.23Z" fill="black"/>
</g>
<path d="M336.93 392.72H331.73V400.2H336.93V392.72Z" fill="#455A64"/>
<g opacity="0.3">
<path d="M331.73 392.72V393.64H336.05V400.19H336.93V392.72H331.73Z" fill="black"/>
</g>
<path d="M344.91 392.72H339.71V400.2H344.91V392.72Z" fill="#455A64"/>
<g opacity="0.3">
<path d="M339.71 392.72V393.64H344.03V400.19H344.91V392.72H339.71Z" fill="black"/>
</g>
<path d="M352.89 392.72H347.69V400.2H352.89V392.72Z" fill="#455A64"/>
<g opacity="0.3">
<path d="M347.69 392.72V393.64H352.01V400.19H352.89V392.72H347.69Z" fill="black"/>
</g>
<path d="M360.87 392.72H355.67V400.2H360.87V392.72Z" fill="#455A64"/>
<g opacity="0.3">
<path d="M355.67 392.72V393.64H360V400.19H360.87V392.72H355.67Z" fill="black"/>
</g>
<path d="M368.85 392.72H363.65V400.2H368.85V392.72Z" fill="#455A64"/>
<g opacity="0.3">
<path d="M363.65 392.72V393.64H367.98V400.19H368.86V392.72H363.65Z" fill="black"/>
</g>
<path d="M376.83 392.72H371.63V400.2H376.83V392.72Z" fill="#455A64"/>
<g opacity="0.3">
<path d="M371.63 392.72V393.64H375.96V400.19H376.84V392.72H371.63Z" fill="black"/>
</g>
<path d="M309.47 392.72H304.27V400.2H309.47V392.72Z" fill="#455A64"/>
<g opacity="0.3">
<path d="M304.27 392.72V393.64H308.6V400.19H309.48V392.72H304.27Z" fill="black"/>
</g>
<path d="M317.45 392.72H312.25V400.2H317.45V392.72Z" fill="#455A64"/>
<g opacity="0.3">
<path d="M312.25 392.72V393.64H316.58V400.19H317.46V392.72H312.25Z" fill="black"/>
</g>
<path d="M325.43 392.72H320.23V400.2H325.43V392.72Z" fill="#455A64"/>
<g opacity="0.3">
<path d="M320.23 392.72V393.64H324.56V400.19H325.44V392.72H320.23Z" fill="black"/>
</g>
<path d="M336.93 403.44H331.73V410.92H336.93V403.44Z" fill="#455A64"/>
<g opacity="0.3">
<path d="M331.73 403.44V404.36H336.05V410.91H336.93V403.44H331.73Z" fill="black"/>
</g>
<path d="M344.91 403.44H339.71V410.92H344.91V403.44Z" fill="#455A64"/>
<g opacity="0.3">
<path d="M339.71 403.44V404.36H344.03V410.91H344.91V403.44H339.71Z" fill="black"/>
</g>
<path d="M352.89 403.44H347.69V410.92H352.89V403.44Z" fill="#455A64"/>
<g opacity="0.3">
<path d="M347.69 403.44V404.36H352.01V410.91H352.89V403.44H347.69Z" fill="black"/>
</g>
<path d="M360.87 403.44H355.67V410.92H360.87V403.44Z" fill="#455A64"/>
<g opacity="0.3">
<path d="M355.67 403.44V404.36H360V410.91H360.87V403.44H355.67Z" fill="black"/>
</g>
<path d="M368.85 403.44H363.65V410.92H368.85V403.44Z" fill="#455A64"/>
<g opacity="0.3">
<path d="M363.65 403.44V404.36H367.98V410.91H368.86V403.44H363.65Z" fill="black"/>
</g>
<path d="M376.83 403.44H371.63V410.92H376.83V403.44Z" fill="#455A64"/>
<g opacity="0.3">
<path d="M371.63 403.44V404.36H375.96V410.91H376.84V403.44H371.63Z" fill="black"/>
</g>
<path d="M309.47 403.44H304.27V410.92H309.47V403.44Z" fill="#455A64"/>
<g opacity="0.3">
<path d="M304.27 403.44V404.36H308.6V410.91H309.48V403.44H304.27Z" fill="black"/>
</g>
<path d="M317.45 403.44H312.25V410.92H317.45V403.44Z" fill="#455A64"/>
<g opacity="0.3">
<path d="M312.25 403.44V404.36H316.58V410.91H317.46V403.44H312.25Z" fill="black"/>
</g>
<path d="M325.43 403.44H320.23V410.92H325.43V403.44Z" fill="#455A64"/>
<g opacity="0.3">
<path d="M320.23 403.44V404.36H324.56V410.91H325.44V403.44H320.23Z" fill="black"/>
</g>
<path d="M336.93 417.49H331.73V424.97H336.93V417.49Z" fill="#455A64"/>
<g opacity="0.3">
<path d="M331.73 417.49V418.41H336.05V424.96H336.93V417.49H331.73Z" fill="black"/>
</g>
<path d="M344.91 417.49H339.71V424.97H344.91V417.49Z" fill="#455A64"/>
<g opacity="0.3">
<path d="M339.71 417.49V418.41H344.03V424.96H344.91V417.49H339.71Z" fill="black"/>
</g>
<path d="M352.89 417.49H347.69V424.97H352.89V417.49Z" fill="#455A64"/>
<g opacity="0.3">
<path d="M347.69 417.49V418.41H352.01V424.96H352.89V417.49H347.69Z" fill="black"/>
</g>
<path d="M360.87 417.49H355.67V424.97H360.87V417.49Z" fill="#455A64"/>
<g opacity="0.3">
<path d="M355.67 417.49V418.41H360V424.96H360.87V417.49H355.67Z" fill="black"/>
</g>
<path d="M368.85 417.49H363.65V424.97H368.85V417.49Z" fill="#455A64"/>
<g opacity="0.3">
<path d="M363.65 417.49V418.41H367.98V424.96H368.86V417.49H363.65Z" fill="black"/>
</g>
<path d="M376.83 417.49H371.63V424.97H376.83V417.49Z" fill="#455A64"/>
<g opacity="0.3">
<path d="M371.63 417.49V418.41H375.96V424.96H376.84V417.49H371.63Z" fill="black"/>
</g>
<path d="M309.47 417.49H304.27V424.97H309.47V417.49Z" fill="#455A64"/>
<g opacity="0.3">
<path d="M304.27 417.49V418.41H308.6V424.96H309.48V417.49H304.27Z" fill="black"/>
</g>
<path d="M317.45 417.49H312.25V424.97H317.45V417.49Z" fill="#455A64"/>
<g opacity="0.3">
<path d="M312.25 417.49V418.41H316.58V424.96H317.46V417.49H312.25Z" fill="black"/>
</g>
<path d="M325.43 417.49H320.23V424.97H325.43V417.49Z" fill="#455A64"/>
<g opacity="0.3">
<path d="M320.23 417.49V418.41H324.56V424.96H325.44V417.49H320.23Z" fill="black"/>
</g>
<path d="M336.93 428.21H331.73V435.69H336.93V428.21Z" fill="#455A64"/>
<g opacity="0.3">
<path d="M331.73 428.21V429.13H336.05V435.68H336.93V428.21H331.73Z" fill="black"/>
</g>
<path d="M344.91 428.21H339.71V435.69H344.91V428.21Z" fill="#455A64"/>
<g opacity="0.3">
<path d="M339.71 428.21V429.13H344.03V435.68H344.91V428.21H339.71Z" fill="black"/>
</g>
<path d="M352.89 428.21H347.69V435.69H352.89V428.21Z" fill="#455A64"/>
<g opacity="0.3">
<path d="M347.69 428.21V429.13H352.01V435.68H352.89V428.21H347.69Z" fill="black"/>
</g>
<path d="M360.87 428.21H355.67V435.69H360.87V428.21Z" fill="#455A64"/>
<g opacity="0.3">
<path d="M355.67 428.21V429.13H360V435.68H360.87V428.21H355.67Z" fill="black"/>
</g>
<path d="M368.85 428.21H363.65V435.69H368.85V428.21Z" fill="#455A64"/>
<g opacity="0.3">
<path d="M363.65 428.21V429.13H367.98V435.68H368.86V428.21H363.65Z" fill="black"/>
</g>
<path d="M376.83 428.21H371.63V435.69H376.83V428.21Z" fill="#455A64"/>
<g opacity="0.3">
<path d="M371.63 428.21V429.13H375.96V435.68H376.84V428.21H371.63Z" fill="black"/>
</g>
<path d="M309.47 428.21H304.27V435.69H309.47V428.21Z" fill="#455A64"/>
<g opacity="0.3">
<path d="M304.27 428.21V429.13H308.6V435.68H309.48V428.21H304.27Z" fill="black"/>
</g>
<path d="M317.45 428.21H312.25V435.69H317.45V428.21Z" fill="#455A64"/>
<g opacity="0.3">
<path d="M312.25 428.21V429.13H316.58V435.68H317.46V428.21H312.25Z" fill="black"/>
</g>
<path d="M325.43 428.21H320.23V435.69H325.43V428.21Z" fill="#455A64"/>
<g opacity="0.3">
<path d="M320.23 428.21V429.13H324.56V435.68H325.44V428.21H320.23Z" fill="black"/>
</g>
<path d="M336.93 438.93H331.73V446.41H336.93V438.93Z" fill="#455A64"/>
<g opacity="0.3">
<path d="M331.73 438.93V439.85H336.05V446.4H336.93V438.93H331.73Z" fill="black"/>
</g>
<path d="M344.91 438.93H339.71V446.41H344.91V438.93Z" fill="#455A64"/>
<g opacity="0.3">
<path d="M339.71 438.93V439.85H344.03V446.4H344.91V438.93H339.71Z" fill="black"/>
</g>
<path d="M352.89 438.93H347.69V446.41H352.89V438.93Z" fill="#455A64"/>
<g opacity="0.3">
<path d="M347.69 438.93V439.85H352.01V446.4H352.89V438.93H347.69Z" fill="black"/>
</g>
<path d="M360.87 438.93H355.67V446.41H360.87V438.93Z" fill="#455A64"/>
<g opacity="0.3">
<path d="M355.67 438.93V439.85H360V446.4H360.87V438.93H355.67Z" fill="black"/>
</g>
<path d="M368.85 438.93H363.65V446.41H368.85V438.93Z" fill="#455A64"/>
<g opacity="0.3">
<path d="M363.65 438.93V439.85H367.98V446.4H368.86V438.93H363.65Z" fill="black"/>
</g>
<path d="M376.83 438.93H371.63V446.41H376.83V438.93Z" fill="#455A64"/>
<g opacity="0.3">
<path d="M371.63 438.93V439.85H375.96V446.4H376.84V438.93H371.63Z" fill="black"/>
</g>
<path d="M309.47 438.93H304.27V446.41H309.47V438.93Z" fill="#455A64"/>
<g opacity="0.3">
<path d="M304.27 438.93V439.85H308.6V446.4H309.48V438.93H304.27Z" fill="black"/>
</g>
<path d="M317.45 438.93H312.25V446.41H317.45V438.93Z" fill="#455A64"/>
<g opacity="0.3">
<path d="M312.25 438.93V439.85H316.58V446.4H317.46V438.93H312.25Z" fill="black"/>
</g>
<path d="M325.43 438.93H320.23V446.41H325.43V438.93Z" fill="#455A64"/>
<g opacity="0.3">
<path d="M320.23 438.93V439.85H324.56V446.4H325.44V438.93H320.23Z" fill="black"/>
</g>
<path d="M336.93 449.64H331.73V457.12H336.93V449.64Z" fill="#455A64"/>
<g opacity="0.3">
<path d="M331.73 449.64V450.57H336.05V457.12H336.93V449.64H331.73Z" fill="black"/>
</g>
<path d="M344.91 449.64H339.71V457.12H344.91V449.64Z" fill="#455A64"/>
<g opacity="0.3">
<path d="M339.71 449.64V450.57H344.03V457.12H344.91V449.64H339.71Z" fill="black"/>
</g>
<path d="M352.89 449.64H347.69V457.12H352.89V449.64Z" fill="#455A64"/>
<g opacity="0.3">
<path d="M347.69 449.64V450.57H352.01V457.12H352.89V449.64H347.69Z" fill="black"/>
</g>
<path d="M360.87 449.64H355.67V457.12H360.87V449.64Z" fill="#455A64"/>
<g opacity="0.3">
<path d="M355.67 449.64V450.57H360V457.12H360.87V449.64H355.67Z" fill="black"/>
</g>
<path d="M368.85 449.64H363.65V457.12H368.85V449.64Z" fill="#455A64"/>
<g opacity="0.3">
<path d="M363.65 449.64V450.57H367.98V457.12H368.86V449.64H363.65Z" fill="black"/>
</g>
<path d="M376.83 449.64H371.63V457.12H376.83V449.64Z" fill="#455A64"/>
<g opacity="0.3">
<path d="M371.63 449.64V450.57H375.96V457.12H376.84V449.64H371.63Z" fill="black"/>
</g>
<path d="M309.47 449.64H304.27V457.12H309.47V449.64Z" fill="#455A64"/>
<g opacity="0.3">
<path d="M304.27 449.64V450.57H308.6V457.12H309.48V449.64H304.27Z" fill="black"/>
</g>
<path d="M317.45 449.64H312.25V457.12H317.45V449.64Z" fill="#455A64"/>
<g opacity="0.3">
<path d="M312.25 449.64V450.57H316.58V457.12H317.46V449.64H312.25Z" fill="black"/>
</g>
<path d="M325.43 449.64H320.23V457.12H325.43V449.64Z" fill="#455A64"/>
<g opacity="0.3">
<path d="M320.23 449.64V450.57H324.56V457.12H325.44V449.64H320.23Z" fill="black"/>
</g>
<path d="M336.93 460.36H331.73V467.84H336.93V460.36Z" fill="#455A64"/>
<g opacity="0.3">
<path d="M331.73 460.36V461.29H336.05V467.84H336.93V460.36H331.73Z" fill="black"/>
</g>
<path d="M344.91 460.36H339.71V467.84H344.91V460.36Z" fill="#455A64"/>
<g opacity="0.3">
<path d="M339.71 460.36V461.29H344.03V467.84H344.91V460.36H339.71Z" fill="black"/>
</g>
<path d="M352.89 460.36H347.69V467.84H352.89V460.36Z" fill="#455A64"/>
<g opacity="0.3">
<path d="M347.69 460.36V461.29H352.01V467.84H352.89V460.36H347.69Z" fill="black"/>
</g>
<path d="M360.87 460.36H355.67V467.84H360.87V460.36Z" fill="#455A64"/>
<g opacity="0.3">
<path d="M355.67 460.36V461.29H360V467.84H360.87V460.36H355.67Z" fill="black"/>
</g>
<path d="M368.85 460.36H363.65V467.84H368.85V460.36Z" fill="#455A64"/>
<g opacity="0.3">
<path d="M363.65 460.36V461.29H367.98V467.84H368.86V460.36H363.65Z" fill="black"/>
</g>
<path d="M376.83 460.36H371.63V467.84H376.83V460.36Z" fill="#455A64"/>
<g opacity="0.3">
<path d="M371.63 460.36V461.29H375.96V467.84H376.84V460.36H371.63Z" fill="black"/>
</g>
<path d="M309.47 460.36H304.27V467.84H309.47V460.36Z" fill="#455A64"/>
<g opacity="0.3">
<path d="M304.27 460.36V461.29H308.6V467.84H309.48V460.36H304.27Z" fill="black"/>
</g>
<path d="M317.45 460.36H312.25V467.84H317.45V460.36Z" fill="#455A64"/>
<g opacity="0.3">
<path d="M312.25 460.36V461.29H316.58V467.84H317.46V460.36H312.25Z" fill="black"/>
</g>
<path d="M325.43 460.36H320.23V467.84H325.43V460.36Z" fill="#455A64"/>
<g opacity="0.3">
<path d="M320.23 460.36V461.29H324.56V467.84H325.44V460.36H320.23Z" fill="black"/>
</g>
<path d="M336.93 471.08H331.73V478.56H336.93V471.08Z" fill="#455A64"/>
<g opacity="0.3">
<path d="M331.73 471.08V472.01H336.05V478.56H336.93V471.08H331.73Z" fill="black"/>
</g>
<path d="M344.91 471.08H339.71V478.56H344.91V471.08Z" fill="#455A64"/>
<g opacity="0.3">
<path d="M339.71 471.08V472.01H344.03V478.56H344.91V471.08H339.71Z" fill="black"/>
</g>
<path d="M352.89 471.08H347.69V478.56H352.89V471.08Z" fill="#455A64"/>
<g opacity="0.3">
<path d="M347.69 471.08V472.01H352.01V478.56H352.89V471.08H347.69Z" fill="black"/>
</g>
<path d="M360.87 471.08H355.67V478.56H360.87V471.08Z" fill="#455A64"/>
<g opacity="0.3">
<path d="M355.67 471.08V472.01H360V478.56H360.87V471.08H355.67Z" fill="black"/>
</g>
<path d="M368.85 471.08H363.65V478.56H368.85V471.08Z" fill="#455A64"/>
<g opacity="0.3">
<path d="M363.65 471.08V472.01H367.98V478.56H368.86V471.08H363.65Z" fill="black"/>
</g>
<path d="M376.83 471.08H371.63V478.56H376.83V471.08Z" fill="#455A64"/>
<g opacity="0.3">
<path d="M371.63 471.08V472.01H375.96V478.56H376.84V471.08H371.63Z" fill="black"/>
</g>
<path d="M309.47 471.08H304.27V478.56H309.47V471.08Z" fill="#455A64"/>
<g opacity="0.3">
<path d="M304.27 471.08V472.01H308.6V478.56H309.48V471.08H304.27Z" fill="black"/>
</g>
<path d="M317.45 471.08H312.25V478.56H317.45V471.08Z" fill="#455A64"/>
<g opacity="0.3">
<path d="M312.25 471.08V472.01H316.58V478.56H317.46V471.08H312.25Z" fill="black"/>
</g>
<path d="M325.43 471.08H320.23V478.56H325.43V471.08Z" fill="#455A64"/>
<g opacity="0.3">
<path d="M320.23 471.08V472.01H324.56V478.56H325.44V471.08H320.23Z" fill="black"/>
</g>
<g opacity="0.4">
<path d="M336.93 277.93H331.73V285.41H336.93V277.93Z" fill="white"/>
</g>
<g opacity="0.4">
<path d="M344.91 277.93H339.71V285.41H344.91V277.93Z" fill="white"/>
</g>
<g opacity="0.4">
<path d="M352.89 277.93H347.69V285.41H352.89V277.93Z" fill="white"/>
</g>
<g opacity="0.4">
<path d="M360.87 277.93H355.67V285.41H360.87V277.93Z" fill="white"/>
</g>
<g opacity="0.4">
<path d="M368.85 277.93H363.65V285.41H368.85V277.93Z" fill="white"/>
</g>
<g opacity="0.4">
<path d="M376.83 277.93H371.63V285.41H376.83V277.93Z" fill="white"/>
</g>
<g opacity="0.4">
<path d="M336.93 289.03H331.73V296.51H336.93V289.03Z" fill="white"/>
</g>
<g opacity="0.4">
<path d="M344.91 289.03H339.71V296.51H344.91V289.03Z" fill="white"/>
</g>
<g opacity="0.4">
<path d="M352.89 289.03H347.69V296.51H352.89V289.03Z" fill="white"/>
</g>
<g opacity="0.4">
<path d="M360.87 289.03H355.67V296.51H360.87V289.03Z" fill="white"/>
</g>
<g opacity="0.4">
<path d="M368.85 289.03H363.65V296.51H368.85V289.03Z" fill="white"/>
</g>
<g opacity="0.4">
<path d="M376.83 289.03H371.63V296.51H376.83V289.03Z" fill="white"/>
</g>
<g opacity="0.4">
<path d="M336.93 300.13H331.73V307.61H336.93V300.13Z" fill="white"/>
</g>
<g opacity="0.4">
<path d="M344.91 300.13H339.71V307.61H344.91V300.13Z" fill="white"/>
</g>
<g opacity="0.4">
<path d="M368.85 300.13H363.65V307.61H368.85V300.13Z" fill="white"/>
</g>
<g opacity="0.4">
<path d="M336.93 311.23H331.73V318.71H336.93V311.23Z" fill="white"/>
</g>
<g opacity="0.4">
<path d="M368.85 311.23H363.65V318.71H368.85V311.23Z" fill="white"/>
</g>
<g opacity="0.3">
<path d="M328.03 269.81H300.95V483.28H328.03V269.81Z" fill="black"/>
</g>
<path d="M286.46 483.06H331.95V358.9H286.46V483.06Z" fill="#108A37"/>
<path d="M263.24 483.06H286.47V358.9H263.24V483.06Z" fill="#108A37"/>
<path d="M302.54 370.96H293.18V383.62H302.54V370.96Z" fill="#455A64"/>
<g opacity="0.3">
<path d="M293.18 370.96V372.53H300.96V383.62H302.54V370.96H293.18Z" fill="black"/>
</g>
<path d="M303.08 383.62H293.18V386.19H303.08V383.62Z" fill="white"/>
<path d="M303.08 368.31H293.18V370.88H303.08V368.31Z" fill="white"/>
<path d="M324.1 383.62H314.2V386.19H324.1V383.62Z" fill="white"/>
<path d="M324.1 368.31H314.2V370.88H324.1V368.31Z" fill="white"/>
<path d="M323.56 370.96H314.2V383.62H323.56V370.96Z" fill="#455A64"/>
<g opacity="0.3">
<path d="M314.2 370.96V372.53H321.98V383.62H323.56V370.96H314.2Z" fill="black"/>
</g>
<path d="M302.54 394.44H293.18V407.1H302.54V394.44Z" fill="#455A64"/>
<g opacity="0.3">
<path d="M293.18 394.44V396.01H300.96V407.11H302.54V394.44H293.18Z" fill="black"/>
</g>
<path d="M303.08 407.11H293.18V409.68H303.08V407.11Z" fill="white"/>
<path d="M303.08 391.8H293.18V394.37H303.08V391.8Z" fill="white"/>
<path d="M324.1 407.11H314.2V409.68H324.1V407.11Z" fill="white"/>
<path d="M324.1 391.8H314.2V394.37H324.1V391.8Z" fill="white"/>
<path d="M323.56 394.44H314.2V407.1H323.56V394.44Z" fill="#455A64"/>
<g opacity="0.3">
<path d="M314.2 394.44V396.01H321.98V407.11H323.56V394.44H314.2Z" fill="black"/>
</g>
<path d="M302.54 418.76H293.18V431.42H302.54V418.76Z" fill="#455A64"/>
<g opacity="0.3">
<path d="M293.18 418.76V420.33H300.96V431.42H302.54V418.76H293.18Z" fill="black"/>
</g>
<path d="M303.08 431.42H293.18V433.99H303.08V431.42Z" fill="white"/>
<path d="M303.08 416.11H293.18V418.68H303.08V416.11Z" fill="white"/>
<path d="M324.1 431.42H314.2V433.99H324.1V431.42Z" fill="white"/>
<path d="M324.1 416.11H314.2V418.68H324.1V416.11Z" fill="white"/>
<path d="M323.56 418.76H314.2V431.42H323.56V418.76Z" fill="#455A64"/>
<g opacity="0.3">
<path d="M314.2 418.76V420.33H321.98V431.42H323.56V418.76H314.2Z" fill="black"/>
</g>
<path d="M302.54 442.91H293.18V455.57H302.54V442.91Z" fill="#455A64"/>
<g opacity="0.3">
<path d="M293.18 442.91V444.48H300.96V455.57H302.54V442.91H293.18Z" fill="black"/>
</g>
<path d="M303.08 455.57H293.18V458.14H303.08V455.57Z" fill="white"/>
<path d="M303.08 440.26H293.18V442.83H303.08V440.26Z" fill="white"/>
<path d="M324.1 455.57H314.2V458.14H324.1V455.57Z" fill="white"/>
<path d="M324.1 440.26H314.2V442.83H324.1V440.26Z" fill="white"/>
<path d="M323.56 442.91H314.2V455.57H323.56V442.91Z" fill="#455A64"/>
<g opacity="0.3">
<path d="M314.2 442.91V444.48H321.98V455.57H323.56V442.91H314.2Z" fill="black"/>
</g>
<path d="M280.37 370.54H277.09V383.2H280.37V370.54Z" fill="#263238"/>
<path d="M280.84 383.21H274.85V385.12H280.84V383.21Z" fill="white"/>
<path d="M271.6 370.54H268.32V383.2H271.6V370.54Z" fill="#263238"/>
<path d="M272.07 383.21H266.08V385.12H272.07V383.21Z" fill="white"/>
<path d="M280.37 394.67H277.09V407.33H280.37V394.67Z" fill="#263238"/>
<path d="M280.84 407.33H274.85V409.24H280.84V407.33Z" fill="white"/>
<path d="M271.6 394.67H268.32V407.33H271.6V394.67Z" fill="#263238"/>
<path d="M272.07 407.33H266.08V409.24H272.07V407.33Z" fill="white"/>
<path d="M280.37 418.79H277.09V431.45H280.37V418.79Z" fill="#263238"/>
<path d="M280.84 431.45H274.85V433.36H280.84V431.45Z" fill="white"/>
<path d="M271.6 418.79H268.32V431.45H271.6V418.79Z" fill="#263238"/>
<path d="M272.07 431.45H266.08V433.36H272.07V431.45Z" fill="white"/>
<path d="M302.54 463.08H293.18V483.06H302.54V463.08Z" fill="#455A64"/>
<g opacity="0.3">
<path d="M293.18 463.08V464.58H300.96V483.06H302.54V463.08H293.18Z" fill="black"/>
</g>
<path d="M323.84 463.08H314.48V483.06H323.84V463.08Z" fill="#455A64"/>
<g opacity="0.3">
<path d="M314.48 463.08V464.58H322.26V483.06H323.83V463.08H314.48Z" fill="black"/>
</g>
<path d="M280.37 442.91H277.09V455.57H280.37V442.91Z" fill="#263238"/>
<path d="M280.84 455.57H274.85V457.48H280.84V455.57Z" fill="white"/>
<path d="M271.6 442.91H268.32V455.57H271.6V442.91Z" fill="#263238"/>
<path d="M272.07 455.57H266.08V457.48H272.07V455.57Z" fill="white"/>
<path d="M280.37 464.11H277.09V476.77H280.37V464.11Z" fill="#263238"/>
<path d="M280.84 476.77H274.85V478.68H280.84V476.77Z" fill="white"/>
<path d="M271.6 464.11H268.32V476.77H271.6V464.11Z" fill="#263238"/>
<path d="M272.07 476.77H266.08V478.68H272.07V476.77Z" fill="white"/>
<g opacity="0.3">
<path d="M262.57 483.06H286.47V358.9H262.57V483.06Z" fill="black"/>
</g>
<path d="M627.96 431.24H529.16V483.5H627.96V431.24Z" fill="#108A37"/>
<path d="M630.04 431.24H527.9V436.12H630.04V431.24Z" fill="#E0E0E0"/>
<path d="M546.51 444.03H542.38V473.86H546.51V444.03Z" fill="#455A64"/>
<path d="M538.56 444.03H534.43V473.86H538.56V444.03Z" fill="#455A64"/>
<path d="M627.96 473.77H529.16V483.51H627.96V473.77Z" fill="#E0E0E0"/>
<path d="M571.62 462.21H561.78V483.5H571.62V462.21Z" fill="#455A64"/>
<path d="M567.62 445.51H561.78V453.02H567.62V445.51Z" fill="#455A64"/>
<g opacity="0.3">
<path d="M561.78 445.51V446.44H566.63V453.02H567.61V445.51H561.78Z" fill="black"/>
</g>
<path d="M584.38 445.51H578.54V453.02H584.38V445.51Z" fill="#455A64"/>
<g opacity="0.3">
<path d="M578.54 445.51V446.44H583.39V453.02H584.38V445.51H578.54Z" fill="black"/>
</g>
<path d="M602.33 445.51H596.49V453.02H602.33V445.51Z" fill="#455A64"/>
<g opacity="0.3">
<path d="M596.49 445.51V446.44H601.34V453.02H602.33V445.51H596.49Z" fill="black"/>
</g>
<path d="M620.28 445.51H614.44V453.02H620.28V445.51Z" fill="#455A64"/>
<g opacity="0.3">
<path d="M614.44 445.51V446.44H619.29V453.02H620.28V445.51H614.44Z" fill="black"/>
</g>
<path d="M584.38 458.94H578.54V466.45H584.38V458.94Z" fill="#455A64"/>
<g opacity="0.3">
<path d="M578.54 458.94V459.87H583.39V466.45H584.38V458.94H578.54Z" fill="black"/>
</g>
<path d="M602.33 458.94H596.49V466.45H602.33V458.94Z" fill="#455A64"/>
<g opacity="0.3">
<path d="M596.49 458.94V459.87H601.34V466.45H602.33V458.94H596.49Z" fill="black"/>
</g>
<path d="M620.28 458.94H614.44V466.45H620.28V458.94Z" fill="#455A64"/>
<g opacity="0.3">
<path d="M614.44 458.94V459.87H619.29V466.45H620.28V458.94H614.44Z" fill="black"/>
</g>
<g opacity="0.3">
<path d="M555.5 436.13H529.16V483.51H555.5V436.13Z" fill="black"/>
</g>
<path d="M528.96 328.72H414.51V483.28H528.96V328.72Z" fill="#108A37"/>
<path d="M448.07 339.73H439.66V351.81H448.07V339.73Z" fill="#455A64"/>
<g opacity="0.3">
<path d="M439.66 339.73V341.23H446.64V351.81H448.06V339.73H439.66Z" fill="black"/>
</g>
<path d="M463.5 339.73H455.09V351.81H463.5V339.73Z" fill="#455A64"/>
<g opacity="0.3">
<path d="M455.09 339.73V341.23H462.08V351.81H463.5V339.73H455.09Z" fill="black"/>
</g>
<path d="M478.94 339.73H470.53V351.81H478.94V339.73Z" fill="#455A64"/>
<g opacity="0.3">
<path d="M470.53 339.73V341.23H477.52V351.81H478.94V339.73H470.53Z" fill="black"/>
</g>
<path d="M494.38 339.73H485.97V351.81H494.38V339.73Z" fill="#455A64"/>
<g opacity="0.3">
<path d="M485.97 339.73V341.23H492.95V351.81H494.37V339.73H485.97Z" fill="black"/>
</g>
<path d="M509.81 339.73H501.4V351.81H509.81V339.73Z" fill="#455A64"/>
<g opacity="0.3">
<path d="M501.4 339.73V341.23H508.39V351.81H509.81V339.73H501.4Z" fill="black"/>
</g>
<path d="M525.25 339.73H516.84V351.81H525.25V339.73Z" fill="#455A64"/>
<g opacity="0.3">
<path d="M516.84 339.73V341.23H523.83V351.81H525.25V339.73H516.84Z" fill="black"/>
</g>
<path d="M448.8 369.08H440.39V381.16H448.8V369.08Z" fill="#455A64"/>
<g opacity="0.3">
<path d="M440.39 369.08V370.57H447.38V381.15H448.79V369.08H440.39Z" fill="black"/>
</g>
<path d="M464.23 369.08H455.82V381.16H464.23V369.08Z" fill="#455A64"/>
<g opacity="0.3">
<path d="M455.82 369.08V370.57H462.81V381.15H464.23V369.08H455.82Z" fill="black"/>
</g>
<path d="M479.67 369.08H471.26V381.16H479.67V369.08Z" fill="#455A64"/>
<g opacity="0.3">
<path d="M471.26 369.08V370.57H478.25V381.15H479.67V369.08H471.26Z" fill="black"/>
</g>
<path d="M495.11 369.08H486.7V381.16H495.11V369.08Z" fill="#455A64"/>
<g opacity="0.3">
<path d="M486.7 369.08V370.57H493.69V381.15H495.1V369.08H486.7Z" fill="black"/>
</g>
<path d="M510.54 369.08H502.13V381.16H510.54V369.08Z" fill="#455A64"/>
<g opacity="0.3">
<path d="M502.13 369.08V370.57H509.12V381.15H510.54V369.08H502.13Z" fill="black"/>
</g>
<path d="M525.98 369.08H517.57V381.16H525.98V369.08Z" fill="#455A64"/>
<g opacity="0.3">
<path d="M517.57 369.08V370.57H524.56V381.15H525.98V369.08H517.57Z" fill="black"/>
</g>
<path d="M447.9 398.33H439.49V410.41H447.9V398.33Z" fill="#455A64"/>
<g opacity="0.3">
<path d="M439.49 398.33V399.83H446.48V410.41H447.9V398.33H439.49Z" fill="black"/>
</g>
<path d="M463.34 398.33H454.93V410.41H463.34V398.33Z" fill="#455A64"/>
<g opacity="0.3">
<path d="M454.93 398.33V399.83H461.92V410.41H463.34V398.33H454.93Z" fill="black"/>
</g>
<path d="M478.78 398.33H470.37V410.41H478.78V398.33Z" fill="#455A64"/>
<g opacity="0.3">
<path d="M470.37 398.33V399.83H477.36V410.41H478.77V398.33H470.37Z" fill="black"/>
</g>
<path d="M494.21 398.33H485.8V410.41H494.21V398.33Z" fill="#455A64"/>
<g opacity="0.3">
<path d="M485.8 398.33V399.83H492.79V410.41H494.21V398.33H485.8Z" fill="black"/>
</g>
<path d="M509.65 398.33H501.24V410.41H509.65V398.33Z" fill="#455A64"/>
<g opacity="0.3">
<path d="M501.24 398.33V399.83H508.23V410.41H509.65V398.33H501.24Z" fill="black"/>
</g>
<path d="M525.09 398.33H516.68V410.41H525.09V398.33Z" fill="#455A64"/>
<g opacity="0.3">
<path d="M516.68 398.33V399.83H523.66V410.41H525.08V398.33H516.68Z" fill="black"/>
</g>
<path d="M448.32 427.5H439.91V439.58H448.32V427.5Z" fill="#455A64"/>
<g opacity="0.3">
<path d="M439.91 427.5V429H446.9V439.58H448.31V427.5H439.91Z" fill="black"/>
</g>
<path d="M463.76 427.5H455.35V439.58H463.76V427.5Z" fill="#455A64"/>
<g opacity="0.3">
<path d="M455.35 427.5V429H462.33V439.58H463.75V427.5H455.35Z" fill="black"/>
</g>
<path d="M479.19 427.5H470.78V439.58H479.19V427.5Z" fill="#455A64"/>
<g opacity="0.3">
<path d="M470.78 427.5V429H477.77V439.58H479.19V427.5H470.78Z" fill="black"/>
</g>
<path d="M467.28 461.03H442.41V483.27H467.28V461.03Z" fill="#455A64"/>
<g opacity="0.3">
<path d="M442.41 461.04V463.79H464.67V483.28H467.28V461.04H442.41Z" fill="black"/>
</g>
<path d="M488.07 461.03H472.59V483.27H488.07V461.03Z" fill="#455A64"/>
<g opacity="0.3">
<path d="M472.59 461.04V463.79H485.46V483.28H488.07V461.04H472.59Z" fill="black"/>
</g>
<path d="M524.18 461.03H508.7V483.27H524.18V461.03Z" fill="#455A64"/>
<g opacity="0.3">
<path d="M508.7 461.04V463.79H521.57V483.28H524.19V461.04H508.7Z" fill="black"/>
</g>
<path d="M494.63 427.5H486.22V439.58H494.63V427.5Z" fill="#455A64"/>
<g opacity="0.3">
<path d="M486.22 427.5V429H493.21V439.58H494.63V427.5H486.22Z" fill="black"/>
</g>
<path d="M510.07 427.5H501.66V439.58H510.07V427.5Z" fill="#455A64"/>
<g opacity="0.3">
<path d="M501.66 427.5V429H508.64V439.58H510.06V427.5H501.66Z" fill="black"/>
</g>
<path d="M525.5 427.5H517.09V439.58H525.5V427.5Z" fill="#455A64"/>
<g opacity="0.3">
<path d="M517.09 427.5V429H524.08V439.58H525.5V427.5H517.09Z" fill="black"/>
</g>
<path d="M528.96 326.12H414.51V331.31H528.96V326.12Z" fill="#FFBF9D"/>
<path d="M528.96 356.71H414.51V361.9H528.96V356.71Z" fill="#FFBF9D"/>
<path d="M528.96 385.97H414.51V391.16H528.96V385.97Z" fill="#FFBF9D"/>
<path d="M528.96 415.23H414.51V420.42H528.96V415.23Z" fill="#FFBF9D"/>
<path d="M528.96 445.07H414.51V450.26H528.96V445.07Z" fill="#108A37"/>
<path d="M422.48 338.79H419.42V351.33H422.48V338.79Z" fill="#263238"/>
<path d="M431.46 338.79H428.4V351.33H431.46V338.79Z" fill="#263238"/>
<path d="M422.65 366.72H419.59V379.26H422.65V366.72Z" fill="#263238"/>
<path d="M431.76 366.72H428.7V379.26H431.76V366.72Z" fill="#263238"/>
<path d="M422.59 395.98H419.53V408.52H422.59V395.98Z" fill="#263238"/>
<path d="M431.7 395.98H428.64V408.52H431.7V395.98Z" fill="#263238"/>
<path d="M422.18 425.53H419.12V438.07H422.18V425.53Z" fill="#263238"/>
<path d="M430.58 425.53H427.52V438.07H430.58V425.53Z" fill="#263238"/>
<path d="M422.18 461.1H419.12V483.28H422.18V461.1Z" fill="#263238"/>
<path d="M430.58 461.1H427.52V483.28H430.58V461.1Z" fill="#263238"/>
<path d="M528.96 446.67H414.51V451.86H528.96V446.67Z" fill="#FFBF9D"/>
<g opacity="0.3">
<path d="M434.54 326.12H414.51V483.28H434.54V326.12Z" fill="black"/>
</g>
<g opacity="0.3">
<path d="M528.97 420.42H434.55V422.61H528.97V420.42Z" fill="black"/>
</g>
<g opacity="0.3">
<path d="M528.97 451.93H434.55V454.12H528.97V451.93Z" fill="black"/>
</g>
<g opacity="0.3">
<path d="M528.97 391.43H434.55V393.62H528.97V391.43Z" fill="black"/>
</g>
<g opacity="0.3">
<path d="M528.97 361.9H434.55V364.09H528.97V361.9Z" fill="black"/>
</g>
<g opacity="0.3">
<path d="M528.97 331.31H434.55V333.5H528.97V331.31Z" fill="black"/>
</g>
<g opacity="0.3">
<path d="M504.81 462.32H493.18V483.28H504.81V462.32Z" fill="black"/>
</g>
<path d="M466.62 313.93H443.7V326.12H466.62V313.93Z" fill="#FFBF9D"/>
<g opacity="0.3">
<path d="M450.97 313.93H443.7V326.12H450.97V313.93Z" fill="black"/>
</g>
<path d="M448.4 439.36C445.551 439.707 442.67 439.707 439.82 439.36C442.67 439.013 445.551 439.013 448.4 439.36Z" fill="white"/>
<path d="M463.68 439.36C460.831 439.707 457.95 439.707 455.1 439.36C457.95 439.013 460.831 439.013 463.68 439.36Z" fill="white"/>
<path d="M479 439.36C476.154 439.707 473.276 439.707 470.43 439.36C473.276 439.013 476.154 439.013 479 439.36Z" fill="white"/>
<path d="M494.71 439.36C491.86 439.707 488.979 439.707 486.13 439.36C488.979 439.013 491.86 439.013 494.71 439.36Z" fill="white"/>
<path d="M510.22 439.36C507.371 439.707 504.49 439.707 501.64 439.36C504.49 439.013 507.371 439.013 510.22 439.36Z" fill="white"/>
<path d="M525.73 439.36C522.88 439.707 520 439.707 517.15 439.36C520 439.013 522.88 439.013 525.73 439.36Z" fill="white"/>
<path d="M448.4 410.22C445.551 410.567 442.67 410.567 439.82 410.22C442.67 409.873 445.551 409.873 448.4 410.22Z" fill="white"/>
<path d="M463.68 410.22C460.831 410.567 457.95 410.567 455.1 410.22C457.95 409.873 460.831 409.873 463.68 410.22Z" fill="white"/>
<path d="M479 410.22C476.154 410.567 473.276 410.567 470.43 410.22C473.276 409.873 476.154 409.873 479 410.22Z" fill="white"/>
<path d="M494.71 410.22C491.86 410.567 488.979 410.567 486.13 410.22C488.979 409.873 491.86 409.873 494.71 410.22Z" fill="white"/>
<path d="M510.22 410.22C507.371 410.567 504.49 410.567 501.64 410.22C504.49 409.873 507.371 409.873 510.22 410.22Z" fill="white"/>
<path d="M525.73 410.22C522.88 410.567 520 410.567 517.15 410.22C520 409.873 522.88 409.873 525.73 410.22Z" fill="white"/>
<path d="M448.4 381.15C445.551 381.497 442.67 381.497 439.82 381.15C442.67 380.803 445.551 380.803 448.4 381.15Z" fill="white"/>
<path d="M463.68 381.15C460.831 381.497 457.95 381.497 455.1 381.15C457.95 380.803 460.831 380.803 463.68 381.15Z" fill="white"/>
<path d="M479 381.15C476.154 381.497 473.276 381.497 470.43 381.15C473.276 380.803 476.154 380.803 479 381.15Z" fill="white"/>
<path d="M494.71 381.15C491.86 381.497 488.979 381.497 486.13 381.15C488.979 380.803 491.86 380.803 494.71 381.15Z" fill="white"/>
<path d="M510.22 381.15C507.371 381.497 504.49 381.497 501.64 381.15C504.49 380.803 507.371 380.803 510.22 381.15Z" fill="white"/>
<path d="M525.73 381.15C522.88 381.497 520 381.497 517.15 381.15C520 380.803 522.88 380.803 525.73 381.15Z" fill="white"/>
<path d="M448.4 351.81C445.551 352.157 442.67 352.157 439.82 351.81C442.67 351.463 445.551 351.463 448.4 351.81Z" fill="white"/>
<path d="M463.68 351.81C460.831 352.157 457.95 352.157 455.1 351.81C457.95 351.463 460.831 351.463 463.68 351.81Z" fill="white"/>
<path d="M479 351.81C476.154 352.157 473.276 352.157 470.43 351.81C473.276 351.463 476.154 351.463 479 351.81Z" fill="white"/>
<path d="M494.71 351.81C491.86 352.157 488.979 352.157 486.13 351.81C488.979 351.463 491.86 351.463 494.71 351.81Z" fill="white"/>
<path d="M510.22 351.81C507.371 352.157 504.49 352.157 501.64 351.81C504.49 351.463 507.371 351.463 510.22 351.81Z" fill="white"/>
<path d="M525.73 351.81C522.88 352.157 520 352.157 517.15 351.81C520 351.463 522.88 351.463 525.73 351.81Z" fill="white"/>
<path d="M414.37 378.03H338.35V483.16H414.37V378.03Z" fill="#FF9A6C"/>
<path d="M378.89 446.15H370.16V458.69H378.89V446.15Z" fill="white"/>
<g opacity="0.3">
<path d="M370.16 446.15V447.71H377.42V458.69H378.89V446.15H370.16Z" fill="black"/>
</g>
<path d="M381.44 458.69H370.16V460.17H381.44V458.69Z" fill="white"/>
<path d="M378.89 465.95H370.16V478.49H378.89V465.95Z" fill="white"/>
<g opacity="0.3">
<path d="M370.16 465.95V467.5H377.42V478.49H378.89V465.95H370.16Z" fill="black"/>
</g>
<path d="M381.44 478.49H370.16V479.97H381.44V478.49Z" fill="white"/>
<path d="M378.73 428.61H370V441.15H378.73V428.61Z" fill="white"/>
<g opacity="0.3">
<path d="M370 428.61V430.17H377.25V441.15H378.73V428.61H370Z" fill="black"/>
</g>
<path d="M381.28 441.15H370V442.63H381.28V441.15Z" fill="white"/>
<path d="M378.57 411.07H369.84V423.61H378.57V411.07Z" fill="white"/>
<g opacity="0.3">
<path d="M369.84 411.07V412.63H377.09V423.61H378.56V411.07H369.84Z" fill="black"/>
</g>
<path d="M381.12 423.61H369.84V425.09H381.12V423.61Z" fill="white"/>
<path d="M378.4 393.53H369.67V406.07H378.4V393.53Z" fill="white"/>
<g opacity="0.3">
<path d="M369.67 393.53V395.09H376.93V406.07H378.4V393.53H369.67Z" fill="black"/>
</g>
<path d="M380.95 406.07H369.67V407.55H380.95V406.07Z" fill="white"/>
<path d="M401.44 446.15H392.71V458.69H401.44V446.15Z" fill="white"/>
<g opacity="0.3">
<path d="M392.71 446.15V447.71H399.97V458.69H401.44V446.15H392.71Z" fill="black"/>
</g>
<path d="M403.99 458.69H392.71V460.17H403.99V458.69Z" fill="white"/>
<path d="M401.28 428.61H392.55V441.15H401.28V428.61Z" fill="white"/>
<g opacity="0.3">
<path d="M392.55 428.61V430.17H399.81V441.15H401.28V428.61H392.55Z" fill="black"/>
</g>
<path d="M403.83 441.15H392.55V442.63H403.83V441.15Z" fill="white"/>
<path d="M401.12 411.07H392.39V423.61H401.12V411.07Z" fill="white"/>
<g opacity="0.3">
<path d="M392.39 411.07V412.63H399.64V423.61H401.12V411.07H392.39Z" fill="black"/>
</g>
<path d="M403.67 423.61H392.39V425.09H403.67V423.61Z" fill="white"/>
<path d="M400.95 393.53H392.22V406.07H400.95V393.53Z" fill="white"/>
<g opacity="0.3">
<path d="M392.22 393.53V395.09H399.48V406.07H400.95V393.53H392.22Z" fill="black"/>
</g>
<path d="M403.5 406.07H392.22V407.55H403.5V406.07Z" fill="white"/>
<path d="M347.83 392.58H344.77V405.12H347.83V392.58Z" fill="#263238"/>
<path d="M348.26 405.12H342.68V407.01H348.26V405.12Z" fill="white"/>
<path d="M347.83 411.82H344.77V424.36H347.83V411.82Z" fill="#263238"/>
<path d="M348.26 424.36H342.68V426.25H348.26V424.36Z" fill="white"/>
<path d="M347.83 431.06H344.77V443.6H347.83V431.06Z" fill="#263238"/>
<path d="M348.26 443.6H342.68V445.49H348.26V443.6Z" fill="white"/>
<path d="M347.83 450.3H344.77V462.84H347.83V450.3Z" fill="#263238"/>
<path d="M348.26 462.84H342.68V464.73H348.26V462.84Z" fill="white"/>
<path d="M347.83 467.73H344.77V480.27H347.83V467.73Z" fill="#263238"/>
<path d="M348.26 480.27H342.68V482.16H348.26V480.27Z" fill="white"/>
<path d="M416.38 372.75H336.94V378.03H416.38V372.75Z" fill="#EBEBEB"/>
<path d="M414.31 380.27H338.24V381.83H414.31V380.27Z" fill="#E0E0E0"/>
<path d="M403.89 463.78H391.83V483.15H403.89V463.78Z" fill="#E0E0E0"/>
<path d="M402.84 464.73H392.81V483.28H402.84V464.73Z" fill="#263238"/>
<g opacity="0.3">
<path d="M356.57 378.03H338.35V483.28H356.57V378.03Z" fill="black"/>
</g>
<g opacity="0.3">
<path d="M351.4 372.75H336.94V378.03H351.4V372.75Z" fill="black"/>
</g>
<path d="M260.13 339.32H146.34V483.28H260.13V339.32Z" fill="#FFBF9D"/>
<path d="M261.59 336.88H144.6V341.75H261.59V336.88Z" fill="#FF9A6C"/>
<path d="M260.13 350.07H146.34V354.08H260.13V350.07Z" fill="#FF9A6C"/>
<path d="M260.13 344.91H146.34V346.92H260.13V344.91Z" fill="#FF9A6C"/>
<path d="M250.69 353.46H224.31V457.02H250.69V353.46Z" fill="#FF9A6C"/>
<path d="M197.05 353.46H170.67V457.02H197.05V353.46Z" fill="#FF9A6C"/>
<path d="M261.58 457.02H146.34V461.03H261.58V457.02Z" fill="#FF9A6C"/>
<path d="M219.15 463.04H199.08V483.11H219.15V463.04Z" fill="#FF9A6C"/>
<path d="M236.07 464.48H227.34V477.02H236.07V464.48Z" fill="white"/>
<g opacity="0.3">
<path d="M227.34 464.48V466.04H234.59V477.02H236.06V464.48H227.34Z" fill="black"/>
</g>
<path d="M238.62 477.02H227.34V478.5H238.62V477.02Z" fill="white"/>
<path d="M255.67 464.48H246.94V477.02H255.67V464.48Z" fill="white"/>
<g opacity="0.3">
<path d="M246.94 464.48V466.04H254.2V477.02H255.67V464.48H246.94Z" fill="black"/>
</g>
<path d="M258.22 477.02H246.94V478.5H258.22V477.02Z" fill="white"/>
<path d="M161.38 464.48H152.65V477.02H161.38V464.48Z" fill="white"/>
<g opacity="0.3">
<path d="M152.66 464.48V466.04H159.91V477.02H161.38V464.48H152.66Z" fill="black"/>
</g>
<path d="M163.93 477.02H152.65V478.5H163.93V477.02Z" fill="white"/>
<path d="M188.41 465.5H179.68V478.04H188.41V465.5Z" fill="white"/>
<g opacity="0.3">
<path d="M179.68 465.5V467.05H186.93V478.04H188.41V465.5H179.68Z" fill="black"/>
</g>
<path d="M190.96 478.04H179.68V479.52H190.96V478.04Z" fill="white"/>
<path d="M215.04 437.48H206.31V450.02H215.04V437.48Z" fill="white"/>
<g opacity="0.3">
<path d="M206.31 437.48V439.03H213.57V450.02H215.04V437.48H206.31Z" fill="black"/>
</g>
<path d="M215.04 412.62H206.31V425.16H215.04V412.62Z" fill="white"/>
<g opacity="0.3">
<path d="M206.31 412.62V414.17H213.57V425.16H215.04V412.62H206.31Z" fill="black"/>
</g>
<path d="M215.04 387.76H206.31V400.3H215.04V387.76Z" fill="white"/>
<g opacity="0.3">
<path d="M206.31 387.76V389.31H213.57V400.3H215.04V387.76H206.31Z" fill="black"/>
</g>
<path d="M215.04 362.9H206.31V375.44H215.04V362.9Z" fill="white"/>
<g opacity="0.3">
<path d="M215.04 362.9H206.31V375.44H215.04V362.9Z" fill="white"/>
</g>
<g opacity="0.3">
<path d="M206.31 362.9V364.45H213.57V375.44H215.04V362.9H206.31Z" fill="black"/>
</g>
<path d="M188.22 437.71H179.49V450.25H188.22V437.71Z" fill="white"/>
<g opacity="0.3">
<path d="M179.49 437.71V439.26H186.75V450.25H188.22V437.71H179.49Z" fill="black"/>
</g>
<path d="M188.22 412.85H179.49V425.39H188.22V412.85Z" fill="white"/>
<g opacity="0.3">
<path d="M179.49 412.85V414.41H186.75V425.39H188.22V412.85H179.49Z" fill="black"/>
</g>
<path d="M188.22 387.99H179.49V400.53H188.22V387.99Z" fill="white"/>
<g opacity="0.3">
<path d="M188.22 387.99H179.49V400.53H188.22V387.99Z" fill="white"/>
</g>
<g opacity="0.3">
<path d="M179.49 387.99V389.55H186.75V400.53H188.22V387.99H179.49Z" fill="black"/>
</g>
<path d="M188.22 363.13H179.49V375.67H188.22V363.13Z" fill="white"/>
<g opacity="0.3">
<path d="M188.22 363.13H179.49V375.67H188.22V363.13Z" fill="white"/>
</g>
<g opacity="0.3">
<path d="M179.49 363.13V364.69H186.75V375.68H188.22V363.13H179.49Z" fill="black"/>
</g>
<path d="M242.98 437.7H234.25V450.24H242.98V437.7Z" fill="white"/>
<g opacity="0.3">
<path d="M234.25 437.7V439.25H241.5V450.24H242.98V437.7H234.25Z" fill="black"/>
</g>
<path d="M242.98 412.84H234.25V425.38H242.98V412.84Z" fill="white"/>
<g opacity="0.3">
<path d="M234.25 412.84V414.4H241.5V425.38H242.98V412.84H234.25Z" fill="black"/>
</g>
<path d="M242.98 387.98H234.25V400.52H242.98V387.98Z" fill="white"/>
<g opacity="0.3">
<path d="M242.98 387.98H234.25V400.52H242.98V387.98Z" fill="white"/>
</g>
<g opacity="0.3">
<path d="M234.25 387.98V389.54H241.5V400.52H242.98V387.98H234.25Z" fill="black"/>
</g>
<path d="M242.98 363.12H234.25V375.66H242.98V363.12Z" fill="white"/>
<g opacity="0.3">
<path d="M242.98 363.12H234.25V375.66H242.98V363.12Z" fill="white"/>
</g>
<g opacity="0.3">
<path d="M234.25 363.12V364.68H241.5V375.67H242.98V363.12H234.25Z" fill="black"/>
</g>
<path d="M156.55 363.86H153.49V376.4H156.55V363.86Z" fill="#263238"/>
<path d="M156.98 376.41H151.4V378.3H156.98V376.41Z" fill="white"/>
<path d="M156.55 387.76H153.49V400.3H156.55V387.76Z" fill="#263238"/>
<path d="M156.98 400.3H151.4V402.19H156.98V400.3Z" fill="white"/>
<path d="M156.55 411.65H153.49V424.19H156.55V411.65Z" fill="#263238"/>
<path d="M156.98 424.19H151.4V426.08H156.98V424.19Z" fill="white"/>
<path d="M156.55 435.54H153.49V448.08H156.55V435.54Z" fill="#263238"/>
<path d="M156.98 448.08H151.4V449.97H156.98V448.08Z" fill="white"/>
<g opacity="0.3">
<path d="M167.08 341.75H146.34V483.27H167.08V341.75Z" fill="black"/>
</g>
<path d="M217.22 465H201.31V483.11H217.22V465Z" fill="#263238"/>
<g opacity="0.3">
<path d="M163.7 336.88H144.6V341.75H163.7V336.88Z" fill="black"/>
</g>
<path d="M188 376C186.585 376.256 185.145 376.344 183.71 376.26C182.275 376.344 180.835 376.256 179.42 376C180.834 375.738 182.275 375.65 183.71 375.74C185.145 375.65 186.586 375.738 188 376Z" fill="white"/>
<path d="M215.21 375.67C213.797 375.939 212.356 376.03 210.92 375.94C209.484 376.03 208.043 375.939 206.63 375.67C208.045 375.414 209.485 375.326 210.92 375.41C212.355 375.326 213.795 375.414 215.21 375.67Z" fill="white"/>
<path d="M243.14 375.9C240.294 376.247 237.416 376.247 234.57 375.9C237.416 375.553 240.294 375.553 243.14 375.9Z" fill="white"/>
<path d="M243.14 400.76C240.294 401.107 237.416 401.107 234.57 400.76C237.416 400.413 240.294 400.413 243.14 400.76Z" fill="white"/>
<path d="M214.67 400.3C213.255 400.556 211.815 400.644 210.38 400.56C208.945 400.644 207.505 400.556 206.09 400.3C207.504 400.038 208.945 399.95 210.38 400.04C211.815 399.95 213.256 400.038 214.67 400.3Z" fill="white"/>
<path d="M214.67 425.14C213.255 425.396 211.815 425.484 210.38 425.4C208.945 425.484 207.505 425.396 206.09 425.14C207.504 424.878 208.945 424.79 210.38 424.88C211.815 424.79 213.256 424.878 214.67 425.14Z" fill="white"/>
<path d="M243.26 425.38C240.414 425.727 237.536 425.727 234.69 425.38C237.536 425.033 240.414 425.033 243.26 425.38Z" fill="white"/>
<path d="M187.41 425.12C185.996 425.382 184.555 425.47 183.12 425.38C181.688 425.469 180.251 425.382 178.84 425.12C180.251 424.864 181.688 424.777 183.12 424.86C184.555 424.776 185.995 424.864 187.41 425.12Z" fill="white"/>
<path d="M188.23 450.25C186.815 450.506 185.375 450.594 183.94 450.51C182.505 450.594 181.065 450.506 179.65 450.25C181.065 449.994 182.505 449.906 183.94 449.99C185.375 449.906 186.815 449.994 188.23 450.25Z" fill="white"/>
<path d="M214.72 450C213.309 450.262 211.872 450.349 210.44 450.26C209.005 450.35 207.564 450.262 206.15 450C207.565 449.744 209.005 449.656 210.44 449.74C211.872 449.657 213.309 449.744 214.72 450Z" fill="white"/>
<path d="M242.8 450.25C239.951 450.597 237.069 450.597 234.22 450.25C237.069 449.903 239.951 449.903 242.8 450.25Z" fill="white"/>
<path d="M188 400.53C186.586 400.792 185.145 400.88 183.71 400.79C182.275 400.88 180.834 400.792 179.42 400.53C180.835 400.274 182.275 400.186 183.71 400.27C185.145 400.186 186.585 400.274 188 400.53Z" fill="white"/>
<path d="M125.34 466.55C124.878 464.156 124.188 461.812 123.28 459.55C122.651 458.336 121.713 457.31 120.562 456.573C119.41 455.835 118.086 455.414 116.72 455.35H116.37H116.01C114.644 455.412 113.318 455.833 112.167 456.57C111.015 457.307 110.078 458.335 109.45 459.55C108.538 461.811 107.848 464.155 107.39 466.55C106.473 469.464 105.978 472.495 105.92 475.55C105.896 476.986 106.178 478.411 106.747 479.73C107.316 481.049 108.159 482.232 109.22 483.2C111.04 484.77 113.68 485.14 116.37 485.09C119.27 485.03 121.69 484.77 123.52 483.2C124.577 482.229 125.417 481.045 125.986 479.727C126.554 478.409 126.839 476.985 126.82 475.55C126.75 472.496 126.251 469.466 125.34 466.55Z" fill="white"/>
<path d="M346.27 466.55C345.812 464.155 345.122 461.811 344.21 459.55C343.582 458.335 342.645 457.307 341.493 456.57C340.342 455.833 339.016 455.412 337.65 455.35H337.29H336.93C335.564 455.414 334.24 455.835 333.088 456.573C331.937 457.31 330.999 458.336 330.37 459.55C329.462 461.812 328.772 464.156 328.31 466.55C327.402 469.467 326.907 472.496 326.84 475.55C326.821 476.985 327.106 478.409 327.674 479.727C328.243 481.045 329.083 482.229 330.14 483.2C331.97 484.77 334.61 485.14 337.29 485.09C340.19 485.03 342.61 484.77 344.44 483.2C345.499 482.23 346.341 481.047 346.909 479.728C347.478 478.41 347.761 476.986 347.74 475.55C347.682 472.495 347.187 469.464 346.27 466.55Z" fill="white"/>
<path d="M143.91 450.94C141.37 451.2 137.55 470.13 135.99 478.45C135.783 479.6 136.008 480.785 136.623 481.779C137.238 482.772 138.199 483.503 139.32 483.83C142.747 484.962 146.432 485.053 149.91 484.09C151.056 483.755 152.031 482.995 152.635 481.966C153.24 480.936 153.427 479.714 153.16 478.55C151.28 470.39 146.44 450.68 143.91 450.94Z" fill="white"/>
<path d="M155.72 466.44C154.35 466.58 152.28 476.83 151.44 481.33C151.328 481.952 151.45 482.593 151.782 483.13C152.115 483.667 152.634 484.062 153.24 484.24C155.095 484.849 157.088 484.898 158.97 484.38C159.591 484.2 160.12 483.788 160.447 483.23C160.775 482.672 160.876 482.01 160.73 481.38C159.71 477 157.09 466.3 155.72 466.44Z" fill="white"/>
<path d="M413.82 450.24C411.29 450.49 407.47 469.43 405.91 477.75C405.7 478.9 405.925 480.087 406.54 481.081C407.155 482.074 408.117 482.805 409.24 483.13C412.663 484.263 416.345 484.353 419.82 483.39C420.967 483.055 421.943 482.296 422.548 481.266C423.154 480.237 423.344 479.015 423.08 477.85C421.19 469.69 416.35 450 413.82 450.24Z" fill="white"/>
<path d="M425 465.62C423.63 465.76 421.56 476.01 420.72 480.51C420.608 481.132 420.73 481.773 421.062 482.31C421.395 482.847 421.914 483.242 422.52 483.42C424.374 484.035 426.369 484.084 428.25 483.56C428.871 483.38 429.4 482.968 429.727 482.41C430.055 481.852 430.156 481.19 430.01 480.56C429 476.15 426.34 465.48 425 465.62Z" fill="white"/>
<path d="M533.15 453.79C530.62 454.03 526.8 471.7 525.24 479.45C525.058 480.55 525.301 481.679 525.919 482.607C526.537 483.535 527.485 484.194 528.57 484.45C532.006 485.509 535.668 485.596 539.15 484.7C540.263 484.438 541.228 483.749 541.838 482.782C542.447 481.815 542.653 480.647 542.41 479.53C540.52 471.94 535.69 453.55 533.15 453.79Z" fill="white"/>
<path d="M617.26 465.81C615.89 465.94 613.83 476.19 612.98 480.69C612.866 481.313 612.989 481.956 613.323 482.494C613.658 483.032 614.181 483.426 614.79 483.6C616.639 484.217 618.631 484.269 620.51 483.75C621.13 483.568 621.657 483.156 621.984 482.599C622.311 482.041 622.413 481.38 622.27 480.75C621.25 476.33 618.64 465.67 617.26 465.81Z" fill="white"/>
<path d="M628.23 450.26C625.7 450.51 621.87 469.45 620.31 477.77C620.103 478.921 620.33 480.108 620.947 481.101C621.564 482.095 622.527 482.825 623.65 483.15C627.073 484.283 630.755 484.373 634.23 483.41C635.377 483.075 636.353 482.316 636.958 481.286C637.564 480.257 637.754 479.035 637.49 477.87C635.6 469.71 630.76 450 628.23 450.26Z" fill="white"/>
<path d="M639.76 465.75C638.39 465.89 636.32 476.14 635.48 480.64C635.366 481.262 635.487 481.904 635.819 482.442C636.152 482.979 636.673 483.374 637.28 483.55C639.135 484.159 641.128 484.208 643.01 483.69C643.63 483.508 644.157 483.096 644.484 482.539C644.811 481.981 644.913 481.32 644.77 480.69C643.75 476.28 641.13 465.61 639.76 465.75Z" fill="white"/>
<path d="M134.87 468.91C133.71 469.03 131.96 477.69 131.25 481.5C131.152 482.026 131.254 482.569 131.535 483.024C131.816 483.479 132.256 483.812 132.77 483.96C134.336 484.478 136.02 484.52 137.61 484.08C138.135 483.926 138.581 483.577 138.858 483.105C139.135 482.633 139.221 482.073 139.1 481.54C138.24 477.81 136 468.79 134.87 468.91Z" fill="white"/>
<path d="M65.27 450.94C62.74 451.2 58.91 470.13 57.35 478.45C57.1432 479.601 57.37 480.788 57.9869 481.781C58.6037 482.775 59.5667 483.505 60.69 483.83C64.1131 484.963 67.7954 485.053 71.27 484.09C72.4167 483.755 73.3925 482.996 73.9984 481.966C74.6042 480.937 74.7943 479.715 74.53 478.55C72.64 470.39 67.8 450.68 65.27 450.94Z" fill="white"/>
<path d="M77.08 466.44C75.71 466.58 73.65 476.83 72.8 481.33C72.6882 481.952 72.8101 482.593 73.1424 483.13C73.4747 483.667 73.9938 484.062 74.6 484.24C76.4546 484.849 78.4478 484.898 80.33 484.38C80.9513 484.2 81.4799 483.788 81.8073 483.23C82.1346 482.672 82.2358 482.01 82.09 481.38C81.07 477 78.46 466.3 77.08 466.44Z" fill="white"/>
<path d="M56.23 468.91C55.07 469.03 53.32 477.69 52.61 481.5C52.5011 482.032 52.5972 482.585 52.8792 483.048C53.1611 483.512 53.6079 483.852 54.13 484C55.6994 484.518 57.3869 484.56 58.98 484.12C59.5036 483.964 59.9484 483.615 60.2249 483.143C60.5014 482.672 60.589 482.113 60.47 481.58C59.6 477.81 57.39 468.79 56.23 468.91Z" fill="white"/>
<path d="M194.88 466.6C193.53 466.74 191.5 476.81 190.67 481.23C190.563 481.841 190.685 482.469 191.011 482.997C191.337 483.524 191.846 483.913 192.44 484.09C194.262 484.692 196.222 484.737 198.07 484.22C198.68 484.044 199.199 483.642 199.521 483.095C199.843 482.548 199.943 481.898 199.8 481.28C198.8 476.94 196.23 466.46 194.88 466.6Z" fill="white"/>
<path d="M223.49 466.42C222.11 466.56 220.04 476.83 219.19 481.34C219.078 481.964 219.201 482.608 219.535 483.147C219.87 483.686 220.391 484.082 221 484.26C222.857 484.874 224.855 484.923 226.74 484.4C227.36 484.218 227.888 483.806 228.217 483.249C228.546 482.692 228.65 482.031 228.51 481.4C227.48 477 224.86 466.28 223.49 466.42Z" fill="white"/>
</svg>
