<svg width="509" height="441" viewBox="0 0 509 441" fill="none" xmlns="http://www.w3.org/2000/svg">
<g clip-path="url(#clip0_1_2)">
<path d="M395.83 192.86C395.83 192.86 395.83 192.77 395.83 192.62V191.96C395.83 191.36 395.83 190.51 395.83 189.43C395.83 187.21 395.83 184.01 395.75 179.99L395.9 180.14L347.25 180.23C347.36 180.12 347 180.48 347.5 179.99V186.51C347.5 188.65 347.5 190.77 347.5 192.84L347.26 192.59L381.93 192.7L392.16 192.77H394.93H395.65C395.736 192.762 395.824 192.762 395.91 192.77H395.69H394.99H392.28L382 193L347.16 193.11H346.92V192.87C346.92 190.8 346.92 188.68 346.92 186.54V180L347.17 179.75L395.82 179.84H396V180C396 184.06 395.94 187.29 395.92 189.53C395.92 190.6 395.92 191.43 395.92 192.03C395.92 192.29 395.92 192.5 395.92 192.66C395.899 192.73 395.868 192.798 395.83 192.86Z" fill="#E0E0E0"/>
<path d="M489.41 58.24C489.401 58.1636 489.401 58.0864 489.41 58.01C489.41 57.84 489.41 57.62 489.41 57.35C489.41 56.74 489.41 55.9 489.41 54.81C489.41 52.59 489.36 49.4 489.33 45.37L489.48 45.52L440.83 45.62C440.94 45.51 440.58 45.87 441.07 45.37V58.24L440.82 58L475.49 58.11L485.73 58.18H488.5H489.22H489.48C489.404 58.1894 489.326 58.1894 489.25 58.18H488.56H485.84L475.66 58.25L440.82 58.36H440.58V45.39C441.07 44.9 440.71 45.25 440.83 45.14L489.48 45.24H489.63V45.39C489.63 49.46 489.56 52.68 489.54 54.92C489.54 55.99 489.54 56.83 489.54 57.42C489.54 57.68 489.54 57.89 489.54 58.06C489.502 58.1238 489.459 58.1841 489.41 58.24Z" fill="#E0E0E0"/>
<path d="M216.55 395.62L205.55 400.35L206.29 335.1C206.63 327.29 203.04 323.96 201.09 321.74C183.38 301.6 156.97 316.21 156.74 336.62L156.08 394.93L145.37 394.81L146.43 333.81C146.51 326.94 151.85 315.02 157.24 310.75C187.04 287.14 217.53 311.53 217.24 337.33L216.55 395.62Z" fill="#F5F5F5"/>
<path d="M216.55 395.62V394.45C216.55 393.68 216.55 392.55 216.55 391.07C216.55 388.07 216.61 383.72 216.65 378.07C216.69 372.42 216.76 365.57 216.83 357.58C216.87 353.58 216.91 349.323 216.95 344.81C216.95 340.29 217.36 335.48 216.43 330.54C215.499 325.367 213.403 320.473 210.3 316.23C209.89 315.68 209.5 315.12 209.07 314.58C208.64 314.04 208.15 313.58 207.69 313.03C206.75 311.987 205.748 311.002 204.69 310.08C204.18 309.59 203.58 309.2 203.02 308.75C202.46 308.3 201.91 307.84 201.28 307.48C200.068 306.672 198.806 305.944 197.5 305.3C194.828 303.956 192 302.948 189.08 302.3L186.82 301.93L185.69 301.74L184.54 301.67L182.22 301.52C181.44 301.52 180.66 301.57 179.88 301.6C173.415 301.894 167.158 303.97 161.8 307.6C156.162 311.417 151.742 316.778 149.07 323.04C147.728 326.271 146.846 329.674 146.45 333.15C146.15 336.65 146.23 340.26 146.16 343.87C146 358.34 145.83 373.32 145.66 388.67C145.66 390.717 145.637 392.757 145.59 394.79L145.34 394.53L156.05 394.65L155.8 394.9C155.927 383.3 156.057 371.967 156.19 360.9C156.25 355.393 156.313 349.963 156.38 344.61C156.38 341.943 156.41 339.293 156.47 336.66C156.527 334.031 156.965 331.424 157.77 328.92C159.411 324.048 162.503 319.795 166.63 316.73C167.119 316.344 167.63 315.987 168.16 315.66L169.76 314.66C170.846 314.085 171.972 313.59 173.13 313.18C174.275 312.763 175.448 312.429 176.64 312.18C177.23 312.05 177.83 312 178.42 311.9L179.31 311.78H180.21C182.559 311.65 184.915 311.848 187.21 312.37C189.447 312.907 191.604 313.73 193.63 314.82C199.394 318.02 203.695 323.328 205.63 329.63C206.195 331.584 206.531 333.598 206.63 335.63C206.63 336.13 206.63 336.63 206.68 337.12C206.73 337.61 206.68 338.12 206.68 338.59C206.68 339.59 206.68 340.53 206.68 341.49C206.68 343.4 206.68 345.28 206.61 347.12C206.51 354.48 206.43 361.24 206.35 367.34C206.18 379.53 206.05 389.07 205.96 395.41L205.89 395.34L213.97 395.47H215.97H216.62H214L205.88 395.42H205.81V395.35C205.81 389.01 205.95 379.47 206.06 367.28C206.12 361.18 206.19 354.41 206.26 347.05C206.26 345.21 206.26 343.33 206.32 341.42C206.32 340.42 206.32 339.5 206.32 338.52C206.32 338.04 206.32 337.52 206.32 337.06L206.26 335.59C206.111 331.492 204.894 327.503 202.73 324.02C200.473 320.29 197.277 317.217 193.46 315.11C191.468 314.043 189.347 313.236 187.15 312.71C184.884 312.202 182.558 312.013 180.24 312.15H179.36L178.49 312.28C177.9 312.37 177.31 312.42 176.73 312.55C174.38 313.051 172.11 313.869 169.98 314.98L168.41 315.92C167.891 316.224 167.39 316.558 166.91 316.92C162.854 319.937 159.82 324.125 158.22 328.92C157.432 331.379 157.008 333.939 156.96 336.52C156.96 339.147 156.93 341.797 156.87 344.47C156.81 349.803 156.75 355.233 156.69 360.76C156.57 371.76 156.44 383.13 156.31 394.76V395.01H156.06L145.34 394.89H145.09V394.64C145.09 392.64 145.113 390.6 145.16 388.52C145.34 373.18 145.51 358.2 145.68 343.72C145.75 340.1 145.68 336.53 145.97 332.95C146.378 329.429 147.277 325.982 148.64 322.71C150.034 319.583 151.837 316.654 154 314C156.192 311.414 158.717 309.131 161.51 307.21C166.937 303.529 173.279 301.425 179.83 301.13C180.62 301.13 181.41 301.04 182.2 301.06L184.89 301.22L186.37 301.39L188.61 301.76L189.61 301.98C192.387 302.63 195.073 303.617 197.61 304.92C198.935 305.57 200.214 306.308 201.44 307.13C202.07 307.5 202.61 308 203.19 308.42C203.77 308.84 204.36 309.27 204.89 309.76C205.949 310.7 206.95 311.701 207.89 312.76L209.29 314.33C209.72 314.88 210.11 315.45 210.52 316.01C213.651 320.301 215.761 325.25 216.69 330.48C217.62 335.48 217.15 340.32 217.18 344.84C217.21 349.36 217.06 353.66 217.01 357.66C216.9 365.66 216.8 372.54 216.72 378.17C216.64 383.8 216.58 388.17 216.53 391.11C216.53 392.57 216.53 393.7 216.47 394.46C216.41 395.22 216.55 395.62 216.55 395.62Z" fill="#E0E0E0"/>
<path d="M133.137 356.721L230.131 357.822C231.122 357.833 232.069 358.238 232.763 358.947C233.456 359.656 233.839 360.612 233.828 361.604L232.977 436.569C232.967 437.471 232.599 438.331 231.954 438.962C231.31 439.592 230.441 439.941 229.539 439.93L132.245 438.826L133.177 356.722L133.137 356.721Z" fill="#E0E0E0"/>
<path d="M133.138 356.511L218.438 357.364C219.515 357.375 220.543 357.813 221.297 358.582C222.051 359.351 222.468 360.388 222.457 361.465L221.727 434.465C221.714 435.791 221.175 437.058 220.228 437.986C219.281 438.914 218.003 439.428 216.677 439.415L132.457 438.573C131.343 438.562 130.28 438.109 129.5 437.313C128.72 436.517 128.288 435.445 128.299 434.331L129.037 360.531C129.048 359.454 129.486 358.426 130.255 357.672C131.024 356.918 132.061 356.501 133.138 356.511Z" fill="#EBEBEB"/>
<path d="M187.85 391.15C187.868 389.616 187.577 388.094 186.995 386.674C186.413 385.255 185.552 383.967 184.462 382.887C183.373 381.806 182.077 380.956 180.653 380.386C179.228 379.817 177.704 379.539 176.17 379.57C173.219 379.658 170.414 380.869 168.327 382.957C166.239 385.044 165.028 387.849 164.94 390.8C164.894 393.302 165.672 395.75 167.153 397.766C168.635 399.783 170.739 401.256 173.14 401.96L165.49 417.68L185.24 418.27L179.4 402C181.796 401.355 183.917 399.947 185.441 397.99C186.966 396.032 187.811 393.631 187.85 391.15Z" fill="#E0E0E0"/>
<path d="M221.18 432.09C221.04 432.09 221.18 417.8 221.43 400.18C221.68 382.56 222.04 368.26 222.18 368.26C222.32 368.26 222.18 382.55 221.93 400.18C221.68 417.81 221.32 432.1 221.18 432.09Z" fill="#FAFAFA"/>
<path d="M200.34 360C200.34 360.14 187.77 360.28 172.26 360.31C156.75 360.34 144.17 360.25 144.17 360.11C144.17 359.97 156.74 359.84 172.26 359.81C187.78 359.78 200.34 359.84 200.34 360Z" fill="white"/>
<path d="M164.5 397.06C164.304 396.848 164.145 396.605 164.03 396.34C163.671 395.644 163.383 394.914 163.17 394.16C162.454 391.649 162.521 388.979 163.361 386.507C164.2 384.034 165.773 381.876 167.87 380.32C168.493 379.849 169.163 379.443 169.87 379.11C170.119 378.972 170.389 378.877 170.67 378.83C170.67 378.91 169.58 379.38 168.08 380.6C166.11 382.173 164.632 384.278 163.822 386.666C163.012 389.053 162.904 391.623 163.51 394.07C164 396 164.58 397 164.5 397.06Z" fill="white"/>
<path d="M169 402.54C168.93 402.66 168.26 402.37 167.5 401.9C166.74 401.43 166.19 400.95 166.26 400.83C166.33 400.71 167.01 401 167.77 401.47C168.53 401.94 169 402.42 169 402.54Z" fill="white"/>
<path d="M178.52 304.17C177.882 304.292 177.238 304.375 176.59 304.42C174.843 304.654 173.118 305.025 171.43 305.53C165.821 307.158 160.791 310.349 156.929 314.73C153.067 319.111 150.532 324.501 149.62 330.27C149.319 332.007 149.169 333.767 149.17 335.53C149.17 336.77 149.17 337.47 149.17 337.47C149.116 337.309 149.089 337.14 149.09 336.97C149.09 336.64 148.99 336.16 148.98 335.53C148.909 333.751 149.01 331.97 149.28 330.21C150.114 324.344 152.648 318.851 156.568 314.408C160.488 309.966 165.624 306.768 171.34 305.21C173.05 304.708 174.805 304.373 176.58 304.21C177.2 304.14 177.69 304.15 178.02 304.14C178.187 304.133 178.355 304.143 178.52 304.17Z" fill="white"/>
<path d="M148.64 346.32C148.412 345.337 148.351 344.323 148.46 343.32C148.392 342.31 148.497 341.295 148.77 340.32C149.071 342.313 149.027 344.342 148.64 346.32Z" fill="white"/>
<path d="M210.27 67.77H161.62V80.64H210.27V67.77Z" fill="#F5F5F5"/>
<path d="M189.7 94.2C189.7 94.2 189.7 94.12 189.7 93.97V93.31C189.7 92.7 189.7 91.85 189.7 90.77C189.7 88.55 189.7 85.36 189.62 81.33L189.77 81.48L141.12 81.58C141.23 81.47 140.87 81.82 141.37 81.33V87.85C141.37 89.9967 141.37 92.1067 141.37 94.18L141.13 93.94L175.8 94.05L186.03 94.12H188.8H189.52C189.606 94.1115 189.694 94.1115 189.78 94.12H189.56H188.86H186.15L175.97 94.19L141.13 94.3H140.89V94.06C140.89 91.9867 140.89 89.8767 140.89 87.73V81.21L141.14 80.96L189.79 81.06H189.94V81.21C189.94 85.27 189.88 88.5 189.86 90.74C189.86 91.81 189.86 92.64 189.86 93.24C189.86 93.5 189.86 93.71 189.86 93.87C189.86 94.03 189.71 94.2 189.7 94.2Z" fill="#E0E0E0"/>
<path d="M385.21 290.03H336.56V302.9H385.21V290.03Z" fill="#F5F5F5"/>
<path d="M364.64 316.46C364.633 316.38 364.633 316.3 364.64 316.22V315.56C364.64 314.96 364.64 314.11 364.64 313.03C364.64 310.81 364.59 307.62 364.56 303.59L364.71 303.74L316.06 303.84C316.17 303.73 315.81 304.08 316.3 303.59V316.44L316.06 316.2L350.73 316.31L360.96 316.38H363.73H364.45H364.71H364.48H363.79H361.08L350.9 316.45L316 316.7H315.75V303.61L316 303.36L364.65 303.46H364.8V303.61C364.8 307.67 364.74 310.9 364.72 313.14C364.72 314.21 364.72 315.04 364.72 315.64C364.72 315.9 364.72 316.11 364.72 316.27C364.697 316.335 364.671 316.398 364.64 316.46Z" fill="#E0E0E0"/>
<path d="M66.26 47.61C66.2511 47.5336 66.2511 47.4564 66.26 47.38C66.26 47.21 66.26 46.99 66.26 46.72C66.26 46.11 66.26 45.27 66.26 44.18C66.26 41.96 66.26 38.77 66.18 34.74L66.33 34.89L17.61 35C17.72 34.89 17.36 35.25 17.85 34.75V47.61L17.61 47.37L52.28 47.48L62.51 47.55H65.28H66H66.26C66.1836 47.5594 66.1064 47.5594 66.03 47.55H65.34H62.62L52.45 47.62L17.61 47.73H17.36V34.76L17.61 34.51L66.26 34.61H66.41V34.76C66.41 38.83 66.35 42.05 66.33 44.29C66.33 45.36 66.33 46.2 66.33 46.79C66.33 47.05 66.33 47.26 66.33 47.43C66.3114 47.4918 66.288 47.5519 66.26 47.61Z" fill="#E0E0E0"/>
<path d="M356.36 29.13C356.36 29.13 356.36 29.04 356.36 28.89V28.23C356.36 27.63 356.36 26.78 356.36 25.7C356.36 23.48 356.36 20.28 356.28 16.26L356.43 16.41L307.78 16.5L308.03 16.26V22.8C308.03 24.9533 308.03 27.0633 308.03 29.13L307.79 28.89L342.46 29L352.69 29.06H355.46H356.19C356.273 29.0518 356.357 29.0518 356.44 29.06H356.22H355.52H352.81L342.63 29.13L307.79 29.24H307.55V29C307.55 26.93 307.55 24.82 307.55 22.67V16.28L307.8 16.03L356.45 16.13H356.6V16.28C356.6 20.34 356.54 23.57 356.52 25.81C356.52 26.88 356.52 27.71 356.52 28.31V28.94C356.476 29.0108 356.422 29.0748 356.36 29.13Z" fill="#E0E0E0"/>
<path d="M363 16.26C362.993 16.1768 362.993 16.0932 363 16.01C363 15.83 363 15.6 363 15.33C363 14.7 363 13.84 363 12.75C363 10.49 362.94 7.31001 362.9 3.39001L363.08 3.56001L333.85 3.63001L334.09 3.39001V10C334.09 12.15 334.09 14.24 334.09 16.24L333.86 16L354.77 16.11L360.86 16.18H362.5H363.09C362.914 16.1943 362.736 16.1943 362.56 16.18H360.96L354.96 16.24L333.89 16.35H333.65V16.12C333.65 14.12 333.65 12.03 333.65 9.88001V3.41001C333.59 3.41001 334.12 2.94001 333.9 3.16001L363.13 3.23001H363.31V3.41001C363.31 7.41001 363.23 10.59 363.21 12.88C363.21 13.95 363.21 14.79 363.21 15.42C363.21 16.05 363 16.27 363 16.26Z" fill="#E0E0E0"/>
<path d="M49.36 336C49.3557 335.923 49.3557 335.847 49.36 335.77C49.36 335.6 49.36 335.38 49.36 335.11C49.36 334.5 49.36 333.66 49.36 332.58C49.36 330.36 49.36 327.16 49.28 323.13L49.43 323.28L0.779987 323.38L1.02999 323.13V329.66C1.02999 331.807 1.02999 333.917 1.02999 335.99L0.78999 335.75L35.46 335.86L45.69 335.93H48.46H49.19H49.44C49.44 335.93 49.37 335.93 49.22 335.93H48.52H45.81L35.63 336L0.78999 336.11H0.549988V336C0.549988 333.93 0.549988 331.82 0.549988 329.67V323.14C1.04999 322.65 0.689988 323.01 0.799988 322.9L49.45 322.99H49.6V323.14C49.6 327.21 49.54 330.43 49.52 332.68C49.52 333.75 49.52 334.58 49.52 335.18V335.81C49.37 336 49.37 336 49.36 336Z" fill="#E0E0E0"/>
<path d="M56 323.15C55.9921 323.07 55.9921 322.99 56 322.91C56 322.72 56 322.5 56 322.23C56 321.59 56 320.73 56 319.65C56 317.39 55.94 314.2 55.9 310.28L56.08 310.46L26.85 310.53C26.63 310.75 27.15 310.23 27.09 310.28V316.9C27.09 319.06 27.09 321.14 27.09 323.14L26.86 322.91L47.77 323.02L53.86 323.09H55.5H56.09C55.9136 323.104 55.7364 323.104 55.56 323.09H53.96L47.96 323.16L26.89 323.27H26.65V323.03C26.65 321.03 26.65 318.95 26.65 316.79V310.17L26.9 309.92L56 310.1H56.18V310.28C56.18 314.28 56.1 317.47 56.08 319.75C56.08 320.82 56.08 321.67 56.08 322.3C56.08 322.93 56 323.17 56 323.15Z" fill="#E0E0E0"/>
<path d="M202.56 230.19C202.551 230.114 202.551 230.036 202.56 229.96V229.3C202.56 228.69 202.56 227.85 202.56 226.77C202.56 224.54 202.51 221.35 202.48 217.32L202.63 217.47L153.98 217.57C154.09 217.46 153.73 217.82 154.22 217.32V230.17L153.98 229.93L188.65 230.04L198.88 230.11H201.65H202.37H202.63H202.4H201.71H198.99L188.82 230.17L153.98 230.28H153.73V217.18L153.98 216.93L202.63 217.03H202.78V217.18C202.78 221.25 202.72 224.47 202.7 226.72C202.7 227.78 202.7 228.62 202.7 229.21V229.85C202.671 229.97 202.623 230.084 202.56 230.19Z" fill="#E0E0E0"/>
<path d="M209.16 217.32C209.146 217.241 209.146 217.159 209.16 217.08C209.16 216.89 209.16 216.67 209.16 216.39L209.11 213.81C209.11 211.56 209.11 208.37 209.02 204.45L209.2 204.63L179.96 204.7L180.21 204.45V211.07C180.21 213.22 180.21 215.31 180.21 217.31L179.97 217.08L200.88 217.19L206.98 217.25H208.62H209.21C209.03 217.263 208.85 217.263 208.67 217.25H207.08L201.08 217.32L180.01 217.43H179.78V217.19C179.78 215.19 179.78 213.1 179.78 210.95V204.33C179.78 204.38 180.26 203.86 180.03 204.08L209.27 204.15H209.45V204.33C209.45 208.33 209.38 211.52 209.36 213.8C209.36 214.87 209.36 215.72 209.31 216.34C209.26 216.96 209.17 217.33 209.16 217.32Z" fill="#E0E0E0"/>
<path d="M509 439.89C509 440.03 399.441 440.15 264.335 440.15C129.23 440.15 19.64 440 19.64 439.89C19.64 439.78 129.176 439.63 264.335 439.63C399.495 439.63 509 439.75 509 439.89Z" fill="#263238"/>
<path d="M22.42 384.6L4.45001 409L34.71 431.52C36.71 428.52 25.34 411.04 25.34 411.04L37.5 395.88L22.42 384.6Z" fill="#455A64"/>
<path d="M17 402.78C16.6442 402.65 16.2529 402.657 15.902 402.8C15.551 402.942 15.2653 403.209 15.1 403.55C14.9594 403.903 14.9588 404.296 15.0982 404.649C15.2376 405.002 15.5065 405.288 15.85 405.45C16.227 405.583 16.6398 405.571 17.009 405.418C17.3782 405.265 17.6778 404.981 17.85 404.62C17.9605 404.237 17.918 403.826 17.7315 403.473C17.545 403.121 17.229 402.854 16.85 402.73" fill="white"/>
<path d="M4.41 409.06L6.32 406.44L34.59 429.2C34.59 429.2 35.49 430.8 34.59 431.63L4.41 409.06Z" fill="#263238"/>
<path d="M26 411.26C25.89 411.41 25.1 410.93 24 410.86C22.9 410.79 22.07 411.13 22 410.97C21.93 410.81 22.77 410.12 24.07 410.22C25.37 410.32 26.08 411.15 26 411.26Z" fill="#263238"/>
<path d="M28.15 414.94C28.07 415.11 27.25 414.88 26.28 415.13C25.31 415.38 24.68 415.94 24.53 415.82C24.38 415.7 24.92 414.82 26.13 414.51C27.34 414.2 28.25 414.8 28.15 414.94Z" fill="#263238"/>
<path d="M27.12 420.08C26.96 420.01 27.31 419.08 28.29 418.59C29.27 418.1 30.2 418.26 30.17 418.43C30.14 418.6 29.39 418.71 28.6 419.16C27.81 419.61 27.28 420.17 27.12 420.08Z" fill="#263238"/>
<path d="M28.34 407.5C28.17 407.59 27.65 406.88 26.77 406.32C25.89 405.76 25.05 405.53 25.06 405.32C25.07 405.11 26.06 405.07 27.12 405.75C28.18 406.43 28.5 407.44 28.34 407.5Z" fill="#263238"/>
<path d="M95.58 282.46C96.12 285.52 96.98 311.55 97.53 325.28C98.08 339.01 96.71 345.76 95.14 348.84C93.57 351.92 34.36 395.55 29.85 406L14.85 393.91C14.85 393.91 36.85 354.42 46.23 347.24C55.61 340.06 73.66 333.47 73.66 333.47L68.53 258.28L93.12 256.94L95.58 282.46Z" fill="#263238"/>
<path d="M40.55 408.73L40.29 439L78 439.52C77.83 435.92 58.42 428.41 58.42 428.41L59.42 409L40.55 408.73Z" fill="#455A64"/>
<path d="M46.78 426.66C46.4161 426.765 46.1038 427.001 45.9027 427.322C45.7016 427.643 45.6259 428.027 45.69 428.4C45.7828 428.768 46.0124 429.086 46.332 429.291C46.6516 429.495 47.0371 429.57 47.41 429.5C47.7943 429.386 48.1229 429.134 48.3333 428.793C48.5436 428.451 48.6207 428.045 48.55 427.65C48.416 427.276 48.1417 426.969 47.7853 426.793C47.4288 426.618 47.0181 426.588 46.64 426.71" fill="white"/>
<path d="M40.28 439.11V435.86L76.53 437.74C76.53 437.74 78.19 438.51 77.98 439.69L40.28 439.11Z" fill="#263238"/>
<path d="M59 428.27C59 428.46 58.07 428.53 57.16 429.11C56.25 429.69 55.75 430.45 55.58 430.38C55.41 430.31 55.7 429.24 56.82 428.56C57.94 427.88 59.08 428.1 59 428.27Z" fill="#263238"/>
<path d="M63 430C63 430.18 62.23 430.48 61.6 431.25C60.97 432.02 60.77 432.85 60.6 432.83C60.43 432.81 60.31 431.78 61.12 430.83C61.93 429.88 63 429.79 63 430Z" fill="#263238"/>
<path d="M65.15 434.73C64.98 434.73 64.74 433.84 65.22 432.84C65.7 431.84 66.58 431.45 66.65 431.6C66.72 431.75 66.19 432.29 65.8 433.12C65.41 433.95 65.33 434.71 65.15 434.73Z" fill="#263238"/>
<path d="M58.76 423.82C58.68 423.99 57.84 423.72 56.76 423.82C55.68 423.92 54.9 424.19 54.76 424.03C54.62 423.87 55.45 423.23 56.68 423.18C57.91 423.13 58.85 423.68 58.76 423.82Z" fill="#263238"/>
<path d="M98.3 253.83C98.3 255.6 101.17 300.41 86.52 332.83C86.52 332.83 81.45 342.97 80.52 347.4C79.59 351.83 60.64 425.31 60.64 425.31L38.74 424.51C38.74 424.51 35.24 387.7 38.74 366.39C42.24 345.08 48.74 347.58 48.74 333.82C48.74 320.06 45.47 291.53 45.47 291.53C45.47 291.53 40.69 283.74 39.06 268.63C37.73 256.36 43.51 243.21 43.51 243.21L49.22 233.1L97.53 230.57L98.3 253.83Z" fill="#263238"/>
<path d="M98.3 253.83C98.3 253.83 98.3 253.31 98.3 252.3C98.3 251.29 98.24 249.79 98.2 247.82C98.11 243.87 97.96 238.05 97.78 230.53V230.42H97.66L49.35 232.88H49.25L49.19 232.97C47.42 236.11 45.47 239.54 43.47 243.08C41.9825 246.668 40.8212 250.383 40 254.18C39.0928 258.177 38.6863 262.272 38.79 266.37C39.0944 270.649 39.7635 274.895 40.79 279.06C41.7803 283.433 43.3367 287.659 45.42 291.63V291.53C46.25 298.99 47.02 306.72 47.67 314.68C47.99 318.68 48.27 322.68 48.47 326.79C48.57 328.79 48.65 330.89 48.66 332.96C48.66 333.96 48.66 335.03 48.6 336.06C48.5288 337.093 48.402 338.121 48.22 339.14C47.8107 341.193 47.0854 343.17 46.07 345C45.07 346.87 44.07 348.72 43.07 350.67C41.2589 354.627 39.9391 358.792 39.14 363.07C37.4 371.67 37.05 380.61 36.95 389.62C36.95 401.51 37.51 413.19 38.49 424.48V424.72H38.72L60.62 425.52H60.83L60.88 425.31C67.23 400.7 73.15 377.7 78.37 357.02L80.26 349.37C80.59 348.1 80.8 346.84 81.19 345.64C81.58 344.44 82.02 343.25 82.48 342.09C83.42 339.77 84.48 337.52 85.48 335.33L86.26 333.7C86.537 333.168 86.7841 332.62 87 332.06C87.45 330.95 87.9 329.86 88.35 328.77C91.4599 320.705 93.7743 312.355 95.26 303.84C97.4017 291.709 98.5057 279.418 98.56 267.1C98.62 258.48 98.27 253.8 98.27 253.8C98.27 253.8 98.27 254.09 98.27 254.66C98.27 255.23 98.27 256.1 98.33 257.22C98.39 259.47 98.43 262.79 98.33 267.1C98.2375 279.408 97.1237 291.686 95 303.81C93.4799 312.298 91.1355 320.617 88 328.65L86.66 331.92C86.44 332.48 86.19 333.01 85.92 333.55C85.65 334.09 85.39 334.64 85.13 335.19C84.13 337.38 83.07 339.63 82.13 341.96C81.66 343.13 81.21 344.32 80.82 345.54C80.43 346.76 80.2 348.05 79.88 349.29C79.25 351.81 78.62 354.35 77.97 356.94C72.66 377.6 66.75 400.6 60.42 425.21L60.68 425.02L38.78 424.21L39.04 424.45C38.04 413.18 37.46 401.51 37.5 389.64C37.6 380.64 37.95 371.74 39.68 363.2C40.4767 358.962 41.7828 354.835 43.57 350.91C44.47 348.98 45.57 347.15 46.57 345.25C47.5787 343.37 48.2936 341.346 48.69 339.25C48.8796 338.208 49.0098 337.157 49.08 336.1C49.08 335.1 49.18 334 49.14 332.97C49.14 330.89 49.05 328.82 48.95 326.77C48.75 322.67 48.46 318.63 48.13 314.65C47.4633 306.65 46.7067 298.927 45.86 291.48V291.42C43.776 287.5 42.2128 283.325 41.21 279C40.1893 274.864 39.5202 270.649 39.21 266.4C39.1023 262.34 39.4987 258.282 40.39 254.32C41.1958 250.561 42.3301 246.88 43.78 243.32L49.48 233.2L49.32 233.3L97.63 230.69L97.5 230.58C97.74 238.09 97.92 243.91 98.04 247.86C98.11 249.86 98.16 251.32 98.2 252.34C98.24 253.36 98.3 253.83 98.3 253.83Z" fill="#455A64"/>
<path d="M82.59 162.07C82.59 162.07 69.59 159.77 70.8 176.5C71.56 186.5 74.5 203.66 76.13 214.61C76.69 218.4 77.93 225.18 82.94 229.16L118.84 254L130.17 240.45L98.11 209.92L93.11 179.72L82.59 162.07Z" fill="#455A64"/>
<path d="M84.12 101.77C86.1806 103.429 87.8109 105.561 88.8727 107.984C89.9346 110.407 90.3967 113.05 90.22 115.69C90.02 118.25 89.31 121.16 90.98 123.11C92.65 125.06 95.85 124.99 97.43 126.97C99.28 129.31 97.73 132.79 98.43 135.7C98.7868 137.059 99.6155 138.247 100.768 139.051C101.92 139.856 103.321 140.224 104.72 140.09C101.438 142.776 97.4801 144.505 93.28 145.09L90 141C91.22 142.44 90.89 144.73 89.72 146.2C88.449 147.568 86.8101 148.54 85 149C80.692 150.325 76.1361 150.639 71.6872 149.915C67.2383 149.192 63.0164 147.452 59.35 144.83" fill="#263238"/>
<path d="M36.09 124.34C36.73 122.34 37.81 120.57 38.24 118.56C39.16 114.23 37.05 109.35 39.15 105.45C40.65 102.68 43.83 101.32 46.85 100.39C49.87 99.46 53.09 98.68 55.34 96.47C56.98 94.85 57.92 92.61 59.56 90.99C61.9 88.67 65.36 87.88 68.64 87.68C72.0269 87.3527 75.4409 87.9073 78.55 89.29C80.0939 89.9943 81.4504 91.052 82.5101 92.3774C83.5697 93.7028 84.3028 95.2589 84.65 96.92C84.91 98.54 84.71 100.25 85.23 101.82C85.79 103.54 87.14 104.88 87.98 106.49C88.8213 108.219 89.0647 110.178 88.672 112.061C88.2792 113.943 87.2726 115.642 85.81 116.89L62.63 146.83C57.76 148.67 45.96 146.45 42.2 142.83C38.44 139.21 34.48 129.29 36.09 124.34Z" fill="#263238"/>
<path d="M85.2 113.09C84.2 106.29 79.07 98.26 72.32 99.5L51.48 106.5C49.48 106.88 50.9 110.23 51.1 112.3L55.63 159.3C55.63 159.3 52.81 161.3 51.81 160.92C51.7531 160.9 51.6913 160.898 51.6334 160.915C51.5755 160.932 51.5242 160.967 51.4868 161.014C51.4494 161.061 51.4277 161.119 51.4247 161.179C51.4217 161.239 51.4375 161.299 51.47 161.35C54 165 65.79 180.87 78 176C80.72 174.91 77.71 166.34 78 163.17L77.64 155.06C77.37 150.92 77.24 149.22 77.24 149.26C77.24 149.3 85.86 147.14 86.79 135.61C87.26 129.9 86.26 120.64 85.2 113.09Z" fill="#FFBF9D"/>
<path d="M83.75 123.55C83.781 123.931 83.6626 124.308 83.42 124.603C83.1774 124.898 82.8295 125.087 82.45 125.13C82.2651 125.16 82.0762 125.152 81.8944 125.107C81.7126 125.063 81.5415 124.982 81.3914 124.87C81.2413 124.758 81.1152 124.617 81.0205 124.456C80.9257 124.294 80.8644 124.116 80.84 123.93C80.809 123.549 80.9274 123.172 81.17 122.877C81.4126 122.582 81.7605 122.393 82.14 122.35C82.3249 122.32 82.5138 122.328 82.6956 122.373C82.8774 122.417 83.0485 122.498 83.1986 122.61C83.3487 122.722 83.4748 122.863 83.5695 123.024C83.6643 123.185 83.7256 123.364 83.75 123.55Z" fill="#263238"/>
<path d="M69.55 124.44C69.5837 124.82 69.4677 125.197 69.2267 125.493C68.9856 125.788 68.6387 125.977 68.26 126.02C68.0753 126.048 67.8869 126.04 67.7056 125.994C67.5243 125.949 67.3538 125.868 67.204 125.757C67.0542 125.645 66.9281 125.505 66.833 125.344C66.7379 125.183 66.6757 125.005 66.65 124.82C66.619 124.439 66.7373 124.062 66.98 123.767C67.2226 123.472 67.5705 123.283 67.95 123.24C68.1343 123.21 68.3226 123.218 68.5038 123.263C68.6851 123.308 68.8554 123.388 69.0047 123.5C69.154 123.612 69.2793 123.753 69.373 123.915C69.4666 124.076 69.5269 124.255 69.55 124.44Z" fill="#263238"/>
<path d="M84.27 118.73C84.11 119 82.75 118.14 81.05 118.39C79.35 118.64 78.26 119.8 78.05 119.59C77.84 119.38 78.05 119.03 78.54 118.5C79.1553 117.809 79.9966 117.36 80.9129 117.234C81.8292 117.107 82.7607 117.312 83.54 117.81C84.1 118.2 84.35 118.61 84.27 118.73Z" fill="#263238"/>
<path d="M69 120C68.8 120.25 67.47 119.28 65.64 119.36C63.81 119.44 62.51 120.47 62.3 120.24C62.09 120.01 62.39 119.7 62.96 119.24C63.7082 118.622 64.6403 118.271 65.61 118.24C66.5751 118.202 67.5252 118.487 68.31 119.05C68.88 119.46 69.09 119.88 69 120Z" fill="#263238"/>
<path d="M74.73 130.77C75.5374 130.44 76.3847 130.218 77.25 130.11C77.64 130.04 78.02 129.93 78.06 129.65C78.0652 129.232 77.9393 128.823 77.7 128.48C77.25 127.54 76.78 126.55 76.28 125.48C74.28 121.25 72.83 117.77 73 117.69C73.17 117.61 74.92 120.97 76.9 125.19C77.38 126.24 77.84 127.19 78.27 128.19C78.5625 128.654 78.6795 129.207 78.6 129.75C78.5542 129.896 78.4753 130.03 78.3696 130.141C78.2638 130.252 78.1339 130.337 77.99 130.39C77.7733 130.464 77.5483 130.511 77.32 130.53C76.4692 130.712 75.5998 130.793 74.73 130.77Z" fill="#263238"/>
<path d="M77.24 149.28C71.8849 149.772 66.4984 148.768 61.68 146.38C61.68 146.38 66.13 154.08 77.44 152.14L77.24 149.28Z" fill="#FF9A6C"/>
<path d="M69.94 135.35C70.1184 134.955 70.3935 134.611 70.74 134.35C71.164 134.148 71.6455 134.102 72.1 134.22C72.7754 134.319 73.4002 134.635 73.88 135.12C74.1155 135.365 74.2813 135.668 74.3604 135.999C74.4395 136.329 74.429 136.675 74.33 137C74.15 137.66 73.17 138 72.5 138.14C71.8059 138.241 71.0982 138.096 70.5 137.73C70.2398 137.611 70.0126 137.431 69.8383 137.204C69.6639 136.978 69.5478 136.712 69.5 136.43C69.5444 136.036 69.6966 135.663 69.94 135.35Z" fill="#FF9A6C"/>
<path d="M70.26 133.14C70.51 133.14 70.65 134.81 72.2 135.91C73.75 137.01 75.55 136.68 75.58 136.91C75.61 137.14 75.21 137.27 74.44 137.35C73.4409 137.442 72.4417 137.176 71.62 136.6C70.8272 136.053 70.2813 135.216 70.1 134.27C70 133.58 70.14 133.14 70.26 133.14Z" fill="#263238"/>
<path d="M68.86 113.85C68.73 114.28 67.15 114.2 65.32 114.57C63.49 114.94 62.04 115.57 61.77 115.18C61.65 115.01 61.87 114.59 62.44 114.13C63.2035 113.561 64.0874 113.175 65.0237 113.002C65.9599 112.828 66.9234 112.872 67.84 113.13C68.54 113.33 68.91 113.64 68.86 113.85Z" fill="#263238"/>
<path d="M83.3 113C83.01 113.38 81.75 113.11 80.3 113.21C78.85 113.31 77.57 113.66 77.25 113.31C77.11 113.14 77.25 112.76 77.8 112.38C78.5232 111.903 79.3644 111.637 80.23 111.61C81.0902 111.548 81.9503 111.732 82.71 112.14C83.23 112.44 83.43 112.8 83.3 113Z" fill="#263238"/>
<path d="M46.87 108.14C47.87 106.52 49.81 105.69 51.61 105C59.3838 101.998 67.4876 99.9338 75.75 98.85C76.75 100.54 75.83 102.85 74.28 104.08C72.73 105.31 70.73 105.8 68.88 106.49C67.03 107.18 65.12 108.26 64.35 110.09C63.58 111.92 64.23 114.33 63.51 116.31C62.28 119.73 57.51 120.83 56.32 124.24C55.4 126.83 56.9 129.58 57.32 132.3C57.512 133.68 57.4074 135.086 57.0131 136.423C56.6189 137.76 55.944 138.997 55.0335 140.052C54.123 141.107 52.9979 141.956 51.7333 142.542C50.4687 143.128 49.0937 143.438 47.7 143.45C47.14 133.657 46.5767 123.87 46.01 114.09C45.84 112.05 45.76 109.85 46.87 108.14Z" fill="#263238"/>
<path d="M27.15 132.87C28.7 131.48 30.64 130.28 31.25 128.3C32.15 125.41 29.83 122.02 31.33 119.39C32.69 116.99 36.7 117.12 37.97 114.67C38.97 112.75 37.82 111.06 38.19 109.38C38.56 107.7 40.96 106.23 42.66 106.43L56 125.8C57.24 132.3 58.49 135.8 57.1 139.56C56.1806 141.584 55.4865 143.704 55.03 145.88C54.73 148.08 55.3 150.57 57.09 151.88C49.09 152.51 41.61 148.33 34.69 144.28L27.4 140C26.602 139.618 25.9138 139.04 25.4 138.32C24.31 136.54 25.61 134.25 27.15 132.87Z" fill="#263238"/>
<path d="M34.52 142.31C34.7991 142.4 35.0877 142.457 35.38 142.48C36.2142 142.56 37.0559 142.499 37.87 142.3C39.1695 141.989 40.3654 141.344 41.34 140.43C42.6272 139.191 43.4349 137.537 43.62 135.76C43.7402 134.73 43.6518 133.686 43.36 132.69C43.0014 131.629 42.5037 130.62 41.88 129.69C41.2186 128.746 40.7029 127.707 40.35 126.61C40.1626 126.049 40.1039 125.453 40.1784 124.866C40.2528 124.279 40.4584 123.717 40.78 123.22C41.5 122.22 42.85 122.01 44.11 121.51C44.7905 121.265 45.3825 120.823 45.81 120.24C46.2036 119.616 46.3957 118.887 46.36 118.15C46.187 116.738 45.8824 115.345 45.45 113.99C45.2965 113.332 45.2965 112.648 45.45 111.99C45.6261 111.327 46.0341 110.748 46.6 110.36C47.8168 109.658 49.1955 109.286 50.6 109.28C52.0536 109.232 53.4712 108.816 54.72 108.07C55.9351 107.329 56.9215 106.267 57.57 105C58.1022 103.784 58.4397 102.491 58.57 101.17C58.7087 99.9469 58.97 98.7408 59.35 97.57C59.7712 96.5052 60.4117 95.541 61.23 94.74C62.7393 93.3078 64.6878 92.4269 66.76 92.24C68.4878 92.0923 70.2219 92.4391 71.76 93.24C72.9168 93.8319 73.9596 94.6242 74.84 95.58C75.5757 96.4143 76.2132 97.3303 76.74 98.31C76.74 98.31 76.74 98.24 76.67 98.1C76.5879 97.9014 76.4944 97.7077 76.39 97.52C76.0082 96.794 75.5416 96.116 75 95.5C74.1203 94.5057 73.0706 93.6761 71.9 93.05C70.3458 92.1957 68.5797 91.8036 66.81 91.92C64.6383 92.079 62.5872 92.9792 61 94.47C60.1255 95.3147 59.4433 96.3379 59 97.47C58.6035 98.6625 58.3288 99.8921 58.18 101.14C58.0412 102.418 57.7038 103.666 57.18 104.84C56.5702 106.02 55.6507 107.012 54.52 107.71C53.3285 108.409 51.9807 108.797 50.6 108.84C49.0952 108.837 47.6172 109.237 46.32 110C45.671 110.441 45.2025 111.102 45 111.86C44.8247 112.6 44.8247 113.37 45 114.11C45.4235 115.44 45.7247 116.805 45.9 118.19C45.9412 118.833 45.7804 119.473 45.44 120.02C45.0537 120.527 44.5295 120.913 43.93 121.13C43.34 121.38 42.7 121.55 42.08 121.81C41.4344 122.054 40.865 122.464 40.43 123C40.0768 123.552 39.8505 124.176 39.7675 124.826C39.6845 125.476 39.7468 126.137 39.95 126.76C40.3244 127.893 40.8636 128.964 41.55 129.94C42.1591 130.824 42.6468 131.786 43 132.8C43.2833 133.746 43.3785 134.738 43.28 135.72C43.1161 137.43 42.359 139.029 41.14 140.24C40.2069 141.144 39.0565 141.791 37.8 142.12C36.73 142.399 35.6151 142.464 34.52 142.31Z" fill="#455A64"/>
<path d="M23.86 128.54C23.7292 128.736 23.6406 128.958 23.6 129.19C23.467 129.876 23.5878 130.587 23.94 131.19C24.184 131.621 24.5267 131.987 24.94 132.26C25.4552 132.572 26.048 132.731 26.65 132.72C27.3816 132.704 28.0947 132.488 28.7118 132.094C29.3289 131.701 29.8264 131.146 30.15 130.49C30.5304 129.737 30.7258 128.904 30.72 128.06C30.6958 127.153 30.5061 126.258 30.16 125.42C29.53 123.69 28.37 122 28.35 119.98C28.3122 119.483 28.3751 118.983 28.5349 118.51C28.6947 118.038 28.9481 117.602 29.28 117.23C30.0908 116.56 31.1326 116.237 32.18 116.33C33.3455 116.415 34.517 116.293 35.64 115.97C36.2285 115.73 36.7257 115.31 37.06 114.77C37.3819 114.233 37.5832 113.632 37.65 113.01C37.7076 111.816 37.6101 110.619 37.36 109.45C37.181 108.353 37.2458 107.229 37.55 106.16C38.1168 104.119 39.4446 102.372 41.26 101.28C42.9833 100.402 44.8964 99.9626 46.83 100C48.5485 100.004 50.2566 99.7338 51.89 99.2C53.2181 98.7126 54.4353 97.9646 55.47 97C56.2624 96.2679 56.937 95.4179 57.47 94.48C57.9391 93.702 58.2611 92.8444 58.42 91.95C58.1223 92.7943 57.7509 93.6108 57.31 94.39C56.0502 96.4926 54.1096 98.1015 51.81 98.95C50.1902 99.4455 48.5038 99.6884 46.81 99.67C44.8201 99.6139 42.8476 100.054 41.07 100.95C39.1609 102.069 37.7515 103.876 37.13 106C36.81 107.128 36.7384 108.312 36.92 109.47C37.1541 110.601 37.2514 111.756 37.21 112.91C37.1863 113.459 37.0125 113.99 36.7075 114.447C36.4024 114.904 35.9778 115.268 35.48 115.5C34.4114 115.803 33.2976 115.915 32.19 115.83C31.0302 115.729 29.877 116.088 28.98 116.83C28.6137 117.247 28.3362 117.734 28.1642 118.262C27.9923 118.79 27.9296 119.347 27.98 119.9C28.0242 120.938 28.2722 121.958 28.71 122.9C29.1 123.8 29.53 124.64 29.86 125.48C30.1956 126.276 30.3853 127.127 30.42 127.99C30.4337 128.779 30.2624 129.559 29.92 130.27C29.6298 130.883 29.1772 131.405 28.6112 131.779C28.0453 132.152 27.3877 132.364 26.71 132.39C26.1541 132.41 25.6036 132.275 25.12 132C24.706 131.758 24.3616 131.414 24.12 131C23.7695 130.444 23.6244 129.782 23.71 129.13C23.76 128.77 23.89 128.55 23.86 128.54Z" fill="#263238"/>
<path d="M108.09 133.31C108.328 133.986 108.328 134.724 108.09 135.4C107.958 135.788 107.74 136.142 107.453 136.434C107.165 136.727 106.816 136.951 106.43 137.09C105.915 137.242 105.369 137.247 104.851 137.106C104.334 136.965 103.866 136.682 103.5 136.29C103.08 135.828 102.836 135.234 102.81 134.61C102.791 133.93 102.896 133.252 103.12 132.61C103.54 131.26 104.41 129.79 104.28 128.02C104.217 127.123 103.967 126.248 103.547 125.453C103.127 124.657 102.546 123.958 101.84 123.4C101.101 122.808 100.256 122.364 99.35 122.09C98.4245 121.833 97.4702 121.696 96.51 121.68C95.5795 121.672 94.6519 121.575 93.74 121.39C92.8888 121.214 92.1271 120.743 91.59 120.06C91.1144 119.359 90.8474 118.537 90.82 117.69C90.7755 116.865 90.8428 116.037 91.02 115.23C91.4589 113.707 91.7009 112.134 91.74 110.55C91.6595 109.143 91.1616 107.792 90.31 106.67C89.5899 105.779 88.7077 105.033 87.71 104.47C86.9811 104.039 86.2828 103.557 85.62 103.03C85.0765 102.565 84.6341 101.993 84.32 101.35C84.32 101.35 84.32 101.35 84.32 101.49C84.3595 101.625 84.4131 101.756 84.48 101.88C84.7294 102.366 85.0687 102.8 85.48 103.16C86.1282 103.724 86.8204 104.236 87.55 104.69C88.504 105.257 89.3449 105.997 90.03 106.87C90.8227 107.946 91.2754 109.235 91.33 110.57C91.2706 112.119 91.0187 113.654 90.58 115.14C90.3865 115.986 90.3092 116.854 90.35 117.72C90.3873 118.653 90.6852 119.557 91.21 120.33C91.8062 121.101 92.6565 121.636 93.61 121.84C94.5482 122.033 95.5024 122.136 96.46 122.15C97.3856 122.162 98.306 122.29 99.2 122.53C100.049 122.794 100.842 123.211 101.54 123.76C102.197 124.278 102.74 124.927 103.134 125.665C103.528 126.404 103.765 127.216 103.83 128.05C103.97 129.66 103.17 131.05 102.73 132.5C102.499 133.196 102.397 133.928 102.43 134.66C102.474 135.359 102.76 136.02 103.24 136.53C103.651 136.96 104.174 137.266 104.751 137.413C105.327 137.56 105.933 137.541 106.5 137.36C106.914 137.199 107.286 136.947 107.587 136.621C107.889 136.295 108.112 135.905 108.24 135.48C108.421 134.959 108.449 134.396 108.32 133.86C108.277 133.664 108.199 133.478 108.09 133.31Z" fill="#263238"/>
<path d="M98.53 211.64V200.58C99.77 194.37 99.18 187.01 96.29 181.34C94.1934 177.685 91.8758 174.162 89.35 170.79L78.35 156.5C72.29 160.91 62.8 157.72 54.66 154.76C54.66 154.76 46.66 159.21 42.88 163.39C38.95 167.79 52.39 222.84 52.39 222.84C46.3 235.02 38.44 245.84 37.25 256.94L100.85 259.39L98.15 230.23L98.53 211.64Z" fill="#455A64"/>
<path d="M97.65 230.54C97.5868 230.126 97.57 229.707 97.6 229.29C97.6 228.38 97.6 227.29 97.6 225.9C97.65 222.9 97.71 219.03 97.78 214.72C97.85 210.41 97.98 206.4 98.12 203.54C98.19 202.11 98.26 200.95 98.32 200.15C98.327 199.735 98.3806 199.323 98.48 198.92C98.5205 199.332 98.5205 199.748 98.48 200.16C98.48 201.07 98.48 202.16 98.48 203.55C98.43 206.55 98.36 210.42 98.29 214.73C98.22 219.04 98.1 223.05 97.96 225.91C97.89 227.34 97.82 228.5 97.75 229.3C97.7656 229.716 97.7321 230.132 97.65 230.54Z" fill="#263238"/>
<path d="M126.7 240.6C126.7 240.6 132.9 240.94 136.7 243.34C140.5 245.74 146.7 249.48 149.25 254.11C150.42 256.24 147.09 256.69 145.44 255.46C143.79 254.23 141.28 251.89 140.03 251.61L138.78 251.32C139.921 253.903 141.193 256.426 142.59 258.88C143.88 260.88 145 264.2 141.12 264.35C141.12 264.35 138.51 267.75 135.87 265.23C135.87 265.23 133.81 268.32 130.49 264.04C130.49 264.04 128.55 266.49 127.75 265.55C126.95 264.61 124.3 263.13 123.53 260.07C122.375 256.508 121.04 253.007 119.53 249.58L126.7 240.6Z" fill="#FFBF9D"/>
<path d="M265.51 154.66C266.2 154.66 294.59 151.66 294.59 151.66C294.59 151.66 297 140.12 296.87 137.12C296.74 134.12 294.72 114.27 294.72 114.27L305.35 109.27C305.35 109.27 319.56 157.19 316.46 161.17C313.36 165.15 307.53 168.72 307.03 168.74C306.53 168.76 279.52 180.74 260.73 174.51C241.94 168.28 265.51 154.66 265.51 154.66Z" fill="#FFBF9D"/>
<path d="M240.63 180.53C244.81 184.68 252.01 188.13 264.03 185.13C287.79 179.19 305.6 174.13 312.68 170.33C319.76 166.53 317 149.55 317.6 148.78C319.39 146.46 317.42 141.48 314.87 140.7C307.6 138.5 294.95 139.37 294.31 140.03C290.58 143.95 293.98 148.71 293.98 148.71L262.65 152.82C258.798 152.639 254.938 152.884 251.14 153.55" fill="#455A64"/>
<path d="M251.14 153.55L251.89 153.39C252.39 153.3 253.13 153.17 254.11 153.05C256.945 152.693 259.805 152.573 262.66 152.69L293.98 148.49L293.83 148.84C292.801 147.326 292.295 145.518 292.39 143.69C292.475 142.745 292.784 141.833 293.29 141.03C293.544 140.627 293.832 140.245 294.15 139.89C294.275 139.797 294.413 139.723 294.56 139.67L294.92 139.58C295.16 139.52 295.39 139.5 295.62 139.45C299.5 139.003 303.414 138.922 307.31 139.21C309.355 139.335 311.388 139.615 313.39 140.05C313.89 140.16 314.39 140.31 314.91 140.44C315.443 140.61 315.932 140.897 316.34 141.28C317.135 142.035 317.741 142.967 318.11 144C318.507 145.034 318.647 146.149 318.52 147.25C318.428 147.823 318.214 148.369 317.89 148.85C317.8 148.95 317.81 149.22 317.8 149.48V150.28C317.87 152.43 317.97 154.62 317.91 156.82C317.926 159.943 317.415 163.047 316.4 166C315.878 167.48 314.983 168.799 313.8 169.83C313.188 170.309 312.515 170.705 311.8 171.01C311.14 171.36 310.44 171.63 309.8 171.95C307.06 173.12 304.31 174.08 301.6 174.95C298.89 175.82 296.23 176.66 293.6 177.43C283.14 180.43 273.6 182.86 265.66 184.85C263.763 185.351 261.84 185.749 259.9 186.04C258.161 186.282 256.405 186.376 254.65 186.32C251.831 186.26 249.05 185.655 246.46 184.54C244.836 183.823 243.321 182.881 241.96 181.74C241.481 181.353 241.033 180.928 240.62 180.47C240.62 180.47 241.08 180.91 242.03 181.66C243.408 182.759 244.929 183.667 246.55 184.36C249.124 185.422 251.876 185.989 254.66 186.03C256.396 186.072 258.132 185.965 259.85 185.71C261.777 185.406 263.687 184.999 265.57 184.49C273.57 182.49 283.03 180.03 293.46 176.97C296.07 176.2 298.73 175.38 301.46 174.48C304.19 173.58 306.9 172.63 309.61 171.48C310.27 171.17 310.96 170.9 311.61 170.55C312.278 170.256 312.906 169.88 313.48 169.43C314.597 168.46 315.441 167.216 315.93 165.82C316.915 162.905 317.405 159.846 317.38 156.77C317.44 154.58 317.38 152.41 317.27 150.25V149.43C317.27 149.29 317.27 149.15 317.27 149C317.262 148.92 317.262 148.84 317.27 148.76C317.292 148.698 317.319 148.638 317.35 148.58L317.4 148.5C317.681 148.09 317.866 147.622 317.94 147.13C318.057 146.113 317.923 145.083 317.55 144.13C317.214 143.175 316.659 142.312 315.93 141.61C315.576 141.278 315.152 141.029 314.69 140.88C314.19 140.75 313.69 140.61 313.2 140.49C311.224 140.062 309.218 139.784 307.2 139.66C303.345 139.365 299.471 139.439 295.63 139.88C295.4 139.88 295.17 139.94 294.95 140L294.63 140.07C294.56 140.097 294.494 140.131 294.43 140.17C294.129 140.498 293.858 140.853 293.62 141.23C293.144 141.966 292.856 142.807 292.78 143.68C292.693 145.399 293.163 147.1 294.12 148.53L294.32 148.84H293.97L262.63 152.84C259.791 152.696 256.946 152.776 254.12 153.08C253.12 153.18 252.39 153.29 251.89 153.36C251.39 153.43 251.14 153.55 251.14 153.55Z" fill="#263238"/>
<path d="M166.313 186.118L153.552 163.19L394.923 28.8448C397.703 27.297 400.985 26.9173 404.046 27.7892C407.107 28.6611 409.696 30.7132 411.244 33.4941L412.338 35.46C413.886 38.2409 414.266 41.5228 413.394 44.5836C412.522 47.6444 410.47 50.2335 407.689 51.7813L166.318 186.127L166.313 186.118Z" fill="#108A37"/>
<path d="M368.714 64.8623L339.159 11.7631C339.016 11.5061 338.925 11.2234 338.891 10.9312C338.857 10.639 338.881 10.343 338.962 10.06C339.043 9.77714 339.178 9.51288 339.361 9.28235C339.544 9.05182 339.77 8.85954 340.027 8.71648L353.588 1.16856C353.845 1.0255 354.128 0.934451 354.42 0.900641C354.712 0.866831 355.008 0.890903 355.291 0.971491C355.574 1.05208 355.838 1.18761 356.069 1.37033C356.299 1.55304 356.491 1.77937 356.635 2.0364L386.189 55.1356L368.714 64.8623Z" fill="#108A37"/>
<path d="M310.573 40.1365L332.113 78.8358C332.983 80.3993 334.956 80.9614 336.519 80.0911L348.333 73.5159C349.896 72.6456 350.458 70.6726 349.588 69.1091L328.048 30.4097C327.178 28.8462 325.205 28.2842 323.642 29.1544L311.828 35.7297C310.265 36.5999 309.703 38.5729 310.573 40.1365Z" fill="#108A37"/>
<path d="M329.591 37.8764L342.926 61.8353L370.065 46.7297L356.73 22.7708L329.591 37.8764Z" fill="#108A37"/>
<path d="M391.39 30.86C391.46 30.98 344.09 57.48 285.61 90.04C227.13 122.6 179.61 148.9 179.61 148.77C179.61 148.64 226.9 122.15 285.4 89.58C343.9 57.01 391.32 30.73 391.39 30.86Z" fill="#263238"/>
<path d="M68.56 230.41C86.36 262.41 123.89 275.41 152.39 259.56C180.89 243.71 189.59 204.91 171.79 172.95C153.99 140.99 116.47 127.95 87.96 143.8C59.45 159.65 50.77 198.45 68.56 230.41ZM156.35 181.55C168.82 203.95 162.73 231.12 142.75 242.23C122.77 253.34 96.48 244.23 84.01 221.81C71.54 199.39 77.63 172.24 97.6 161.12C117.57 150 143.88 159.15 156.35 181.55Z" fill="#108A37"/>
<path d="M194.182 140.299L207.352 163.961C209.103 167.107 213.074 168.238 216.22 166.487L217.286 165.893C220.432 164.142 221.563 160.172 219.812 157.026L206.642 133.364C204.891 130.217 200.921 129.086 197.774 130.838L196.708 131.431C193.562 133.182 192.431 137.153 194.182 140.299Z" fill="#108A37"/>
<path d="M219.475 126.22L232.645 149.882C234.396 153.028 238.367 154.159 241.513 152.408L242.579 151.815C245.725 150.063 246.856 146.093 245.105 142.947L231.935 119.285C230.184 116.139 226.214 115.008 223.067 116.759L222.001 117.352C218.855 119.103 217.724 123.074 219.475 126.22Z" fill="#108A37"/>
<path d="M206.36 133C206.49 132.93 209.54 138.3 213.19 145C216.84 151.7 219.69 157.16 219.56 157.23C219.43 157.3 216.38 151.94 212.73 145.23C209.08 138.52 206.23 133 206.36 133Z" fill="#263238"/>
<path d="M194.75 141.25C194.88 141.18 197.86 146.31 201.42 152.69C204.98 159.07 207.75 164.32 207.63 164.39C207.51 164.46 204.52 159.33 201 153C197.48 146.67 194.63 141.32 194.75 141.25Z" fill="#263238"/>
<path d="M231.81 119.07C231.94 119 235.05 124.34 238.76 131C242.47 137.66 245.37 143.13 245.24 143.2C245.11 143.27 242.01 137.92 238.3 131.26C234.59 124.6 231.69 119.14 231.81 119.07Z" fill="#263238"/>
<path d="M219.6 126.44C219.72 126.37 222.77 131.68 226.39 138.3C230.01 144.92 232.86 150.3 232.73 150.41C232.6 150.52 229.57 145.17 225.94 138.55C222.31 131.93 219.47 126.51 219.6 126.44Z" fill="#263238"/>
<path d="M292.13 90.37C293.294 90.5071 294.468 90.2059 295.423 89.5251C296.377 88.8443 297.044 87.8327 297.294 86.6871C297.543 85.5416 297.358 84.3441 296.773 83.328C296.188 82.3118 295.246 81.5497 294.13 81.19C294.851 80.4514 295.322 79.5047 295.475 78.4838C295.629 77.463 295.457 76.4197 294.985 75.5017C294.513 74.5837 293.764 73.8376 292.844 73.3688C291.924 72.9001 290.88 72.7326 289.86 72.89C289.818 71.8746 289.514 70.8874 288.978 70.0243C288.441 69.1612 287.691 68.4516 286.799 67.9644C285.907 67.4772 284.904 67.229 283.888 67.244C282.872 67.259 281.877 67.5367 281 68.05C279.856 67.115 278.433 66.5893 276.956 66.5567C275.479 66.5241 274.034 66.9864 272.85 67.87C271.855 67.6801 270.826 67.8158 269.915 68.257C269.003 68.6982 268.258 69.4214 267.79 70.3194C267.322 71.2173 267.156 72.2421 267.316 73.242C267.477 74.2418 267.955 75.1633 268.68 75.87" fill="#263238"/>
<path d="M271.84 72.53H272.84C277.882 72.5342 282.738 74.4371 286.44 77.8597C290.143 81.2823 292.42 85.9737 292.82 91C293.57 100.69 294.27 111.4 294.19 116.6C294 127.4 283.26 129 283.26 129L284.13 141.94L258 141.09L255.83 94.19C254.91 83 260.64 73.15 271.84 72.53Z" fill="#FFBF9D"/>
<path d="M283.35 129C278.351 128.986 273.461 127.539 269.26 124.83C269.26 124.83 272.72 132.98 283.46 132.04L283.35 129Z" fill="#FF9A6C"/>
<path d="M286.91 101.15C286.913 101.551 286.758 101.936 286.48 102.224C286.201 102.512 285.821 102.68 285.42 102.69C285.225 102.704 285.029 102.678 284.843 102.616C284.658 102.553 284.487 102.454 284.34 102.325C284.193 102.195 284.073 102.038 283.987 101.862C283.901 101.687 283.851 101.495 283.84 101.3C283.84 100.899 283.995 100.514 284.273 100.225C284.55 99.9356 284.929 99.7655 285.33 99.75C285.526 99.7364 285.723 99.7621 285.909 99.8254C286.095 99.8887 286.266 99.9884 286.413 100.119C286.561 100.249 286.68 100.407 286.765 100.584C286.851 100.761 286.9 100.954 286.91 101.15Z" fill="#263238"/>
<path d="M290.49 96.29C290.3 96.49 289.13 95.63 287.49 95.63C285.85 95.63 284.62 96.45 284.44 96.25C284.26 96.05 284.55 95.8 285.08 95.41C285.797 94.917 286.65 94.6585 287.52 94.67C288.38 94.6664 289.218 94.9399 289.91 95.45C290.41 95.84 290.58 96.21 290.49 96.29Z" fill="#263238"/>
<path d="M272 100.43C272.008 100.837 271.855 101.23 271.574 101.524C271.293 101.819 270.907 101.989 270.5 102C270.305 102.014 270.109 101.988 269.923 101.926C269.738 101.863 269.567 101.764 269.42 101.635C269.273 101.505 269.153 101.348 269.067 101.172C268.982 100.997 268.931 100.805 268.92 100.61C268.917 100.208 269.071 99.8215 269.35 99.5319C269.628 99.2424 270.009 99.073 270.41 99.06C270.604 99.045 270.8 99.0686 270.985 99.1294C271.171 99.1902 271.342 99.2871 271.49 99.4144C271.638 99.5417 271.759 99.697 271.846 99.8713C271.934 100.046 271.986 100.235 272 100.43Z" fill="#263238"/>
<path d="M274.23 96.55C274.04 96.75 272.87 95.89 271.23 95.89C269.59 95.89 268.36 96.71 268.18 96.51C268 96.31 268.29 96.06 268.82 95.67C269.537 95.177 270.39 94.9185 271.26 94.93C272.12 94.9263 272.958 95.1999 273.65 95.71C274.15 96.1 274.32 96.46 274.23 96.55Z" fill="#263238"/>
<path d="M280.19 108.84C281.062 108.566 281.967 108.404 282.88 108.36C283.3 108.36 283.7 108.24 283.78 107.95C283.815 107.515 283.718 107.079 283.5 106.7L282.26 103.48C280.54 98.89 279.26 95.12 279.48 95.06C279.7 95 281.21 98.65 282.93 103.23C283.34 104.36 283.74 105.44 284.12 106.47C284.379 106.983 284.454 107.569 284.33 108.13C284.267 108.278 284.172 108.41 284.05 108.516C283.929 108.621 283.785 108.698 283.63 108.74C283.4 108.808 283.16 108.842 282.92 108.84C282.014 108.953 281.096 108.953 280.19 108.84Z" fill="#263238"/>
<path d="M275.68 90.19C275.46 90.61 274.05 90.19 272.3 90.09C270.55 89.99 269.09 90.32 268.93 89.88C268.86 89.67 269.17 89.3 269.8 88.96C270.613 88.5585 271.515 88.3725 272.42 88.42C273.317 88.4518 274.19 88.7209 274.95 89.2C275.52 89.59 275.78 90 275.68 90.19Z" fill="#263238"/>
<path d="M290.59 89.48C290.24 89.85 288.87 89.48 287.23 89.48C285.59 89.48 284.23 89.73 283.88 89.33C283.74 89.14 283.96 88.76 284.57 88.41C285.41 87.9695 286.352 87.759 287.3 87.8C288.243 87.8127 289.165 88.0786 289.97 88.57C290.55 88.91 290.74 89.29 290.59 89.48Z" fill="#263238"/>
<path d="M291.8 86.1C291.8 86.1 288.98 79.35 285.73 77.77C281.8 75.85 280.1 80.16 276.35 79.1C272.6 78.04 268.85 76.21 265.01 79.1C260.81 82.26 262.77 84.49 262.49 89.27C261.39 108.63 257.83 114.09 256.86 104.97C256.75 103.97 253.98 103.17 253.58 98.97C253.06 93.5 252.87 86.85 254.11 82.97C255.11 79.7 257.02 77.44 260.37 74.97C265.67 71.05 272.93 70.97 277.86 71.5C282.79 72.03 292.27 77.66 291.8 86.1Z" fill="#263238"/>
<path d="M257.54 104.67C257.529 104.275 257.438 103.886 257.272 103.527C257.106 103.169 256.87 102.847 256.576 102.583C256.282 102.318 255.938 102.116 255.564 101.988C255.19 101.86 254.794 101.81 254.4 101.84C252.4 102.03 250.15 103.16 250.27 107.31C250.48 114.67 257.83 112.94 257.84 112.72C257.85 112.5 257.66 107.75 257.54 104.67Z" fill="#FFBF9D"/>
<path d="M256.15 110C256.15 110 256.03 110.1 255.81 110.2C255.511 110.337 255.171 110.355 254.86 110.25C254.374 109.963 253.974 109.551 253.702 109.056C253.429 108.562 253.294 108.004 253.31 107.44C253.272 106.812 253.374 106.183 253.61 105.6C253.674 105.369 253.792 105.158 253.956 104.984C254.12 104.809 254.324 104.678 254.55 104.6C254.697 104.555 254.854 104.564 254.995 104.624C255.136 104.685 255.251 104.793 255.32 104.93C255.42 105.13 255.38 105.28 255.42 105.29C255.46 105.3 255.57 105.16 255.5 104.86C255.46 104.677 255.353 104.517 255.2 104.41C255.099 104.336 254.984 104.282 254.862 104.253C254.74 104.224 254.614 104.22 254.49 104.24C254.189 104.308 253.91 104.452 253.681 104.659C253.451 104.865 253.279 105.127 253.18 105.42C252.883 106.064 252.749 106.772 252.79 107.48C252.88 108.96 253.68 110.33 254.79 110.61C254.988 110.662 255.196 110.669 255.397 110.629C255.597 110.589 255.787 110.504 255.95 110.38C256.15 110.18 256.18 110 256.15 110Z" fill="#FF9A6C"/>
<path d="M257.73 90.41C258.63 91.1439 259.699 91.6422 260.84 91.86C261.413 91.9498 261.999 91.8291 262.49 91.5203C262.981 91.2114 263.343 90.7353 263.51 90.18C263.6 89.67 263.51 89.07 263.81 88.68C264.11 88.29 264.96 88.36 265.57 88.43C267.71 88.66 270.22 86.3 270.77 84.22C271.048 84.6189 271.467 84.8968 271.943 84.9971C272.419 85.0975 272.915 85.0127 273.33 84.76C274.01 84.3444 274.613 83.813 275.11 83.19C275.4 82.7933 275.781 82.4724 276.222 82.2548C276.662 82.0371 277.149 81.9292 277.64 81.94C278.158 82.1189 278.695 82.2363 279.24 82.29C280.24 82.21 280.68 81.08 280.83 80.12C280.98 79.16 281.1 78.05 281.92 77.53C282.762 77.2002 283.692 77.1755 284.55 77.46C285.44 77.6 286.55 77.39 286.82 76.52C286.857 76.2875 286.846 76.05 286.79 75.8215C286.733 75.5931 286.631 75.3783 286.49 75.19C285.895 74.298 285.016 73.633 283.996 73.3027C282.976 72.9724 281.875 72.9961 280.87 73.37C280.516 72.1393 279.804 71.0418 278.824 70.2173C277.844 69.3928 276.641 68.8786 275.368 68.7402C274.095 68.6019 272.81 68.8456 271.675 69.4404C270.541 70.0351 269.61 70.954 269 72.08C268.221 71.3667 267.281 70.8523 266.261 70.5807C265.24 70.3091 264.169 70.2883 263.139 70.5201C262.108 70.7519 261.149 71.2295 260.343 71.912C259.537 72.5945 258.908 73.4619 258.51 74.44C257.61 74.1998 256.659 74.2298 255.775 74.526C254.892 74.8223 254.115 75.3718 253.542 76.1061C252.968 76.8405 252.624 77.7273 252.55 78.6561C252.477 79.585 252.679 80.5148 253.13 81.33C252.445 81.6684 251.857 82.1754 251.421 82.8033C250.986 83.4313 250.717 84.1596 250.64 84.92C250.64 86.44 252.09 87.92 253.56 87.56C253.255 88.1589 253.191 88.8519 253.381 89.4965C253.571 90.1412 254.001 90.6886 254.582 91.0265C255.163 91.3643 255.851 91.4669 256.505 91.3132C257.16 91.1595 257.73 90.7612 258.1 90.2" fill="#263238"/>
<path d="M281.41 75.53C281.41 75.53 281.41 75.53 281.41 75.67C281.41 75.81 281.41 75.89 281.36 76.06C281.257 76.559 281.074 77.0384 280.82 77.48C280.414 78.172 279.857 78.7633 279.19 79.21C278.309 79.8111 277.256 80.1094 276.19 80.06L276.31 79.9C276.526 80.5603 276.472 81.2793 276.16 81.9C275.83 82.5579 275.405 83.1643 274.9 83.7C274.655 84.0123 274.376 84.2973 274.07 84.55C273.526 84.9079 272.873 85.0611 272.226 84.9823C271.58 84.9036 270.982 84.598 270.54 84.12L270.81 84.04C270.707 84.8041 270.444 85.5381 270.039 86.1944C269.635 86.8507 269.096 87.4147 268.46 87.85C267.761 88.3698 266.911 88.6472 266.04 88.64C265.223 88.5954 264.419 88.4163 263.66 88.11L263.86 88.02C263.475 88.9105 262.873 89.6907 262.11 90.29C261.762 90.5884 261.351 90.8052 260.908 90.9245C260.465 91.0439 260.001 91.0629 259.55 90.98C258.777 90.8117 258.069 90.4211 257.515 89.8561C256.961 89.2911 256.583 88.5765 256.43 87.8L256.6 87.88C255.822 88.283 254.93 88.4099 254.07 88.24C253.43 88.1178 252.827 87.8473 252.31 87.45C251.988 87.1977 251.711 86.8935 251.49 86.55C251.409 86.4307 251.348 86.2989 251.31 86.16C251.589 86.6198 251.952 87.0234 252.38 87.35C252.89 87.7186 253.479 87.9618 254.1 88.06C254.917 88.2146 255.762 88.0802 256.49 87.68L256.63 87.6V87.76C256.781 88.4827 257.14 89.1456 257.662 89.6677C258.184 90.1899 258.847 90.5485 259.57 90.7C259.982 90.772 260.405 90.751 260.809 90.6385C261.212 90.5261 261.585 90.325 261.9 90.05C262.616 89.4804 263.18 88.7415 263.54 87.9L263.6 87.77H263.74C264.464 88.0611 265.231 88.23 266.01 88.27C266.816 88.2765 267.602 88.0202 268.25 87.54C268.849 87.1287 269.356 86.597 269.738 85.9789C270.12 85.3608 270.37 84.6698 270.47 83.95V83.6L270.7 83.87C270.96 84.1572 271.287 84.3766 271.651 84.5091C272.015 84.6415 272.406 84.683 272.79 84.63C273.148 84.5822 273.49 84.4522 273.79 84.25C274.079 84.0172 274.341 83.7522 274.57 83.46C275.065 82.9498 275.482 82.3704 275.81 81.74C275.957 81.4592 276.047 81.1519 276.075 80.8361C276.102 80.5202 276.067 80.2019 275.97 79.9L275.91 79.72H276.1C277.121 79.7834 278.136 79.5131 278.99 78.95C279.646 78.5275 280.2 77.9637 280.61 77.3C280.979 76.7619 281.25 76.1626 281.41 75.53Z" fill="#455A64"/>
<path d="M280.17 114.33C280.11 114.06 278.32 114.5 276.66 113.28C275 112.06 274.73 110.1 274.48 110.15C274.23 110.2 274.23 110.67 274.41 111.48C274.656 112.537 275.269 113.472 276.14 114.12C276.972 114.74 278.011 115.012 279.04 114.88C279.81 114.76 280.21 114.45 280.17 114.33Z" fill="#263238"/>
<path d="M335.63 394.12L342.73 418.31C342.73 418.31 369.73 419.21 371.46 423.56L325 439L312.38 401.75L335.63 394.12Z" fill="#455A64"/>
<path d="M327.71 421.08C327.309 421.365 327.027 421.788 326.919 422.267C326.81 422.747 326.881 423.25 327.12 423.68C327.389 424.091 327.805 424.384 328.283 424.497C328.762 424.611 329.265 424.536 329.69 424.29C330.115 423.987 330.413 423.537 330.525 423.027C330.638 422.517 330.558 421.984 330.3 421.53C329.974 421.129 329.506 420.87 328.993 420.807C328.481 420.743 327.964 420.881 327.55 421.19" fill="#E0E0E0"/>
<path d="M368.84 421.81C368.84 421.81 371.21 422.02 371.46 423.56L325 439L323.88 435.19L368.8 421.79" fill="#263238"/>
<path d="M343.4 417.82C343.47 418.05 342.4 418.53 341.5 419.63C340.6 420.73 340.35 421.88 340.11 421.86C339.87 421.84 339.78 420.42 340.86 419.11C341.94 417.8 343.38 417.6 343.4 417.82Z" fill="white"/>
<path d="M348.94 418.21C349.07 418.42 348.22 419.13 347.76 420.34C347.3 421.55 347.43 422.65 347.2 422.71C346.97 422.77 346.4 421.54 346.99 420.04C347.58 418.54 348.87 418 348.94 418.21Z" fill="white"/>
<path d="M353.65 423.12C353.46 423.24 352.77 422.21 352.94 420.78C353.11 419.35 354 418.49 354.16 418.65C354.32 418.81 353.88 419.65 353.76 420.87C353.64 422.09 353.87 423 353.65 423.12Z" fill="white"/>
<path d="M341.17 412.49C341.17 412.73 340 412.76 338.75 413.27C337.5 413.78 336.63 414.52 336.45 414.37C336.27 414.22 336.96 413.09 338.45 412.5C339.94 411.91 341.23 412.27 341.17 412.49Z" fill="white"/>
<path d="M227.29 394.33L217.18 417.43C217.18 417.43 237.27 435.43 235.82 439.91L190.32 421.91L204.59 385.27L227.29 394.33Z" fill="#455A64"/>
<path d="M203.89 409.9C203.401 409.861 202.914 410.004 202.523 410.301C202.132 410.598 201.864 411.028 201.77 411.51C201.714 411.998 201.846 412.489 202.14 412.883C202.434 413.277 202.866 413.544 203.35 413.63C203.869 413.669 204.385 413.514 204.798 413.197C205.211 412.88 205.493 412.422 205.59 411.91C205.59 410.91 204.68 409.77 203.7 409.91" fill="#E0E0E0"/>
<path d="M234.93 436.89C234.93 436.89 236.61 438.58 235.82 439.89L190.32 421.89L191.91 418.26L234.91 436.86" fill="#263238"/>
<path d="M218 417.49C217.91 417.71 216.76 417.37 215.38 417.65C214 417.93 213.05 418.65 212.88 418.47C212.71 418.29 213.55 417.15 215.22 416.84C216.89 416.53 218.14 417.3 218 417.49Z" fill="white"/>
<path d="M222 421.35C222 421.58 220.86 421.58 219.73 422.22C218.6 422.86 218 423.77 217.73 423.68C217.46 423.59 217.87 422.27 219.28 421.5C220.69 420.73 222.08 421.14 222 421.35Z" fill="white"/>
<path d="M222.46 428.13C222.24 428.13 222.37 426.87 223.46 425.88C224.55 424.89 225.74 424.81 225.76 425.03C225.78 425.25 224.88 425.65 224.03 426.48C223.18 427.31 222.69 428.2 222.46 428.13Z" fill="white"/>
<path d="M219.73 412C219.56 412.16 218.66 411.46 217.37 411C216.08 410.54 214.95 410.6 214.91 410.37C214.87 410.14 216.12 409.71 217.63 410.21C219.14 410.71 219.91 411.84 219.73 412Z" fill="white"/>
<path d="M244.32 267.43L228.38 332.09C228.38 332.09 199.63 380.49 194.76 404.71L221.06 415.05C221.06 415.05 240.19 368.4 245.8 359.84C248.324 356.004 251.225 352.429 254.46 349.17C256.563 347.084 258.072 344.474 258.83 341.61L270.9 295.48L244.32 267.43Z" fill="#263238"/>
<path d="M237.53 257.09C237.53 257.09 239.75 274.41 256.42 282.09L291.54 339.29C291.54 339.29 294.29 357.89 299.54 373.56C304.79 389.23 315.4 419.43 315.4 419.43L344.29 408.63L325.88 345.69L322.88 323.86L294.22 250.86L269.6 236.1L237.53 257.09Z" fill="#263238"/>
<path d="M237.53 257.09L238.06 256.73L239.65 255.67L245.89 251.55L269.55 236L269.63 235.95L269.71 236L294.35 250.73V250.79L323.07 323.72V323.77C324.02 330.67 325.07 338.06 326.07 345.6C331.07 362.6 336.37 380.79 341.85 399.53C342.737 402.55 343.617 405.55 344.49 408.53L344.56 408.76L344.33 408.84L315.44 419.64L315.19 419.73L315.11 419.48C310.11 404.97 305.27 391 300.7 377.75C299.55 374.44 298.42 371.16 297.48 367.88C296.54 364.6 295.69 361.34 294.92 358.12C293.4 351.68 292.18 345.39 291.22 339.29V339.37L256.3 282.15L256.36 282.2C252.136 280.225 248.385 277.368 245.36 273.82C243.142 271.216 241.323 268.297 239.96 265.16C239.117 263.223 238.447 261.215 237.96 259.16C237.79 258.48 237.69 257.95 237.63 257.59C237.57 257.23 237.56 257.05 237.56 257.05C237.56 257.05 237.56 257.23 237.67 257.58C237.78 257.93 237.84 258.46 238.03 259.15C238.546 261.179 239.235 263.159 240.09 265.07C241.47 268.175 243.296 271.063 245.51 273.64C248.546 277.151 252.296 279.973 256.51 281.92L291.7 339.08V339.13C292.7 345.21 293.9 351.49 295.42 357.92C296.19 361.13 297.03 364.38 297.98 367.65C298.93 370.92 300.05 374.18 301.2 377.49C305.79 390.74 310.62 404.71 315.64 419.21L315.31 419.06L344.2 408.26L344.04 408.57C343.173 405.59 342.293 402.59 341.4 399.57L325.64 345.63C324.64 338.09 323.58 330.7 322.64 323.8V323.86L294.03 250.86L294.11 250.95L269.51 236.16H269.66L246 251.64L239.7 255.7L238.08 256.75L237.53 257.09Z" fill="#455A64"/>
<path d="M253 133.52C253 133.52 244.58 140 240.49 147.24C235.59 155.91 235.06 168.76 234.91 188.72C234.76 207.18 237.52 212.31 236.46 219.27C234.37 232.86 232.82 278.47 232.82 278.47C232.82 278.47 259.82 268.1 265.06 263.47L270.33 258.89L304.12 270.06L297.3 228.54L292.62 176.79L286.62 149.34L285.62 138.57L256.6 126.91L253 133.52Z" fill="#455A64"/>
<path d="M284.53 138C284.88 138.07 283.7 140.44 281.62 143.92L281.53 144.06L281.37 144C278.44 142.86 274.56 141.43 270.32 139.88C265.54 138.14 261.22 136.52 258.13 135.26C256.58 134.63 255.34 134.1 254.49 133.71C254.039 133.535 253.604 133.321 253.19 133.07C253.665 133.176 254.127 133.33 254.57 133.53L258.26 134.92L270.5 139.39C274.74 140.94 278.61 142.39 281.5 143.63L281.26 143.71C283.44 140.3 284.73 138.05 284.53 138Z" fill="#263238"/>
<path d="M319.45 116.44C319.45 116.44 317.31 113.11 315.29 110.04C313.27 106.97 310.21 105.46 309.72 103.86C309.23 102.26 306.54 95.13 306.11 93.36C305.736 91.6458 305.562 89.8942 305.59 88.14C305.59 88.14 307.8 87.2 308.86 90.36C309.5 92.26 311.54 98.71 311.98 99.03C312.42 99.35 312.98 98.88 312.98 98.88C312.072 96.4649 311.287 94.0051 310.63 91.51C310.53 90.34 310.94 82.58 310.94 82.58C311.488 82.4695 312.058 82.559 312.546 82.8323C313.034 83.1056 313.408 83.5447 313.6 84.07C314.65 86.07 314.69 91.07 314.69 91.07L316.28 96.65L315.72 91.13L316.52 80.98C317.297 81.0907 318.021 81.4381 318.594 81.9749C319.166 82.5117 319.559 83.2118 319.72 83.98C320.39 86.72 319.5 90.54 319.95 91.35C320.4 92.16 320.89 97.06 320.89 97.06C320.89 97.06 321.44 85.16 322.71 84.82C323.98 84.48 325.02 85.74 324.84 88.14C324.66 90.54 324.61 95.62 325.27 97.86C325.93 100.1 332.7 108.86 332.15 112.7C331.813 115.02 331.603 117.357 331.52 119.7H319.92L319.45 116.44Z" fill="#FFBF9D"/>
<path d="M278.76 146.41C279.41 146.66 307.12 153.52 307.12 153.52C307.12 153.52 313.31 143.52 314.22 140.62C315.13 137.72 320 118.4 320 118.4L331.71 117.3C331.71 117.3 328.71 167.19 324.47 169.88C320.23 172.57 313.47 173.93 313.03 173.78C312.59 173.63 283.08 175.68 267.53 163.43C251.98 151.18 278.76 146.41 278.76 146.41Z" fill="#FFBF9D"/>
<g opacity="0.3">
<path d="M258.9 172.82C261.874 176.186 265.842 178.519 270.23 179.48C277.58 181.1 293.23 183.97 293.23 183.97L292.47 176.29L258.47 172.65" fill="black"/>
</g>
<path d="M246.56 162.26C249.08 167.58 254.68 173.26 266.99 174.55C291.36 177.07 309.81 178.41 317.78 177.21C325.75 176.01 328.92 159.14 329.78 158.62C332.26 157.06 332.1 151.7 329.96 150.1C323.88 145.55 311.69 142.1 310.87 142.47C306.02 144.88 307.6 150.52 307.6 150.52L276.7 143.7C273.141 142.22 269.428 141.14 265.63 140.48" fill="#455A64"/>
<path d="M265.63 140.48C265.63 140.48 265.89 140.48 266.39 140.58C266.89 140.68 267.64 140.8 268.6 141.01C271.387 141.642 274.116 142.505 276.76 143.59L307.64 150.31L307.38 150.59C306.923 148.818 307.063 146.944 307.78 145.26C308.175 144.398 308.772 143.643 309.52 143.06C309.899 142.764 310.304 142.503 310.73 142.28C310.876 142.236 311.028 142.213 311.18 142.21H311.55C311.8 142.21 312.02 142.29 312.26 142.33C316.06 143.229 319.766 144.484 323.33 146.08C325.208 146.898 327.023 147.854 328.76 148.94C329.19 149.22 329.62 149.53 330.05 149.83C330.495 150.168 330.857 150.602 331.11 151.1C331.598 152.082 331.851 153.164 331.85 154.26C331.876 155.369 331.628 156.468 331.13 157.46C330.854 157.972 330.464 158.413 329.99 158.75C329.87 158.81 329.79 159.07 329.69 159.31L329.43 160.06C328.77 162.06 328.11 164.2 327.31 166.26C326.262 169.214 324.728 171.972 322.77 174.42C322.06 175.35 321.155 176.114 320.119 176.656C319.082 177.199 317.939 177.507 316.77 177.56C316.02 177.67 315.27 177.69 314.53 177.75C311.53 177.93 308.65 177.89 305.8 177.81C302.95 177.73 300.16 177.58 297.45 177.41C286.58 176.71 276.83 175.72 268.65 174.87C266.696 174.699 264.753 174.418 262.83 174.03C261.123 173.665 259.451 173.156 257.83 172.51C255.203 171.49 252.797 169.976 250.74 168.05C249.456 166.821 248.352 165.417 247.46 163.88C247.141 163.353 246.863 162.801 246.63 162.23C246.63 162.23 246.91 162.8 247.55 163.83C248.474 165.329 249.594 166.697 250.88 167.9C252.935 169.784 255.331 171.257 257.94 172.24C259.564 172.866 261.236 173.358 262.94 173.71C264.858 174.078 266.794 174.341 268.74 174.5C276.92 175.31 286.67 176.26 297.52 176.94C300.24 177.1 303.02 177.24 305.86 177.31C308.7 177.38 311.61 177.42 314.55 177.25C315.28 177.18 316.03 177.16 316.76 177.05C317.489 177.012 318.209 176.874 318.9 176.64C320.282 176.107 321.501 175.225 322.44 174.08C324.356 171.679 325.856 168.975 326.88 166.08C327.68 164.08 328.33 161.97 328.99 159.91L329.27 159.13C329.27 159.01 329.37 158.88 329.43 158.74C329.466 158.663 329.51 158.589 329.56 158.52C329.598 158.472 329.642 158.428 329.69 158.39L329.76 158.33C330.175 158.043 330.517 157.663 330.76 157.22C331.227 156.291 331.454 155.259 331.42 154.22C331.423 153.208 331.194 152.209 330.75 151.3C330.532 150.871 330.221 150.495 329.84 150.2C329.41 149.91 329 149.6 328.57 149.33C326.858 148.252 325.066 147.306 323.21 146.5C319.686 144.911 316.02 143.659 312.26 142.76C312.03 142.76 311.8 142.66 311.58 142.64H311.25H311.03C310.636 142.85 310.261 143.095 309.91 143.37C309.213 143.895 308.654 144.582 308.28 145.37C307.617 146.952 307.481 148.705 307.89 150.37L307.98 150.72L307.63 150.64L276.8 143.74C274.18 142.638 271.479 141.742 268.72 141.06C267.72 140.83 267.03 140.67 266.53 140.57C266.03 140.47 265.63 140.48 265.63 140.48Z" fill="#263238"/>
<path d="M317.78 160.17C317.069 159.994 316.393 159.7 315.78 159.3C314.247 158.445 312.834 157.389 311.58 156.16C310.319 154.936 309.217 153.559 308.3 152.06C307.883 151.446 307.562 150.771 307.35 150.06C308.721 152.08 310.256 153.983 311.94 155.75C313.751 157.395 315.705 158.874 317.78 160.17Z" fill="#263238"/>
<path d="M100.22 242.53C100.22 242.53 106.42 242.86 110.22 245.27C114.02 247.68 120.22 251.4 122.77 256.04C123.94 258.17 120.61 258.62 118.97 257.38C117.33 256.14 114.8 253.82 113.55 253.53L112.3 253.25C113.44 255.83 114.711 258.35 116.11 260.8C117.4 262.8 118.52 266.12 114.65 266.28C114.65 266.28 112.03 269.68 109.39 267.16C109.39 267.16 107.33 270.24 104.01 265.97C104.01 265.97 102.08 268.41 101.27 267.48C100.46 266.55 97.82 265.06 97.05 262C95.901 258.436 94.5659 254.934 93.05 251.51L100.22 242.53Z" fill="#FFBF9D"/>
<path d="M47.46 161C44.2819 162.023 41.539 164.083 39.67 166.85C37.29 170.51 36.56 176.85 37.24 181.57C38.68 191.52 43.24 208.31 45.81 219.09C46.69 222.81 48.5 229.47 53.81 233L91.7 255.72L101.83 240.72L67.29 212.57L60.46 173.99L47.46 161Z" fill="#455A64"/>
<path d="M40.91 198.92C40.9619 199.046 41.0021 199.177 41.03 199.31L41.35 200.48C41.62 201.54 42 203.06 42.5 205.01C43.5 209.01 44.92 214.69 46.69 221.76C47.7176 225.611 49.8943 229.057 52.93 231.64C54.6641 233.028 56.5181 234.26 58.47 235.32L64.56 239L91.85 255.48L91.5 255.56L95.15 250.15L101.63 240.52L101.68 240.87L67.45 212.68H67.39V212.61C65.13 203.1 63.49 195.31 62.45 189.89C61.94 187.18 61.58 185.07 61.35 183.63C61.25 182.93 61.17 182.38 61.11 181.99C61.05 181.6 61.04 181.43 61.04 181.43C61.0943 181.611 61.1377 181.794 61.17 181.98C61.24 182.37 61.34 182.91 61.46 183.61C61.73 185.04 62.12 187.15 62.68 189.85C63.77 195.25 65.47 203.02 67.78 212.52L67.71 212.41L102 240.47L102.18 240.62L102.05 240.81L95.57 250.44L91.92 255.85L91.79 256.05L91.57 255.93L64.32 239.4L58.24 235.71C56.2751 234.639 54.408 233.397 52.66 232C49.5718 229.355 47.3694 225.826 46.35 221.89C44.64 214.8 43.27 209.07 42.35 205.1C41.9 203.1 41.54 201.61 41.29 200.55L41 199.32C40.9607 199.189 40.9306 199.055 40.91 198.92Z" fill="#263238"/>
<path d="M41.53 166.33C41.7652 166.176 42.0259 166.064 42.3 166C43.0259 165.776 43.7681 165.609 44.52 165.5C47.0282 165.113 49.5948 165.461 51.91 166.5C54.1477 167.667 56.0483 169.388 57.43 171.5C57.8489 172.138 58.185 172.827 58.43 173.55C58.5374 173.807 58.5983 174.081 58.61 174.36C58.1778 173.442 57.6799 172.556 57.12 171.71C55.6966 169.739 53.8341 168.127 51.68 167C49.4458 166.01 46.9889 165.63 44.56 165.9C42.69 166.05 41.56 166.42 41.53 166.33Z" fill="#263238"/>
</g>
<defs>
<clipPath id="clip0_1_2">
<rect width="509" height="441" fill="white"/>
</clipPath>
</defs>
</svg>
